<svg width="28" height="22" viewBox="0 0 28 22" fill="none" xmlns="http://www.w3.org/2000/svg">
<g clip-path="url(#clip0_296_7255)">
<mask id="mask0_296_7255" style="mask-type:luminance" maskUnits="userSpaceOnUse" x="0" y="0" width="28" height="22">
<path d="M28 0H0V22H28V0Z" fill="white"/>
</mask>
<g mask="url(#mask0_296_7255)">
<mask id="mask1_296_7255" style="mask-type:luminance" maskUnits="userSpaceOnUse" x="0" y="0" width="28" height="22">
<path d="M28 0H0V21.9931H28V0Z" fill="white"/>
</mask>
<g mask="url(#mask1_296_7255)">
<path d="M1.49899 16.5254H2.44984L3.93322 20.7746H3.07201L2.10333 17.6666C2.09514 17.6264 2.08839 17.5969 2.08262 17.5787C2.07683 17.5605 2.06767 17.5331 2.05563 17.4967C2.03201 17.4117 1.99972 17.2841 1.96021 17.1147C1.94816 17.1795 1.93322 17.2419 1.91538 17.3028C1.89756 17.3632 1.88068 17.4241 1.86478 17.485L1.80502 17.6671L0.835866 20.7751H0.015625L1.49852 16.5259L1.49899 16.5254ZM0.960686 18.9414H2.97032V19.6152H0.960686V18.9414Z" fill="white"/>
<path d="M4.37598 17.833H5.10031V18.1164C5.10031 18.2411 5.09454 18.3471 5.08249 18.4356C5.18176 18.2268 5.31863 18.0579 5.49213 17.9292C5.66659 17.8007 5.88056 17.7363 6.13358 17.7363C6.20875 17.7363 6.29405 17.7422 6.38948 17.7545V18.4655C6.29454 18.4494 6.19719 18.4415 6.09888 18.4415C5.9008 18.4415 5.72875 18.4744 5.58225 18.5407C5.43526 18.6069 5.31863 18.713 5.23189 18.8569C5.14418 19.0018 5.1008 19.1864 5.1008 19.4118V20.7741H4.37646V17.8326L4.37598 17.833Z" fill="white"/>
<path d="M7.42802 20.6828C7.21067 20.5562 7.04247 20.3744 6.92343 20.1373C6.80439 19.9006 6.74512 19.6187 6.74512 19.2936C6.74512 18.9685 6.81018 18.6989 6.94127 18.4617C7.07187 18.2251 7.2521 18.0428 7.4815 17.9162C7.7109 17.7895 7.96825 17.7266 8.25355 17.7266C8.52295 17.7266 8.75669 17.7777 8.95428 17.8803C9.15235 17.9829 9.30657 18.1254 9.41789 18.3085C9.52873 18.4912 9.59573 18.6989 9.61982 18.9322H8.88922C8.87765 18.7559 8.8174 18.6081 8.70802 18.4892C8.59909 18.3709 8.44825 18.3119 8.25355 18.3119C8.1109 18.3119 7.98078 18.3503 7.86174 18.4264C7.74272 18.503 7.65018 18.616 7.58272 18.7672C7.51475 18.9175 7.4815 19.0953 7.4815 19.3005C7.4815 19.4934 7.51379 19.6649 7.57982 19.8162C7.64488 19.9664 7.73404 20.0842 7.84729 20.1682C7.96007 20.2531 8.0897 20.2953 8.2362 20.2953C8.44199 20.2953 8.6015 20.2341 8.71475 20.1117C8.82753 19.989 8.89355 19.8339 8.91332 19.6442H9.6497C9.61404 19.8981 9.5374 20.1157 9.42127 20.2984C9.30415 20.481 9.14368 20.6224 8.9403 20.7231C8.73644 20.8239 8.49355 20.8735 8.2121 20.8735C7.90705 20.8735 7.64633 20.81 7.42802 20.6838V20.6828Z" fill="white"/>
<path d="M10.0781 16.5449H10.8029V17.9558C10.8029 18.0039 10.8005 18.0422 10.7967 18.0703C10.7967 18.0988 10.7948 18.1268 10.7909 18.1547C10.7871 18.1832 10.7808 18.2131 10.7731 18.2455C10.8646 18.0845 10.9827 17.9578 11.1292 17.8654C11.2757 17.7731 11.4598 17.7269 11.6815 17.7269C11.9032 17.7269 12.0801 17.776 12.2367 17.8748C12.3933 17.9735 12.5132 18.1115 12.5962 18.2907C12.6791 18.4695 12.721 18.6792 12.721 18.9203V20.7647H11.9962V19.0288C11.9962 18.8039 11.947 18.6281 11.8478 18.5014C11.7485 18.3747 11.6102 18.3118 11.4323 18.3118C11.3133 18.3118 11.2068 18.3437 11.1119 18.4081C11.0169 18.4729 10.9413 18.5613 10.8863 18.6733C10.8309 18.7863 10.8034 18.9105 10.8034 19.0469V20.7647H10.0786V16.5449H10.0781Z" fill="white"/>
<path d="M13.8876 20.674C13.664 20.5493 13.4895 20.3691 13.3647 20.1314C13.2399 19.8948 13.1777 19.6094 13.1777 19.2754C13.1777 18.9705 13.2399 18.699 13.3647 18.4623C13.4895 18.225 13.663 18.0414 13.8842 17.9103C14.1059 17.7797 14.3556 17.7148 14.6326 17.7148C14.9097 17.7148 15.172 17.7802 15.3835 17.9103C15.5951 18.0414 15.7556 18.2247 15.8645 18.4623C15.9739 18.699 16.0279 18.9784 16.0279 19.3V19.4626H13.9199C13.9237 19.6192 13.9565 19.7592 14.0182 19.8815C14.0799 20.0042 14.1657 20.1019 14.2765 20.1736C14.3879 20.2464 14.5146 20.2826 14.6567 20.2826C14.8192 20.2826 14.9565 20.2395 15.0697 20.153C15.1825 20.0666 15.251 19.9473 15.2746 19.7945H16.0105C15.9907 19.9958 15.9224 20.1771 15.8061 20.3401C15.6891 20.5026 15.5315 20.6304 15.3339 20.7231C15.1359 20.8154 14.9102 20.8616 14.6567 20.8616C14.3676 20.8616 14.1112 20.7993 13.8881 20.6745L13.8876 20.674ZM15.0987 18.4476C14.9777 18.3247 14.8211 18.2638 14.6264 18.2638C14.4317 18.2638 14.2702 18.3263 14.1396 18.451C14.0086 18.5758 13.9339 18.7363 13.9141 18.9332H15.2857C15.2819 18.7319 15.2192 18.5708 15.0987 18.4481V18.4476Z" fill="white"/>
<path d="M16.4814 20.7634V17.8219V16.7617H17.2057V17.8219H18.1682V18.4068H17.2057V20.1757H18.1682V20.7634H16.4814Z" fill="white"/>
<path d="M19.6725 20.7403L18.5381 17.8228H19.3521L19.9693 19.7218C20.0132 19.8549 20.0446 19.9708 20.0643 20.0715C20.0682 20.0391 20.074 20.0071 20.0822 19.9747C20.0898 19.9428 20.0981 19.9123 20.1057 19.8843C20.1135 19.8519 20.1217 19.8249 20.1293 19.8028C20.1376 19.7806 20.1453 19.7537 20.153 19.7213L20.7415 17.8223H21.502L19.9756 21.9935H19.1973L19.6725 20.7397V20.7403Z" fill="white"/>
<path d="M21.8789 17.8228H22.6033V17.956C22.6033 18.0404 22.5955 18.1367 22.5797 18.2452C22.6789 18.0802 22.8062 17.953 22.9628 17.8621C23.1189 17.7718 23.3079 17.7266 23.5295 17.7266C23.783 17.7266 24.0057 17.7938 24.198 17.9284C24.3898 18.0634 24.5382 18.2501 24.6433 18.4888C24.7483 18.7279 24.8009 19.0024 24.8009 19.3118C24.8009 19.6211 24.7445 19.8943 24.6317 20.1314C24.5184 20.3681 24.3633 20.5512 24.1652 20.6799C23.9672 20.8086 23.7454 20.8729 23.5002 20.8729C23.2708 20.8729 23.0852 20.8287 22.9449 20.7403C22.8043 20.6519 22.6823 20.5253 22.5797 20.3607C22.5955 20.4692 22.6033 20.563 22.6033 20.6435V21.9941H21.8789V17.8233V17.8228ZM23.7117 20.1673C23.8249 20.0827 23.9117 19.9664 23.9734 19.8181C24.035 19.6698 24.0654 19.4965 24.0654 19.2995C24.0654 19.1026 24.036 18.9362 23.9768 18.7873C23.9175 18.6385 23.8313 18.5221 23.7184 18.4377C23.6057 18.3532 23.4742 18.311 23.3233 18.311C23.1807 18.311 23.0519 18.3512 22.9378 18.4318C22.823 18.5123 22.7339 18.6268 22.6703 18.7751C22.6067 18.9238 22.5753 19.0982 22.5753 19.2995C22.5753 19.5008 22.6067 19.6638 22.6703 19.8152C22.7334 19.9653 22.8215 20.0832 22.9344 20.1673C23.0477 20.2522 23.1768 20.2945 23.3233 20.2945C23.4698 20.2945 23.5999 20.2522 23.7122 20.1673H23.7117Z" fill="white"/>
<path d="M25.8603 20.6858C25.6366 20.5611 25.4623 20.3808 25.3374 20.1431C25.2126 19.9065 25.1504 19.6211 25.1504 19.2873C25.1504 18.9822 25.2126 18.7107 25.3374 18.4741C25.4623 18.2369 25.6358 18.0531 25.8569 17.922C26.0786 17.7914 26.3283 17.7266 26.6054 17.7266C26.8825 17.7266 27.1446 17.7919 27.3561 17.922C27.5678 18.0531 27.7283 18.2364 27.8371 18.4741C27.9465 18.7107 28.0005 18.9901 28.0005 19.3118V19.4744H25.8926C25.8964 19.631 25.9293 19.7709 25.9909 19.8932C26.0526 20.016 26.1384 20.1138 26.2493 20.1853C26.3605 20.2581 26.4873 20.2945 26.6295 20.2945C26.7919 20.2945 26.9293 20.2512 27.0425 20.1642C27.1553 20.0779 27.2236 19.9585 27.2473 19.8058H27.9831C27.9634 20.0072 27.895 20.1884 27.7789 20.3514C27.6618 20.514 27.5041 20.6416 27.3065 20.7345C27.1085 20.8268 26.8829 20.8729 26.6295 20.8729C26.3403 20.8729 26.0839 20.8105 25.8608 20.6858H25.8603ZM27.0714 18.4593C26.9504 18.3365 26.7938 18.2757 26.5991 18.2757C26.4044 18.2757 26.2429 18.338 26.1124 18.4627C25.9813 18.5875 25.9065 18.7481 25.8868 18.945H27.2584C27.2545 18.7436 27.1924 18.5825 27.0714 18.4598V18.4593Z" fill="white"/>
<path d="M28 15.4245H24.0516V6.79299L15.4858 15.4245H0V11.4454H13.8496L21.2593 3.97915H12.693V0H27.9995V15.4245H28Z" fill="white"/>
</g>
</g>
</g>
<defs>
<clipPath id="clip0_296_7255">
<rect width="28" height="22" fill="white"/>
</clipPath>
</defs>
</svg>
