<svg width="95" height="26" viewBox="0 0 95 26" fill="none" xmlns="http://www.w3.org/2000/svg">
<mask id="mask0_296_7055" style="mask-type:luminance" maskUnits="userSpaceOnUse" x="0" y="0" width="95" height="26">
<path d="M94.12 0H2.28882e-05V26H94.12V0Z" fill="white"/>
</mask>
<g mask="url(#mask0_296_7055)">
<path d="M34.0998 4.35352H20.8205C20.0864 4.35352 19.4936 4.94906 19.4936 5.68032V9.66352C19.4936 10.3976 18.9009 10.9903 18.1668 10.9903H6.21159C5.47754 10.9903 4.88477 11.5859 4.88477 12.3171V17.6299C4.88477 18.3639 5.48031 18.9567 6.21159 18.9567H19.4909C20.2249 18.9567 20.8177 18.3612 20.8177 17.6299V13.6467C20.8177 12.9127 21.4105 12.3199 22.1445 12.3199H34.097C34.831 12.3199 35.4238 11.7244 35.4238 10.9931V5.68032C35.4238 4.94629 34.8283 4.35352 34.097 4.35352H34.0998Z" fill="#6E29F4"/>
<path d="M69.5283 21.6471C69.5283 20.7469 67.3927 21.4948 67.3927 19.9879C67.3927 19.1957 68.1018 18.8301 68.7361 18.8301C69.207 18.8301 69.6059 18.9769 69.9826 19.2899L69.6918 19.7802C69.4037 19.5059 69.0962 19.3813 68.7361 19.3813C68.4093 19.3813 68.0215 19.5613 68.0215 19.9658C68.0215 20.866 70.1571 20.1181 70.1571 21.625C70.1571 22.4338 69.4314 22.7828 68.7527 22.7828C68.1794 22.7828 67.6448 22.5695 67.293 22.1208L67.5977 21.6028C67.9467 22.0405 68.3179 22.2316 68.75 22.2316C69.1156 22.2316 69.5256 22.0626 69.5256 21.6471H69.5283Z" fill="white"/>
<path d="M70.9366 18.7461C71.1388 18.7461 71.2911 18.8929 71.2911 19.1006C71.2911 19.3084 71.1388 19.4552 70.9366 19.4552C70.7344 19.4552 70.582 19.3084 70.582 19.1006C70.582 18.8929 70.7344 18.7461 70.9366 18.7461ZM70.6374 19.9815H71.2385V22.7127H70.6374V19.9815Z" fill="white"/>
<path d="M71.874 18.8906H72.4751V22.7132H71.874V18.8906Z" fill="white"/>
<path d="M73.4102 18.7461C73.6124 18.7461 73.7648 18.8929 73.7648 19.1006C73.7648 19.3084 73.6124 19.4552 73.4102 19.4552C73.208 19.4552 73.0557 19.3084 73.0557 19.1006C73.0557 18.8929 73.208 18.7461 73.4102 18.7461ZM73.1083 19.9815H73.7094V22.7127H73.1083V19.9815Z" fill="white"/>
<path d="M74.1885 21.3481C74.1885 20.5171 74.8062 19.916 75.651 19.916C76.1219 19.916 76.5291 20.1182 76.7812 20.4229L76.3324 20.7886C76.1856 20.603 75.9391 20.4728 75.6483 20.4728C75.1524 20.4728 74.784 20.8329 74.784 21.3481C74.784 21.8633 75.1497 22.2234 75.6483 22.2234C75.9391 22.2234 76.1829 22.0932 76.3324 21.9076L76.7812 22.2732C76.5291 22.5779 76.1191 22.7802 75.651 22.7802C74.8034 22.7802 74.1885 22.1791 74.1885 21.3481Z" fill="white"/>
<path d="M78.4196 19.916C79.2506 19.916 79.8849 20.5226 79.8849 21.3481C79.8849 22.1735 79.2506 22.7802 78.4196 22.7802C77.5886 22.7802 76.957 22.1735 76.957 21.3481C76.957 20.5226 77.5914 19.916 78.4196 19.916ZM78.4196 20.4728C77.9182 20.4728 77.5553 20.855 77.5553 21.3481C77.5553 21.8411 77.9154 22.2234 78.4196 22.2234C78.9237 22.2234 79.2838 21.8411 79.2838 21.3481C79.2838 20.855 78.9237 20.4728 78.4196 20.4728Z" fill="white"/>
<path d="M80.9546 21.2428V22.7109H80.3535V19.9797H80.9546V20.4118C81.1125 20.085 81.4615 19.916 81.8244 19.916C82.4421 19.916 82.9102 20.3426 82.9102 21.1459V22.7137H82.3091V21.168C82.3091 20.7248 82.046 20.4839 81.6637 20.4839C81.2538 20.4839 80.9546 20.7581 80.9546 21.2428Z" fill="white"/>
<path d="M84.1708 22.7151H83.542V18.8926H85.9713V19.466H84.168V20.5573H85.7746V21.1196H84.168V22.7151H84.1708Z" fill="white"/>
<path d="M86.3503 18.8906H86.9514V22.7132H86.3503V18.8906Z" fill="white"/>
<path d="M88.8776 19.916C89.7086 19.916 90.3429 20.5226 90.3429 21.3481C90.3429 22.1735 89.7086 22.7802 88.8776 22.7802C88.0466 22.7802 87.415 22.1735 87.415 21.3481C87.415 20.5226 88.0494 19.916 88.8776 19.916ZM88.8776 20.4728C88.3762 20.4728 88.0134 20.855 88.0134 21.3481C88.0134 21.8411 88.3734 22.2234 88.8776 22.2234C89.3817 22.2234 89.7418 21.8411 89.7418 21.3481C89.7418 20.855 89.3817 20.4728 88.8776 20.4728Z" fill="white"/>
<path d="M94.0998 19.9902H94.687L93.9419 22.7214H93.1441L92.6206 20.6883L92.0611 22.7214H91.2633L90.5459 19.9902H91.147L91.6816 22.1702L92.2744 19.9902H92.9613L93.5319 22.1702L94.097 19.9902H94.0998Z" fill="white"/>
<path d="M67.3461 14.3684C67.2326 14.3213 64.5651 13.169 63.3186 11.6012H59.5929C58.3492 13.169 55.679 14.3185 55.5654 14.3684L55.5183 14.3877L55.0059 13.1856L55.0529 13.1662C55.1167 13.1385 56.5958 12.4959 57.7288 11.6012H55.3909V10.4738H57.8673V6.38535H56.1139V5.28291H57.8673V4.36328H59.2384V5.28291H63.6537V4.36328H65.0249V5.28291H66.7478V6.38535H65.0249V10.4738H67.4708V11.6012H65.1828C66.119 12.338 67.3267 12.9418 67.8503 13.1662L67.8973 13.1856L67.3849 14.3877L67.3378 14.3684H67.3461ZM63.6565 10.4738V9.8284H59.2412V10.4738H63.6565ZM63.6565 8.7869V8.1415H59.2412V8.7869H63.6565ZM63.6565 7.10277V6.38812H59.2412V7.10277H63.6565Z" fill="white"/>
<path d="M55.75 16.1341V15.0178H60.808V14.0954H58.0657V13.0095H60.808V12.0234H62.1514V13.0095H64.8549V14.0954H62.1514V15.0178H67.1706V16.1341H55.75Z" fill="white"/>
<path d="M42.7099 16.1301C42.419 16.1301 42.1808 15.8919 42.1808 15.6011V11.737C41.9869 12.0832 41.7875 12.4212 41.5825 12.748L41.5548 12.7896L40.4053 12.05L40.433 12.0084C41.9177 9.64844 42.5825 7.55713 42.8512 6.48515H41.3831V5.17773H45.948V6.48515H44.2472C44.1392 6.98098 43.8871 7.96154 43.3775 9.23295H45.1364C45.4272 9.23295 45.6655 9.47117 45.6655 9.76201V15.6011C45.6655 15.8919 45.4272 16.1301 45.1364 16.1301H42.7099ZM44.3608 14.8227V10.6013H43.5575V14.8227H44.3608Z" fill="white"/>
<path d="M46.1835 10.0664V8.68423H48.9978V7.22446H46.6406V5.91704H48.9978V4.3631H50.3967V5.91704H52.7539V7.22446H50.3967V8.68423H53.211V10.0664H46.1835Z" fill="white"/>
<path d="M46.1836 16.1272V14.745H48.9979V13.0941H46.6406V11.7866H48.9979V10.4238H50.3967V11.7866H52.754V13.0941H50.3967V14.745H53.211V16.1272H46.1836Z" fill="white"/>
<path d="M88.164 5.375H83.6074V6.68796H88.164V5.375Z" fill="white"/>
<path d="M87.9951 15.7201L88.0311 15.6841C89.7901 13.903 90.4133 10.6151 90.4133 8.33817V7.9199H88.9092V6.54878H90.4133V4.36328H91.7844V6.54601H94.2193C94.5101 6.54601 94.7483 6.78422 94.7483 7.07507V14.3822C94.7483 15.4209 93.9035 16.2658 92.8647 16.2658H91.7014L91.2609 14.9584H92.801C93.1196 14.9584 93.38 14.698 93.38 14.3794V7.9199H91.79V8.33817C91.79 10.9973 91.0615 14.5761 89.0117 16.648L88.9757 16.684L87.9979 15.7201H87.9951Z" fill="white"/>
<path d="M83.7573 14.8724C83.4665 14.8724 83.2282 14.6342 83.2282 14.3433V13.7284C83.2282 13.637 83.2504 13.5511 83.2947 13.4708C83.7074 12.7229 84.3529 11.2244 84.7462 10.0997H83.0371V8.78125H88.6962V10.0997H86.1949C85.8846 11.0803 85.3085 12.5124 84.7988 13.5567H87.2419L86.5965 11.795H88.0342L88.6629 13.5096C88.6851 13.5677 88.6962 13.6287 88.6962 13.6924V14.3461C88.6962 14.4874 88.6408 14.6203 88.5411 14.72C88.4413 14.8198 88.3084 14.8752 88.1671 14.8752H83.7545L83.7573 14.8724Z" fill="white"/>
<path d="M69.7508 5.45596L70.6677 4.41168L72.5901 6.0792L71.6732 7.12347L69.7508 5.45596Z" fill="white"/>
<path d="M69.1577 8.45261L70.0607 7.41388L72.1936 9.23374L71.2906 10.2725L69.1577 8.45261Z" fill="white"/>
<path d="M69.1609 15.9849L69.1858 15.9406C69.1858 15.9406 69.9254 14.647 71.0306 11.2344L71.0472 11.1873L72.4045 11.6084L72.3879 11.6554C71.2273 15.2398 70.46 16.5638 70.4268 16.6192L70.4018 16.6607L69.1609 15.9821V15.9849Z" fill="white"/>
<path d="M71.907 15.6662L71.9458 15.6358C73.4277 14.5195 73.6798 13.2647 73.6798 10.8798V10.8299H74.9872V10.8798C74.9872 13.5389 74.6271 15.2507 72.7324 16.68L72.6937 16.7105L71.907 15.6662Z" fill="white"/>
<path d="M77.3345 10.8299H76.0271V16.2673H77.3345V10.8299Z" fill="white"/>
<path d="M80.4204 16.2582C79.3817 16.2582 78.5369 15.4134 78.5369 14.3746V10.8318H79.8443V14.3746C79.8443 14.6932 80.1047 14.9535 80.4232 14.9535H82.0104V16.261H80.4232L80.4204 16.2582Z" fill="white"/>
<path d="M73.8182 10.2853C73.5274 10.2853 73.2892 10.047 73.2892 9.7562V9.23822C73.2892 9.09695 73.3446 8.96677 73.4443 8.86428C73.5274 8.77841 73.6132 8.69254 73.6991 8.60113C74.2337 8.03606 74.7157 7.45437 75.0647 6.95024H72.6853V5.65667H76.289V4.3631H77.7239V5.65944H81.3276V6.95301H76.6436C76.3472 7.52085 75.8265 8.24104 75.1644 8.9917H79.1117C78.7959 8.47371 78.5216 7.96127 78.3139 7.507L78.2807 7.43775H79.7764L79.7903 7.46545C80.0036 7.90033 80.4606 8.61775 80.649 8.90583C80.7044 8.9917 80.7321 9.09141 80.7321 9.19113V9.75897C80.7321 10.0498 80.4939 10.288 80.203 10.288H73.8238L73.8182 10.2853Z" fill="white"/>
</g>
</svg>
