<svg width="64" height="20" viewBox="0 0 64 20" fill="none" xmlns="http://www.w3.org/2000/svg">
<path d="M13.668 10.4463C13.668 11.393 12.8999 12.1602 11.9531 12.1602H4.72363V17.1855C4.72363 17.1855 4.51735 18.0073 4.2207 18.3916C3.89894 18.8084 2.81348 19.1953 2.81348 19.1953L0 20V10.0557C8.65919e-05 9.10902 0.767217 8.34186 1.71387 8.3418H8.94434V2.81445C8.94434 2.81445 9.29625 1.90123 9.74805 1.50781C10.1678 1.14257 10.8402 0.908877 10.8535 0.904297L13.668 0V10.4463ZM13.668 12.9639C13.6676 12.9683 13.4541 15.3455 12.3613 16.2803C10.9598 17.4792 9.05958 17.3865 9.04492 17.3857V14.1064C9.04505 13.4754 9.55649 12.964 10.1875 12.9639H13.668ZM4.62305 6.69727C4.62282 7.32824 4.11052 7.83984 3.47949 7.83984H0C0 7.83984 0.212821 5.45907 1.30664 4.52344C2.71364 3.31999 4.62305 3.41797 4.62305 3.41797V6.69727Z" fill="white"/>
<path d="M22.1074 9H20.728V6.10519H19.5817V9H18.2023V2.08355H19.5817V4.86178H20.728V2.08355H22.1074V9ZM28.0012 9H26.5635L26.34 7.92173H24.7469L24.5235 9H23.0858L24.8635 2.08355H26.2235L28.0012 9ZM26.0778 6.67833L25.5435 4.1138L25.0092 6.67833H26.0778ZM32.6621 7.02803C32.633 7.68859 32.3998 8.2423 32.0404 8.58229C31.6907 8.91257 31.273 9.07771 30.6999 9.07771C29.9227 9.07771 29.5147 8.76686 29.1942 8.38801C28.6405 7.72745 28.6793 6.48404 28.6793 5.55149C28.6793 4.61893 28.6405 3.3561 29.1942 2.69554C29.5147 2.31669 29.9227 2.00583 30.6999 2.00583C31.273 2.00583 31.6907 2.17097 32.0404 2.50125C32.3998 2.84125 32.6233 3.38524 32.6524 4.0458H31.273C31.2633 3.85152 31.2438 3.65723 31.1661 3.51152C31.0884 3.34638 30.9524 3.24924 30.6999 3.24924C30.4473 3.24924 30.321 3.36581 30.2433 3.52124C30.0782 3.8418 30.0587 4.70636 30.0587 5.54177C30.0587 6.37719 30.0782 7.24174 30.2433 7.56231C30.321 7.71774 30.4473 7.83431 30.6999 7.83431C30.9524 7.83431 31.0981 7.72745 31.1758 7.56231C31.2536 7.4166 31.273 7.22232 31.2827 7.02803H32.6621ZM38.1664 9H36.6899L35.6991 6.47433L35.2522 7.40688V9H33.8728V2.08355H35.2522V5.05607L36.5636 2.08355H37.943L36.5636 4.95893L38.1664 9ZM43.5673 9H42.1296L41.9062 7.92173H40.313L40.0896 9H38.6519L40.4296 2.08355H41.7896L43.5673 9ZM41.6439 6.67833L41.1096 4.1138L40.5753 6.67833H41.6439ZM47.4313 3.32695H46.2656V9H44.8862V3.32695H43.7205V2.08355H47.4313V3.32695ZM52.4523 9H51.0729V6.10519H49.9266V9H48.5472V2.08355H49.9266V4.86178H51.0729V2.08355H52.4523V9ZM57.7632 5.54177C57.7632 6.47433 57.802 7.72745 57.2483 8.38801C56.9278 8.76686 56.5003 9.07771 55.7232 9.07771C54.9461 9.07771 54.5381 8.76686 54.2175 8.38801C53.6638 7.72745 53.7027 6.47433 53.7027 5.54177C53.7027 4.60922 53.6638 3.3561 54.2175 2.69554C54.5381 2.31669 54.9461 2.00583 55.7232 2.00583C56.5003 2.00583 56.9278 2.31669 57.2483 2.69554C57.802 3.3561 57.7632 4.60922 57.7632 5.54177ZM56.3838 5.54177C56.3838 4.70636 56.3643 3.8418 56.1992 3.52124C56.1215 3.36581 55.9758 3.24924 55.7232 3.24924C55.4706 3.24924 55.3443 3.36581 55.2666 3.52124C55.1015 3.8418 55.0821 4.70636 55.0821 5.54177C55.0821 6.37719 55.1015 7.24174 55.2666 7.56231C55.3443 7.71774 55.4706 7.83431 55.7232 7.83431C55.9758 7.83431 56.1215 7.71774 56.1992 7.56231C56.3643 7.24174 56.3838 6.37719 56.3838 5.54177ZM63.0411 9H61.8657L60.3989 5.61949V9H59.0195V2.08355H60.224L61.6617 5.46406V2.08355H63.0411V9ZM25.2645 11.0835L23.8171 18H22.3794L21.4857 13.1041L20.592 18H19.1543L17.7069 11.0835H19.2223L19.8732 15.9697L20.728 11.0835H22.2434L23.0983 15.9697L23.7491 11.0835H25.2645ZM29.4137 18H26.2275V11.0835H29.4137V12.327H27.6069V13.8909H29.1612V15.1343H27.6069V16.7566H29.4137V18ZM33.834 18H30.6478V11.0835H33.834V12.327H32.0272V13.8909H33.5815V15.1343H32.0272V16.7566H33.834V18ZM39.3617 18H37.8852L36.8944 15.4743L36.4475 16.4069V18H35.0681V11.0835H36.4475V14.0561L37.7589 11.0835H39.1383L37.7589 13.9589L39.3617 18ZM43.5284 18H40.3422V11.0835H41.7216V16.7566H43.5284V18ZM47.7604 11.0835L46.3519 15.3966V18H44.9725V15.3966L43.5639 11.0835H45.0793L45.6622 13.5898L46.245 11.0835H47.7604Z" fill="white"/>
</svg>
