<svg width="86" height="20" viewBox="0 0 86 20" fill="none" xmlns="http://www.w3.org/2000/svg">
<g clip-path="url(#clip0_296_7035)">
<path d="M53.4182 13.1234C52.773 12.164 52.2674 11.1322 51.917 10.0564L51.864 9.89477H55.5788V8.48929H51.802V5.02666L51.9144 5.01631C53.135 4.909 54.194 4.73961 55.0629 4.51205L54.631 3.16992C53.8203 3.37292 52.9669 3.51515 52.0955 3.59532C51.2201 3.67548 50.231 3.72203 49.1552 3.73237H47.5829V5.12234H49.1539C49.4125 5.12234 49.7926 5.11329 50.2827 5.09519L50.4107 5.09001V8.48929H46.8265V3.36128H41.5304V8.5436H43.7414V14.4177L42.9204 14.5883V10.1676H41.5304V14.8754L41.043 14.9762L41.3248 16.3378L46.8084 15.2012L46.5265 13.8397L45.1314 14.128V11.6765H46.9468V10.2865H45.1314V8.5423H46.9558V9.89219H50.3008L50.2711 10.0396C49.9194 11.78 48.8526 13.5695 47.0955 15.3693L47.1006 15.3913L47.0683 15.3977C46.8446 15.6266 46.6093 15.8555 46.3636 16.0843L47.2739 17.1549C49.0582 15.5025 50.3241 13.8293 51.0391 12.1847L51.1477 11.9364L51.2641 12.1808C52.133 14.0026 53.3742 15.5684 54.9543 16.8343L55.8167 15.7313C54.9 15.006 54.0931 14.128 53.4169 13.1208L53.4182 13.1234ZM45.4301 7.1226H42.9307V4.75254H45.4301V7.1226Z" fill="white"/>
<path d="M65.2467 14.1692H70.1962V12.7637H65.2467V11.5819H70.5091V10.1764H65.2467V9.09292H69.3972C69.4088 9.09292 69.4192 9.09163 69.4347 9.08904H70.1096V3.23438H58.8994V3.83044C58.8942 3.87182 58.8903 3.89509 58.8903 3.92095V8.40505C58.8903 8.42962 58.8929 8.45289 58.8981 8.47875V9.08775H59.6105V9.09163H63.8412V10.1752H59.8626L59.9609 9.73425H58.5205L57.6426 13.674H59.083L59.5497 11.5806H63.8412V12.7624H60.4833L60.173 14.1679H63.8412V15.7143H57.8055V17.1043H71.2811V15.7143H65.2454V14.1679L65.2467 14.1692ZM60.3087 4.62434H68.6873V5.46867H60.3087V4.62434ZM60.3087 7.68615V6.85863H68.6873V7.68615H60.3087Z" fill="white"/>
<path d="M31.4497 11.8397C31.4497 12.609 31.2868 13.3822 30.9674 14.1399C30.6481 14.8963 30.211 15.5881 29.668 16.1958L30.6261 17.1215C31.2868 16.3755 31.813 15.5415 32.1893 14.6429C32.5681 13.7417 32.7595 12.7978 32.7595 11.8397V8.38867H31.4497V11.8397Z" fill="white"/>
<path d="M37.2063 8.38867H35.8965V16.9948H37.2063V8.38867Z" fill="white"/>
<path d="M28.7687 8.4793L28.7415 8.43534L29.7863 4.19173C29.8069 4.10769 29.8186 4.04304 29.8186 3.99908C29.8186 3.85168 29.7643 3.71203 29.6583 3.58403C29.507 3.40172 29.3298 3.3125 29.1152 3.3125H24.9893V17.1579H26.3947V4.71798H28.236L27.305 8.39525C27.2921 8.43533 27.2869 8.48964 27.2869 8.56334C27.2869 8.71462 27.3309 8.85814 27.4214 9.00425C27.6179 9.26156 27.8235 9.63782 28.0265 10.1123C28.2295 10.5882 28.3316 11.0562 28.3316 11.5049C28.3316 11.6859 28.3058 11.8734 28.2528 12.0622C28.0368 12.7087 27.4692 13.2065 26.5641 13.5478L27.0438 14.8421C28.3937 14.3521 29.2523 13.5478 29.5936 12.4501C29.6893 12.132 29.7371 11.8023 29.7371 11.4713C29.7371 10.5364 29.4113 9.52921 28.7674 8.478L28.7687 8.4793Z" fill="white"/>
<path d="M37.3257 5.74264C36.7491 5.00175 36.1465 4.14321 35.5324 3.19027C35.4729 3.07261 35.394 2.98986 35.2945 2.93167C35.1923 2.87349 35.0824 2.84375 34.9673 2.84375H33.7131C33.4662 2.84375 33.2774 2.9446 33.1365 3.15019C32.5507 4.06563 31.9508 4.90866 31.3534 5.65472C30.7561 6.40077 30.0979 7.09252 29.3945 7.70928L30.2246 8.74755C30.9707 8.13855 31.6974 7.3912 32.3826 6.5249C33.0524 5.67928 33.611 4.90607 34.0428 4.22596L34.079 4.16907H34.582L34.6182 4.22467C35.9888 6.29604 37.252 7.81789 38.3718 8.74884L39.2174 7.71057C38.536 7.14553 37.8985 6.48352 37.3232 5.74393L37.3257 5.74264Z" fill="white"/>
<path d="M85.8362 6.12891H75.5479V7.53439H85.8362V6.12891Z" fill="white"/>
<path d="M73.1045 3.23438L73.1006 17.0797H74.5061V4.62434H85.8366V3.23438H73.1045Z" fill="white"/>
<path d="M75.5479 10.2819H76.2668V17.0791L76.6844 17.0804L76.6883 17.0882H78.9976L82.7304 14.4143L84.7061 17.0882L85.8362 16.2529L83.8734 13.5958L85.8362 12.1916L85.0177 11.0486L83.0382 12.4657L81.8952 13.2842L78.545 15.684H77.6567V10.2819H85.8362V8.89062H75.5479V10.2819Z" fill="white"/>
<path d="M2.98028 1.60352H2.16699V10.5187H2.98028V1.60352Z" fill="white"/>
<path d="M10.8634 19.9994H14.8213V11.8833H19.9816V11.0881H10.8634V19.9994Z" fill="white"/>
<path d="M17.3869 2.83594H4.68063L4.67804 13.3273H0V17.1817H8.66822V6.67225H17.3869V2.83594Z" fill="white"/>
<path d="M19.2158 0H18.4129V0.801655H17.6112H16.8096V1.60331H17.6112H18.4129V2.40497V3.20662H19.2158V2.40497V1.60331H20.0175V0.801655H19.2158V0Z" fill="white"/>
</g>
<defs>
<clipPath id="clip0_296_7035">
<rect width="85.8366" height="20" fill="white"/>
</clipPath>
</defs>
</svg>
