<svg width="55" height="22" viewBox="0 0 55 22" fill="none" xmlns="http://www.w3.org/2000/svg">
<g clip-path="url(#clip0_296_7303)">
<path d="M10.9981 0.046875C17.0723 0.046875 21.9963 4.97175 21.9963 11.0469C21.9963 16.6376 17.8262 21.2541 12.4273 21.9548C12.3605 21.8186 12.2983 21.6796 12.2405 21.5383C12.2394 21.5357 12.2383 21.533 12.2372 21.5304C11.941 20.8044 11.7586 20.0203 11.6527 19.2712H11.6527C11.4692 17.9739 11.5147 16.7819 11.5939 16.18C11.7233 15.1963 12.0432 14.5125 12.7926 14.1932C13.0011 14.1101 13.2223 14.0516 13.4527 14.0213L14.1143 13.9342L13.4527 13.8472C12.2186 13.6848 11.2475 12.7136 11.0852 11.4793L10.9981 10.8175L10.9111 11.4793C10.8743 11.7589 10.7961 12.0251 10.6826 12.2714C10.6748 12.2883 10.6668 12.3052 10.6586 12.322C10.6545 12.3304 10.6504 12.3388 10.6463 12.3471C10.6379 12.3638 10.6295 12.3805 10.6208 12.397C10.4089 12.8012 10.0998 13.1457 9.72396 13.3997C9.70863 13.4101 9.69318 13.4203 9.67762 13.4304C9.60759 13.4757 9.53537 13.5179 9.46114 13.5568C9.44464 13.5654 9.42805 13.5739 9.41135 13.5823C9.40299 13.5864 9.39463 13.5905 9.38622 13.5946C9.36945 13.6028 9.35255 13.6108 9.33557 13.6186C9.22519 13.6695 9.11081 13.7133 8.993 13.7494C8.97489 13.755 8.95669 13.7604 8.93841 13.7656C8.81043 13.802 8.6786 13.8294 8.54363 13.8472L7.882 13.9342L8.54363 14.0213C8.77401 14.0516 8.99522 14.1101 9.20371 14.1932C9.95306 14.5125 10.273 15.1963 10.4024 16.18C10.4816 16.7819 10.5271 17.9739 10.3436 19.2712H10.3436C10.2377 20.0203 10.0553 20.8044 9.75902 21.5304C9.75794 21.533 9.75686 21.5357 9.75578 21.5383C9.69791 21.6796 9.63579 21.8186 9.56899 21.9548C4.17009 21.2541 4.45386e-06 16.6376 0 11.0469C0 4.97175 4.92403 0.046875 10.9981 0.046875ZM10.9981 2.79689C6.44257 2.79689 2.74954 6.49054 2.74954 11.0469C2.74954 14.1239 4.43381 16.8074 6.93054 18.2256C6.30689 17.0598 5.86568 15.7421 5.86568 14.3469C5.86568 9.58816 10.9978 5.73044 10.9981 5.7302C10.9981 5.7302 16.1306 9.58801 16.1306 14.3469C16.1306 15.7421 15.6894 17.0598 15.0657 18.2256C17.5625 16.8074 19.2468 14.1239 19.2468 11.0469C19.2468 6.49054 15.5537 2.79689 10.9981 2.79689Z" fill="white"/>
<path d="M48.5576 8.96234V2.9737H50.4374V3.94859C50.6694 3.60042 50.9442 3.33736 51.2613 3.1594C51.5861 2.9737 51.9421 2.88086 52.3289 2.88086C52.7156 2.88086 53.056 2.96983 53.3501 3.14779C53.6518 3.31802 53.8877 3.55787 54.0578 3.86736C54.2281 4.16911 54.3131 4.52116 54.3131 4.92349V8.96234H52.4334V5.46896C52.4334 5.12853 52.3404 4.85772 52.1547 4.65655C51.9769 4.45538 51.737 4.3548 51.4353 4.3548C51.2342 4.3548 51.0485 4.39736 50.8784 4.48246C50.716 4.55984 50.569 4.68363 50.4374 4.85386V8.96234H48.5576Z" fill="white"/>
<path d="M44.5791 9.07841C43.9913 9.07841 43.4575 8.943 42.9778 8.67219C42.506 8.39366 42.1269 8.02226 41.8406 7.55802C41.5622 7.08605 41.4229 6.55992 41.4229 5.97963C41.4229 5.39159 41.5545 4.86546 41.8175 4.40122C42.0805 3.93699 42.4402 3.56948 42.8966 3.29866C43.353 3.02012 43.8676 2.88086 44.44 2.88086C45.0202 2.88086 45.5307 3.01625 45.9717 3.28705C46.4125 3.55787 46.7568 3.93312 47.0044 4.41283C47.2597 4.8848 47.3873 5.43027 47.3873 6.04926V6.45547H43.268C43.3297 6.67986 43.4265 6.87714 43.558 7.04737C43.6896 7.21759 43.852 7.34911 44.0454 7.44197C44.2387 7.53481 44.4477 7.58123 44.6721 7.58123C44.9195 7.58123 45.1439 7.53868 45.345 7.45358C45.5539 7.36846 45.724 7.24467 45.8556 7.08218L47.0972 8.11512C46.7104 8.45555 46.3198 8.70314 45.9253 8.85789C45.5307 9.00489 45.0819 9.07841 44.5791 9.07841ZM43.268 5.38772H45.6467C45.5926 5.17108 45.5076 4.9854 45.3915 4.83065C45.2753 4.67589 45.1362 4.55598 44.9738 4.47085C44.8112 4.38575 44.6295 4.3432 44.4283 4.3432C44.2349 4.3432 44.0571 4.38575 43.8945 4.47085C43.7398 4.54824 43.6084 4.66429 43.5 4.81904C43.3994 4.97377 43.322 5.16334 43.268 5.38772Z" fill="white"/>
<path d="M34.2217 11.3885V2.97427H36.0784V3.8099C36.2794 3.5391 36.5348 3.32632 36.8442 3.17157C37.1613 3.01682 37.4978 2.93945 37.8536 2.93945C38.3487 2.93945 38.7936 3.07873 39.1881 3.35727C39.5904 3.62807 39.9075 3.99171 40.1396 4.44821C40.3794 4.90471 40.4994 5.41537 40.4994 5.9802C40.4994 6.53728 40.3755 7.04407 40.128 7.50057C39.8804 7.95707 39.5439 8.32071 39.1184 8.59153C38.7007 8.86233 38.2327 8.99772 37.7143 8.99772C37.3895 8.99772 37.0878 8.9397 36.8094 8.82365C36.5386 8.69984 36.3025 8.52575 36.1014 8.30137V11.3885H34.2217ZM37.2271 7.45415C37.5055 7.45415 37.7492 7.39225 37.9581 7.26845C38.1748 7.13691 38.3449 6.95896 38.4686 6.73458C38.5925 6.5102 38.6543 6.25487 38.6543 5.9686C38.6543 5.6823 38.5925 5.43084 38.4686 5.2142C38.3449 4.98984 38.1748 4.81574 37.9581 4.69194C37.7415 4.56041 37.4978 4.49463 37.2271 4.49463C36.995 4.49463 36.7861 4.5372 36.6004 4.62231C36.4226 4.69967 36.2562 4.81961 36.1014 4.9821V6.97831C36.2485 7.1253 36.4186 7.24137 36.6121 7.32647C36.8055 7.4116 37.0104 7.45415 37.2271 7.45415Z" fill="white"/>
<path d="M28.7631 9.09039C28.1752 9.09039 27.6259 8.98593 27.1154 8.77702C26.6049 8.56037 26.1561 8.26249 25.7694 7.88338C25.3903 7.49651 25.0924 7.05161 24.8758 6.54869C24.667 6.03804 24.5625 5.4887 24.5625 4.90066C24.5625 4.31263 24.667 3.76716 24.8758 3.26422C25.0924 2.75357 25.3903 2.30867 25.7694 1.92956C26.1561 1.54269 26.6049 1.24481 27.1154 1.0359C27.6259 0.819258 28.1752 0.710938 28.7631 0.710938C29.3511 0.710938 29.9003 0.819258 30.4108 1.0359C30.9214 1.24481 31.3661 1.54269 31.7452 1.92956C32.1322 2.30867 32.4298 2.75357 32.6388 3.26422C32.8555 3.76716 32.9636 4.31263 32.9636 4.90066C32.9636 5.4887 32.8555 6.03804 32.6388 6.54869C32.4298 7.05161 32.1322 7.49651 31.7452 7.88338C31.3661 8.26249 30.9214 8.56037 30.4108 8.77702C29.9003 8.98593 29.3511 9.09039 28.7631 9.09039ZM28.7631 7.31468C29.0648 7.31468 29.3472 7.25665 29.6101 7.1406C29.8731 7.0168 30.1013 6.84657 30.2947 6.62993C30.4881 6.40557 30.639 6.15022 30.7473 5.86394C30.8556 5.56993 30.9097 5.24884 30.9097 4.90066C30.9097 4.55249 30.8556 4.23525 30.7473 3.94897C30.639 3.65496 30.4881 3.39963 30.2947 3.18299C30.1013 2.95861 29.8731 2.78838 29.6101 2.67233C29.3472 2.54853 29.0648 2.48663 28.7631 2.48663C28.4613 2.48663 28.1791 2.54853 27.916 2.67233C27.653 2.78838 27.4248 2.95861 27.2314 3.18299C27.038 3.39963 26.8871 3.65496 26.7788 3.94897C26.6705 4.23525 26.6164 4.55249 26.6164 4.90066C26.6164 5.24884 26.6705 5.56993 26.7788 5.86394C26.8871 6.15022 27.038 6.40557 27.2314 6.62993C27.4248 6.84657 27.653 7.0168 27.916 7.1406C28.1791 7.25665 28.4613 7.31468 28.7631 7.31468Z" fill="white"/>
<path d="M50.3845 21.1896C49.8698 21.1896 49.4002 21.0468 48.9755 20.7608C48.5508 20.4668 48.2117 20.0786 47.9585 19.5967C47.7135 19.1064 47.5908 18.5672 47.5908 17.9789C47.5908 17.3825 47.7215 16.8474 47.9829 16.3735C48.2443 15.8915 48.5957 15.5075 49.0367 15.2216C49.486 14.9356 49.9842 14.7927 50.5315 14.7927C50.8664 14.7927 51.1769 14.858 51.4627 14.9887C51.7569 15.1195 52.0101 15.3074 52.2225 15.5525V12.4275L54.2075 12.1211V21.153H52.2469V20.3318C52.0427 20.5933 51.7732 20.8017 51.4383 20.9568C51.1115 21.1121 50.7603 21.1896 50.3845 21.1896ZM51.0463 19.5475C51.2831 19.5475 51.4996 19.5066 51.6955 19.4251C51.8916 19.3352 52.0672 19.2085 52.2225 19.0452V16.9128C52.0672 16.7494 51.8876 16.6268 51.6834 16.5451C51.4873 16.4634 51.2748 16.4226 51.0463 16.4226C50.7603 16.4226 50.5029 16.492 50.2742 16.6309C50.0456 16.7616 49.8658 16.9454 49.7351 17.1824C49.6044 17.4193 49.5391 17.6889 49.5391 17.9912C49.5391 18.2853 49.6044 18.5509 49.7351 18.7878C49.8658 19.0247 50.0456 19.2126 50.2742 19.3515C50.5029 19.4823 50.7603 19.5475 51.0463 19.5475Z" fill="white"/>
<path d="M43.6122 21.2763C42.9914 21.2763 42.4279 21.1335 41.9214 20.8475C41.423 20.5535 41.0229 20.1611 40.7206 19.6711C40.4264 19.1726 40.2794 18.6171 40.2794 18.0044C40.2794 17.3834 40.4184 16.8279 40.6961 16.3377C40.9738 15.8475 41.3536 15.4594 41.8357 15.1735C42.3176 14.8794 42.8607 14.7323 43.4652 14.7323C44.0778 14.7323 44.6169 14.8753 45.0827 15.1612C45.5483 15.4472 45.9118 15.8434 46.1731 16.3499C46.4426 16.8483 46.5775 17.4243 46.5775 18.0779V18.5067H42.2277C42.293 18.7438 42.3951 18.952 42.534 19.1319C42.6728 19.3116 42.8444 19.4503 43.0486 19.5484C43.2528 19.6465 43.4735 19.6955 43.7103 19.6955C43.9717 19.6955 44.2085 19.6505 44.421 19.5607C44.6415 19.4709 44.8213 19.3402 44.96 19.1686L46.2712 20.2592C45.8626 20.6187 45.4502 20.8802 45.0336 21.0435C44.6169 21.1988 44.1433 21.2763 43.6122 21.2763ZM42.2277 17.3794H44.7395C44.6823 17.1506 44.5925 16.9545 44.4699 16.7911C44.3475 16.6277 44.2004 16.5011 44.0289 16.4112C43.8573 16.3213 43.6654 16.2764 43.4529 16.2764C43.2487 16.2764 43.0609 16.3213 42.8893 16.4112C42.726 16.4929 42.587 16.6155 42.4728 16.7789C42.3665 16.9423 42.2849 17.1424 42.2277 17.3794Z" fill="white"/>
<path d="M36.3012 21.2763C35.6805 21.2763 35.1169 21.1335 34.6104 20.8475C34.112 20.5535 33.7119 20.1611 33.4096 19.6711C33.1156 19.1726 32.9686 18.6171 32.9686 18.0044C32.9686 17.3834 33.1073 16.8279 33.385 16.3377C33.6627 15.8475 34.0427 15.4594 34.5246 15.1735C35.0065 14.8794 35.5498 14.7323 36.1542 14.7323C36.767 14.7323 37.3061 14.8753 37.7717 15.1612C38.2372 15.4472 38.6007 15.8434 38.8621 16.3499C39.1318 16.8483 39.2665 17.4243 39.2665 18.0779V18.5067H34.9167C34.982 18.7438 35.0841 18.952 35.223 19.1319C35.362 19.3116 35.5334 19.4503 35.7377 19.5484C35.9419 19.6465 36.1624 19.6955 36.3993 19.6955C36.6607 19.6955 36.8977 19.6505 37.1099 19.5607C37.3304 19.4709 37.5103 19.3402 37.649 19.1686L38.9602 20.2592C38.5518 20.6187 38.1392 20.8802 37.7225 21.0435C37.3061 21.1988 36.8322 21.2763 36.3012 21.2763ZM34.9167 17.3794H37.4285C37.3713 17.1506 37.2815 16.9545 37.1591 16.7911C37.0364 16.6277 36.8894 16.5011 36.7178 16.4112C36.5463 16.3213 36.3544 16.2764 36.1419 16.2764C35.9377 16.2764 35.7498 16.3213 35.5784 16.4112C35.4149 16.4929 35.2762 16.6155 35.1618 16.7789C35.0557 16.9423 34.9739 17.1424 34.9167 17.3794Z" fill="white"/>
<path d="M28.2751 21.2894C27.5971 21.2894 26.9518 21.1792 26.3393 20.9585C25.7265 20.7379 25.1342 20.4153 24.5625 19.9905L25.6407 18.434C26.237 18.8507 26.7434 19.1448 27.1601 19.3164C27.5767 19.488 27.9974 19.5738 28.4221 19.5738C28.7244 19.5738 28.9817 19.5369 29.194 19.4634C29.4147 19.3818 29.5821 19.2755 29.6964 19.1448C29.8189 19.006 29.8803 18.8467 29.8803 18.6668C29.8803 18.4136 29.7945 18.2216 29.6229 18.0909C29.4596 17.952 29.1696 17.8458 28.753 17.7723L26.9273 17.4537C26.2492 17.3393 25.7265 17.0779 25.3589 16.6693C24.9995 16.2608 24.8199 15.7543 24.8199 15.1497C24.8199 14.5942 24.9546 14.1162 25.2242 13.7159C25.4937 13.3074 25.8817 12.9929 26.3882 12.7723C26.9027 12.5517 27.5155 12.4414 28.2262 12.4414C28.8877 12.4414 29.5289 12.5435 30.1497 12.7478C30.7706 12.9439 31.3016 13.2175 31.7426 13.5689L30.6767 15.1007C30.2601 14.7821 29.8434 14.5452 29.4268 14.3899C29.0103 14.2347 28.5733 14.1571 28.1158 14.1571C27.8381 14.1571 27.6013 14.1939 27.4052 14.2674C27.2092 14.3327 27.058 14.4267 26.9518 14.5492C26.8538 14.6718 26.8048 14.8107 26.8048 14.9659C26.8048 15.1865 26.8783 15.3581 27.0254 15.4806C27.1806 15.595 27.4297 15.6849 27.7727 15.7502L29.4882 16.0443C30.2887 16.1751 30.8972 16.4488 31.3139 16.8654C31.7304 17.2821 31.9388 17.8172 31.9388 18.4708C31.9388 19.0263 31.7875 19.5166 31.4853 19.9414C31.1913 20.3663 30.7706 20.6971 30.2232 20.9341C29.6761 21.171 29.0266 21.2894 28.2751 21.2894Z" fill="white"/>
</g>
<defs>
<clipPath id="clip0_296_7303">
<rect width="54.3125" height="22" fill="white"/>
</clipPath>
</defs>
</svg>
