<svg width="100" height="10" viewBox="0 0 100 10" fill="none" xmlns="http://www.w3.org/2000/svg">
<g clip-path="url(#clip0_296_7274)">
<mask id="mask0_296_7274" style="mask-type:luminance" maskUnits="userSpaceOnUse" x="0" y="0" width="11" height="10">
<path d="M10.1641 0H0.164127V10H10.1641V0Z" fill="white"/>
</mask>
<g mask="url(#mask0_296_7274)">
<path d="M10.1641 0H0.164127V10H10.1641V0ZM3.59403 6.22297H2.63928V1.71315H3.59439V6.22297H3.59403ZM5.64116 8.27664H4.68639V1.71315H5.64116V8.27664ZM7.68897 6.22297H6.73387V1.71315H7.68897V6.22297Z" fill="white"/>
</g>
</g>
<g clip-path="url(#clip1_296_7274)">
<mask id="mask1_296_7274" style="mask-type:luminance" maskUnits="userSpaceOnUse" x="21" y="1" width="79" height="7">
<path d="M99.657 1.90039H21.9151V7.85871H99.657V1.90039Z" fill="white"/>
</mask>
<g mask="url(#mask1_296_7274)">
<path d="M39.9646 7.7699H38.9006L38.2253 6.45823H34.2744L33.5979 7.7699H32.5351L35.6385 1.90436H36.862L39.9646 7.7699ZM37.7535 5.58236L36.259 2.74023L34.7459 5.58236H37.7535ZM51.9028 7.7699H50.6932L46.2146 2.95955V7.7699H45.2428V1.90436H46.4495L50.931 6.71671V1.90465H51.9028V7.7699ZM63.7765 2.77853V1.90465H57.1978V2.77853H60.0016V3.65923V4.53425V7.7699H60.9736V4.53425V3.65923V2.77853H63.7765ZM75.2129 2.77938H70.0432V4.39721H73.4784V5.2731H70.0432V6.89687H75.2177V7.77074H69.0713V1.90436H75.2129V2.77938ZM99.6571 7.7699H98.5923L97.9168 6.45823H93.9648L93.2897 7.7699H92.2255L95.3294 1.90436H96.5526L99.6571 7.7699ZM97.4461 5.58236L95.9506 2.74023L94.4374 5.58236H97.4461ZM26.6999 1.90039H21.9151V7.76961H22.8869V5.52958H26.7002C27.7023 5.52958 28.5147 4.71329 28.5147 3.71087C28.5147 2.70902 27.7023 1.90039 26.6999 1.90039ZM26.6999 4.65257H22.8869V2.77712H26.7002C26.8229 2.77693 26.9445 2.80095 27.0579 2.8478C27.1713 2.89465 27.2744 2.9634 27.3612 3.05014C27.448 3.13687 27.5169 3.23987 27.5638 3.35325C27.6108 3.46663 27.6349 3.58815 27.6348 3.71087C27.6357 4.22783 27.2169 4.65257 26.6999 4.65257ZM87.1677 7.76961L85.6145 5.49694C86.4658 5.34742 87.1158 4.60547 87.1158 3.71087C87.1158 2.70874 86.3036 1.90039 85.3013 1.90039H80.5165V7.76961H81.4881V5.52958H84.451L86.0371 7.76961H87.1677ZM81.4874 2.7774H85.3003C85.4229 2.77725 85.5445 2.80128 85.6577 2.84813C85.7713 2.89497 85.8742 2.96371 85.961 3.0504C86.0481 3.1371 86.1168 3.24005 86.1639 3.35338C86.2106 3.46671 86.2348 3.58819 86.2348 3.71087C86.2348 4.22783 85.8161 4.65257 85.3003 4.65257H81.4874V2.7774Z" fill="white"/>
</g>
</g>
<defs>
<clipPath id="clip0_296_7274">
<rect width="10.3226" height="10" fill="white"/>
</clipPath>
<clipPath id="clip1_296_7274">
<rect width="78.0645" height="6.12903" fill="white" transform="translate(21.751 1.90039)"/>
</clipPath>
</defs>
</svg>
