<svg width="110" height="20" viewBox="0 0 110 20" fill="none" xmlns="http://www.w3.org/2000/svg">
<path d="M3.68177 15.6251C2.24651 15.6251 1.12325 15.2501 0 14.4376V14.2501L0.811238 12.5626C1.37286 13.0626 2.30891 13.6251 3.18255 13.6251C3.86898 13.6251 4.55541 13.3751 4.55541 12.5626C4.55541 11.8751 3.93138 11.6251 3.18255 11.3126C2.93294 11.1876 2.62092 11.0626 2.30891 10.9376C1.06085 10.3126 0.187209 9.56257 0.187209 8.00006C0.187209 5.18753 2.87053 4.87503 4.05619 4.87503C5.30425 4.87503 6.55231 5.18753 7.36354 5.68754V5.93754L6.55231 7.62505C5.92828 7.18755 5.17944 6.93755 4.43061 6.93755C3.43216 6.93755 3.24495 7.43755 3.24495 7.87506C3.24495 8.56256 3.86898 8.81256 4.74262 9.12507C4.92983 9.18757 5.11704 9.25007 5.30425 9.37507C6.80192 10.0001 7.67556 10.6876 7.67556 12.3751C7.61316 15.1876 5.17944 15.6251 3.68177 15.6251ZM13.2294 15.6251C9.04842 15.6251 8.42439 12.2501 8.42439 10.2501C8.42439 7.87506 9.23563 5.00003 13.0422 5.00003C16.6616 5.00003 17.4104 7.62505 17.4104 9.93757C17.4104 10.2501 17.348 10.8126 17.2232 11.1876C16.724 11.1876 14.9143 11.1876 13.479 11.1251H11.4821V11.2501C11.4821 11.8126 11.6693 13.6876 13.6038 13.6876C14.3527 13.6876 15.0391 13.3751 15.6631 12.6876L16.8488 14.1251V14.3126C15.7255 15.1251 14.6023 15.6251 13.2294 15.6251ZM13.0422 7.06255C12.0438 7.06255 11.5445 7.87506 11.4821 9.50007V9.62507H14.4775V9.50007C14.5399 7.87506 14.0407 7.06255 13.0422 7.06255ZM23.0891 20.0002C21.7162 20.0002 20.3434 19.6252 19.2201 19.0002L19.9689 17.0626H20.0937C20.7178 17.4376 21.5914 17.9376 22.6523 17.9376C23.8379 17.9376 24.5243 17.3126 24.5243 16.2501C24.5243 16.1251 24.5867 15.1876 24.6492 14.5626V14.5001L24.3995 14.3751L24.3371 14.4376C23.6507 15.0626 22.9643 15.6251 21.7786 15.6251C19.5321 15.6251 18.4089 13.9376 18.4089 10.3126C18.4089 7.75005 19.2825 5.06253 21.7786 5.06253C22.7147 5.06253 23.6507 5.50003 24.3995 6.31254L24.4619 6.37504L24.6492 6.31254L24.8364 5.50003L25.0236 5.31253L27.5821 5.37503C27.5821 5.75004 27.5197 6.68755 27.5197 7.18755V15.9376C27.5821 19.6877 24.1499 20.0002 23.0891 20.0002ZM23.0891 7.25005C21.5914 7.25005 21.5914 9.50007 21.5914 10.2501C21.5914 11.2501 21.5914 13.5001 22.8395 13.5001C23.3387 13.5001 23.9627 13.1251 24.3995 12.5001V12.4376L24.4619 7.93756V7.87506C24.0875 7.56255 23.5883 7.25005 23.0891 7.25005ZM40.0627 15.3126C40.0627 14.8751 40.1875 8.93757 40.1875 8.87507C40.1875 7.87506 40.0627 7.25005 39.2514 7.25005C38.8146 7.25005 38.253 7.50005 37.8162 7.87506L37.7538 7.81256V15.2501H34.696C34.696 14.8126 34.7584 8.87507 34.7584 8.81256C34.7584 7.81256 34.6336 7.18755 33.8224 7.18755C33.448 7.18755 32.8239 7.43755 32.3871 7.81256L32.3247 7.87506L32.3871 15.3126H29.267V7.81256C29.267 7.12505 29.2046 5.81254 29.2046 5.25003L31.8879 5.18753L32.0751 5.31253L32.1999 6.18754L32.3871 6.25004L32.4495 6.18754C33.3232 5.43753 34.5712 4.93753 35.5073 4.93753C36.3809 4.93753 37.0673 5.37503 37.4417 6.25004L37.5042 6.43754L37.629 6.31254C38.565 5.50003 39.8131 5.00003 40.8739 5.00003C42.3716 5.00003 43.2452 6.06254 43.2452 8.00006C43.2452 8.12506 43.1828 14.8751 43.1828 15.3126H40.0627ZM49.4231 15.6251C45.2421 15.6251 44.6181 12.2501 44.6181 10.2501C44.6181 7.87506 45.4293 5.00003 49.2359 5.00003C52.8553 5.00003 53.6041 7.62505 53.6041 9.93757C53.6041 10.2501 53.5417 10.8126 53.4169 11.1876C52.9177 11.1876 51.108 11.1876 49.6727 11.1251H47.6758V11.2501C47.6758 11.8126 47.863 13.6876 49.7975 13.6876C50.5464 13.6876 51.2328 13.3751 51.8568 12.6876L53.0425 14.1251V14.3126C51.9192 15.1251 50.796 15.6251 49.4231 15.6251ZM49.2359 7.06255C48.2375 7.06255 47.7382 7.87506 47.6758 9.50007V9.62507H50.6712V9.50007C50.6712 7.87506 50.2343 7.06255 49.2359 7.06255ZM60.406 15.3126C60.406 14.8751 60.5308 8.93757 60.5308 8.87507C60.5308 7.81256 60.3436 7.25005 59.5324 7.25005C59.0956 7.25005 58.5339 7.50005 57.9723 7.87506L57.9099 7.93756L57.9723 15.3751H54.8522V7.81256C54.8522 7.12505 54.7898 5.87504 54.7898 5.25003L57.4731 5.18753L57.6603 5.31253L57.7851 6.18754L57.9723 6.25004L58.0347 6.18754C58.9708 5.43753 60.2812 4.93753 61.2797 4.93753C62.8397 4.93753 63.651 6.00004 63.651 7.93756C63.651 8.06256 63.5886 14.8126 63.5886 15.2501H60.406V15.3126ZM68.5808 15.3126C66.0223 15.3126 65.7727 13.7501 65.7727 12.1876C65.7727 11.7501 65.7727 9.50007 65.8351 7.56255V7.43755H64.7118L64.7742 5.25003H65.8975V2.37501L66.0223 2.25H68.9552C68.9552 2.62501 68.9552 3.75002 68.8928 5.12503V5.25003H70.5777L70.5153 7.43755H68.8304V7.56255C68.8928 9.43757 68.8928 11.4376 68.8928 11.8126C68.8928 12.8751 68.8928 13.2501 69.8913 13.2501H70.4529V15.1876L70.3281 15.3126H68.5808Z" fill="white"/>
<path d="M72.8869 15.3126C72.8869 14.4376 72.8869 9.43759 72.9493 7.56257V7.43757H71.7637L71.8261 5.25005H72.9493V5.12505C72.9493 5.06255 72.8869 3.37504 72.8869 3.37504C72.8869 0.625011 74.6342 4.78443e-06 76.0695 4.78443e-06C76.9431 4.78443e-06 77.6919 0.125006 78.3784 0.437509V0.687511L77.7544 2.43753C77.4423 2.25003 77.1303 2.18752 76.8807 2.18752C76.1943 2.18752 75.9447 2.68753 75.9447 3.75004V5.25005H77.7544L77.6919 7.43757H75.9447V7.56257C76.0071 9.37509 76.0071 14.4376 76.0071 15.3126H72.8869ZM80.8745 15.5626C78.6904 15.5626 78.4408 13.4376 78.4408 12.5626C78.4408 9.31259 80.9993 9.12509 83.745 8.93759H83.8698L83.9322 8.81259V8.25008C83.9322 7.50007 83.4954 7.06257 82.5594 7.06257C81.3737 7.06257 80.3129 7.37507 79.564 7.68758L78.8776 5.87506V5.75006C80.3753 5.18755 81.9353 4.93755 83.5578 4.93755C85.8667 4.93755 87.0524 6.00006 87.0524 8.06258V13.0001C87.0524 13.8126 87.1148 14.8126 87.1148 15.3126H84.5563L84.3691 15.1251L84.1194 14.3126L83.9322 14.2501L83.8698 14.3126C82.9962 15.1876 82.0602 15.5626 80.8745 15.5626ZM83.6826 10.4376C82.1226 10.5001 81.3737 10.5001 81.3737 12.1251C81.3737 13.3751 81.8729 13.6251 82.3098 13.6251C82.809 13.6251 83.433 13.3126 83.8698 12.8751L83.9322 12.8126V10.6251L83.8698 10.5626L83.745 10.5001C83.745 10.4376 83.6826 10.4376 83.6826 10.4376ZM91.171 15.5626C89.4861 15.5626 88.6749 14.5626 88.6749 12.5626C88.6749 12.4376 88.7373 5.68756 88.7373 5.18755H91.7326L91.8574 5.31255C91.8574 5.62506 91.795 11.6251 91.795 11.7501C91.795 12.8126 92.1694 13.3751 92.7935 13.3751C93.3551 13.3751 94.0415 13.0626 94.4783 12.6251L94.5407 12.5626L94.4783 5.12505H97.4737L97.5985 5.25005V12.8126C97.5985 13.6251 97.6609 14.6251 97.6609 15.1251H95.1024L94.9152 14.9376L94.6655 14.0626L94.4159 14.0001L94.3535 14.0626C93.4799 15.1251 92.4814 15.5626 91.171 15.5626ZM99.4082 15.3126C99.3458 14.8126 99.3458 13.6876 99.3458 13.0001V2.75003C99.3458 2.06252 99.3458 1.00001 99.2834 0.437509L102.341 0.375008L102.466 0.500009V13.0001C102.466 13.7501 102.528 14.8126 102.528 15.3126H99.4082ZM107.458 15.3126C104.9 15.3126 104.65 13.7501 104.65 12.1876C104.65 11.7501 104.65 9.50009 104.712 7.56257V7.43757H103.589L103.652 5.25005H104.775V2.37503L104.9 2.25003H107.833C107.833 2.62503 107.833 3.75004 107.77 5.12505V5.25005H109.455L109.393 7.43757H107.708V7.56257C107.77 9.43759 107.77 11.4376 107.77 11.8126C107.77 12.8751 107.77 13.2501 108.769 13.2501H109.33V15.1876L109.205 15.3126H107.458Z" fill="white"/>
</svg>
