<svg width="60" height="20" viewBox="0 0 60 20" fill="none" xmlns="http://www.w3.org/2000/svg">
<path d="M45.2049 9.60742C45.5822 9.60742 46.3982 9.74476 46.3982 10.2288V10.6101H45.9862V10.3661C45.9862 10.0914 45.5115 9.98876 45.2235 9.98876C44.5542 9.98876 44.0608 10.4808 44.0608 11.1901C44.0608 11.9314 44.5662 12.4581 45.2502 12.4581C45.4715 12.4581 46.0302 12.3781 46.0302 12.0901V11.8461H46.4422V12.2274C46.4422 12.6888 45.6569 12.8434 45.2222 12.8434C44.2822 12.8434 43.6035 12.1208 43.6035 11.2074C43.6035 10.2901 44.3009 9.60742 45.2049 9.60742Z" fill="white"/>
<path d="M46.9209 12.4474H47.3116V10.0034H46.9209V9.66211H48.1489V10.0034H47.7542V11.0461H49.3769V10.0034H48.9822V9.66211H50.2102V10.0034H49.8196V12.4474H50.2102V12.7928H48.9822V12.4474H49.3769V11.4101H47.7542V12.4474H48.1489V12.7928H46.9209V12.4474Z" fill="white"/>
<path d="M50.6826 12.4474H51.0733V10.0034H50.6826V9.66211H51.9106V10.0034H51.516V12.4474H51.9106V12.7928H50.6826V12.4474Z" fill="white"/>
<path d="M52.376 12.4474H52.7666V10.0034H52.376V9.66211H53.2053L54.744 11.9061C54.7973 11.9954 54.8506 12.1328 54.8506 12.1328H54.864C54.864 12.1328 54.8413 11.9781 54.8413 11.8794V10.0034H54.4426V9.66211H55.68V10.0034H55.2853V12.7928H54.8506L53.312 10.5488C53.2546 10.4594 53.2053 10.3221 53.2053 10.3221H53.192C53.192 10.3221 53.2146 10.4768 53.2093 10.5754V12.4474H53.6133V12.7928H52.376V12.4474Z" fill="white"/>
<path d="M55.8611 12.4474H56.1624L57.1597 9.66211H57.6611L58.6584 12.4474H58.9597V12.7928H57.8731V12.4474H58.2051L57.9611 11.7514H56.8517L56.6077 12.4474H56.9451V12.7928H55.8584V12.4474H55.8611ZM57.8531 11.3968L57.4717 10.3101C57.4277 10.1821 57.4184 10.0701 57.4184 10.0701H57.4051C57.4051 10.0701 57.3917 10.1808 57.3517 10.3101L56.9664 11.3968H57.8531Z" fill="white"/>
<path d="M13.1729 15.5781H13.6115L14.2915 17.3115L14.9689 15.5781H15.3982L14.4595 17.8501H14.1115L13.1729 15.5781Z" fill="white"/>
<path d="M16.1211 15.5781H17.7944V15.9328H16.5171V16.5195H17.6491V16.8741H16.5171V17.4795H17.8104V17.8341H16.1211V15.5781Z" fill="white"/>
<path d="M18.6162 15.5781H18.9842L20.1935 17.1381V15.5781H20.5842V17.8341H20.2522L19.0069 16.2288V17.8341H18.6162V15.5781Z" fill="white"/>
<path d="M22.0547 15.9441H21.3387V15.576H23.1693V15.9441H22.4533V17.8334H22.0547V15.9441Z" fill="white"/>
<path d="M23.8896 16.8768V15.5781H24.2856V16.8621C24.2856 17.2808 24.5016 17.5075 24.8563 17.5075C25.207 17.5075 25.4243 17.2941 25.4243 16.8781V15.5795H25.8203V16.8595C25.8203 17.5328 25.4403 17.8728 24.8496 17.8728C24.263 17.8701 23.8896 17.5315 23.8896 16.8768Z" fill="white"/>
<path d="M26.6996 15.5762H27.7062C27.9902 15.5762 28.2129 15.6602 28.3569 15.8015C28.4769 15.9242 28.5436 16.0922 28.5436 16.2882V16.2948C28.5436 16.6655 28.3209 16.8882 28.0049 16.9788L28.6142 17.8335H28.1462L27.5916 17.0468H27.0956V17.8335H26.6982V15.5762H26.6996ZM27.6769 16.6962C27.9609 16.6962 28.1409 16.5482 28.1409 16.3188V16.3122C28.1409 16.0695 27.9676 15.9375 27.6729 15.9375H27.0956V16.6948H27.6769V16.6962Z" fill="white"/>
<path d="M29.3662 15.5781H31.0409V15.9328H29.7635V16.5195H30.8955V16.8741H29.7635V17.4795H31.0569V17.8341H29.3662V15.5781Z" fill="white"/>
<path d="M31.7119 17.5063L31.9506 17.2223C32.1666 17.4089 32.3826 17.5156 32.6639 17.5156C32.9092 17.5156 33.0639 17.4036 33.0639 17.2316V17.2249C33.0639 17.0636 32.9732 16.9769 32.5546 16.8796C32.0746 16.7636 31.8039 16.6223 31.8039 16.2063V16.1996C31.8039 15.8129 32.1266 15.5449 32.5746 15.5449C32.9039 15.5449 33.1652 15.6449 33.3932 15.8289L33.1799 16.1289C32.9772 15.9783 32.7732 15.8969 32.5666 15.8969C32.3346 15.8969 32.1986 16.0169 32.1986 16.1649V16.1716C32.1986 16.3463 32.3012 16.4236 32.7346 16.5263C33.2119 16.6423 33.4599 16.8129 33.4599 17.1863V17.1929C33.4599 17.6156 33.1279 17.8676 32.6546 17.8676C32.3079 17.8676 31.9826 17.7476 31.7119 17.5063Z" fill="white"/>
<path d="M9.8944 14.2421C8.13573 14.2421 6.8584 12.9501 6.8584 11.1715C6.8584 9.04612 8.34241 8.07812 9.72241 8.07812C11.3904 8.07812 12.1384 9.43012 12.1384 10.7701C12.1384 10.8995 12.1157 11.0808 12.1144 11.0888L12.1064 11.1515H7.50773C7.5384 12.6141 8.5104 13.6274 9.8944 13.6274C10.9544 13.6274 11.6157 12.9328 11.6224 12.9261L11.6851 12.8608L12.0317 13.3874L11.9904 13.4288C11.9557 13.4621 11.1504 14.2421 9.8944 14.2421ZM11.4851 10.5608C11.4237 9.63279 10.9304 8.67012 9.7104 8.67012C8.60373 8.67012 7.76507 9.40879 7.5544 10.5608H11.4851Z" fill="white"/>
<path d="M13.1333 14.1052V13.5145H14.052V8.99054C14.052 8.86387 13.9974 8.80921 13.8707 8.80921H12.96V8.21854H13.9387C14.4427 8.21854 14.6774 8.44121 14.6774 8.92121V9.32387C14.6774 9.35454 14.6774 9.38521 14.676 9.41454C15.04 8.61987 15.6614 8.17188 16.42 8.17188C16.5974 8.17188 16.7614 8.20654 16.768 8.20788L16.8254 8.21988V8.84521L16.7414 8.83054C16.74 8.83054 16.608 8.80921 16.4894 8.80921C15.1694 8.80921 14.6774 10.4919 14.6774 11.5519V13.5132H15.596V14.1039H13.1333V14.1052Z" fill="white"/>
<path d="M20.6391 14.1498C20.3164 14.1498 19.8484 14.0871 19.4578 13.7871C18.9818 13.4218 18.7404 12.8045 18.7404 11.9525V8.80714H17.6484V8.21647H18.7404V6.61914H19.3658V8.21647H20.8711V8.80714H19.3658V11.9178C19.3658 13.3458 20.1778 13.5578 20.6618 13.5578C20.8111 13.5578 20.9098 13.5364 20.9111 13.5364L20.9978 13.5178V14.1138L20.9404 14.1258C20.9364 14.1271 20.8178 14.1498 20.6391 14.1498Z" fill="white"/>
<path d="M24.6464 14.2421C22.8877 14.2421 21.6104 12.9501 21.6104 11.1715C21.6104 9.04612 23.0944 8.07812 24.4744 8.07812C26.1424 8.07812 26.8904 9.43012 26.8904 10.7701C26.8904 10.8995 26.8677 11.0808 26.8664 11.0888L26.8584 11.1515H22.2597C22.2904 12.6141 23.2624 13.6274 24.6464 13.6274C25.7037 13.6274 26.3677 12.9328 26.3744 12.9261L26.437 12.8608L26.7837 13.3874L26.7424 13.4288C26.7077 13.4621 25.9024 14.2421 24.6464 14.2421ZM26.237 10.5608C26.1757 9.63279 25.6824 8.67012 24.4624 8.67012C23.3557 8.67012 22.517 9.40879 22.3064 10.5608H26.237Z" fill="white"/>
<path d="M3.3599 14.1047L1.39724 9.02213C1.33457 8.8648 1.23857 8.8088 1.03057 8.8088H0.295898V8.2168H1.02257C1.6239 8.2168 1.8039 8.34346 2.0319 8.93146L3.59057 13.0075C3.60924 13.0541 3.62524 13.1008 3.63857 13.1461C3.6519 13.1008 3.6679 13.0528 3.68657 13.0075L5.2919 8.8088H4.41724V8.21813H6.76657V8.8088H5.96257L3.91724 14.1047H3.3599Z" fill="white"/>
<path d="M32.836 14.1054C32.1787 14.1054 31.9733 13.9401 31.6493 13.4121C31.3413 12.9094 30.6293 11.7387 30.6293 11.7387C30.5827 11.6694 30.54 11.5961 30.508 11.5374C30.4773 11.5961 30.4347 11.6721 30.3827 11.7521L28.9493 14.1054H27.62V13.5147H28.6053L30.124 11.0361C29.9613 10.7734 28.9973 9.22008 28.8947 9.05208C28.768 8.84542 28.6907 8.80942 28.372 8.80942H27.6213V8.21875H28.3493C28.9893 8.21875 29.1987 8.38408 29.504 8.88275C29.808 9.37875 30.396 10.3441 30.396 10.3441C30.4427 10.4134 30.4853 10.4881 30.5173 10.5454C30.548 10.4868 30.5907 10.4108 30.6427 10.3308L31.9507 8.21875H33.3493V8.80942H32.3067L30.904 11.0467L32.3093 13.2961C32.4027 13.4454 32.5627 13.5147 32.812 13.5147H33.42V14.1054H32.836Z" fill="white"/>
<path d="M35.4785 3.59658H38.2892L39.7998 1.89258L35.4785 3.59658Z" fill="white"/>
<path d="M31.9346 4.47635L34.7426 7.78435L34.7079 3.92969L31.9346 4.47635Z" fill="white"/>
<path d="M35.5216 0.324219L35.0322 3.56822L39.4976 1.50289L35.5216 0.324219Z" fill="white"/>
<path d="M34.9495 0.703125L32.0361 3.96446L34.7428 3.61246L34.9495 0.703125Z" fill="white"/>
<path d="M36.7695 6.6877L39.0362 7.43437L38.2602 4.0957L36.7695 6.6877Z" fill="white"/>
<path d="M34.9648 4.29688L35.1702 8.02488L36.3808 6.74754L34.9648 4.29688Z" fill="white"/>
<path d="M38.4482 3.81898L39.3442 6.96031L40.0176 2.32031L38.4482 3.81898Z" fill="white"/>
<path d="M36.5856 6.89258L35.6016 8.15658L38.7749 7.76591L36.5856 6.89258Z" fill="white"/>
<path d="M41.776 8.24402H41.4373V14.1533H41.776V8.24402Z" fill="white"/>
</svg>
