<svg width="79" height="20" viewBox="0 0 79 20" fill="none" xmlns="http://www.w3.org/2000/svg">
<path d="M10.0547 0C11.6561 3.3334e-05 12.6119 1.78429 11.7248 3.11753L10.9088 4.34344L11.0921 4.61899C11.2675 4.88233 11.3796 5.05 11.472 5.17044C11.5626 5.28845 11.5972 5.31045 11.5985 5.31122C11.7251 5.39245 11.8841 5.405 12.022 5.34456C12.0235 5.34389 12.0611 5.32745 12.1688 5.22522C12.2789 5.12055 12.4158 4.97244 12.63 4.73977L14.992 2.17285C15.258 1.88387 15.7079 1.86523 15.9969 2.13118C16.2859 2.39715 16.3045 2.84709 16.0386 3.1361L13.6766 5.7029C13.4757 5.92113 13.3013 6.11135 13.1481 6.2568C12.9926 6.40436 12.8149 6.54992 12.5932 6.64714C12.0196 6.89859 11.3582 6.8467 10.831 6.50881C10.6271 6.37814 10.4742 6.20669 10.3437 6.03668C10.2548 5.92079 10.1593 5.78223 10.0545 5.62612C9.94954 5.78246 9.85409 5.92124 9.76509 6.03724C9.63453 6.20724 9.48164 6.37869 9.27775 6.50936C8.75073 6.84703 8.08994 6.89915 7.51649 6.64814C7.2947 6.55092 7.11692 6.40558 6.96136 6.25802C6.80814 6.11269 6.63347 5.92246 6.43257 5.70423L3.96141 3.02144C3.69541 2.73252 3.71396 2.2826 4.00286 2.01651C4.29175 1.75042 4.74165 1.76885 5.00777 2.05776L7.47871 4.74077C7.69305 4.97344 7.82994 5.12155 7.94016 5.226C8.04672 5.327 8.08472 5.34411 8.08705 5.34511C8.22483 5.40545 8.38373 5.39289 8.5104 5.31178C8.5124 5.31056 8.54729 5.28778 8.63684 5.17122C8.72929 5.05066 8.84129 4.88288 9.01652 4.61954L9.2003 4.34329L8.3845 3.11753C7.49737 1.78428 8.45317 0 10.0547 0ZM10.0547 1.42249C9.58864 1.42249 9.31052 1.94155 9.56864 2.32947L10.0545 3.05971L10.5406 2.32947C10.7987 1.94155 10.5206 1.42252 10.0547 1.42249Z" fill="white"/>
<path d="M9.94521 20.0006C8.34373 20.0006 7.38793 18.2164 8.27506 16.8831L9.09108 15.6572L8.90774 15.3816C8.73241 15.1183 8.62029 14.9506 8.52784 14.8302C8.43729 14.7122 8.40262 14.6902 8.4014 14.6894C8.27473 14.6082 8.11573 14.5956 7.97783 14.6561C7.97639 14.6567 7.93872 14.6732 7.83105 14.7754C7.72094 14.8801 7.58405 15.0282 7.36982 15.2608L5.00788 17.8278C4.74188 18.1168 4.29198 18.1354 4.00297 17.8695C3.71397 17.6035 3.69541 17.1536 3.9613 16.8645L6.32324 14.2977C6.52414 14.0795 6.69858 13.8893 6.85181 13.7438C7.00726 13.5963 7.18493 13.4507 7.40671 13.3535C7.98028 13.102 8.64162 13.1539 9.16886 13.4918C9.37275 13.6225 9.52564 13.7939 9.6562 13.9639C9.74509 14.0798 9.84054 14.2184 9.94532 14.3745C10.0503 14.2182 10.1458 14.0794 10.2348 13.9634C10.3653 13.7934 10.5182 13.6219 10.7221 13.4913C11.2491 13.1536 11.9099 13.1015 12.4834 13.3525C12.7052 13.4497 12.8829 13.595 13.0385 13.7426C13.1917 13.8879 13.3664 14.0782 13.5673 14.2964L16.0384 16.9792C16.3045 17.2681 16.2859 17.718 15.997 17.9841C15.7081 18.2502 15.2582 18.2318 14.9921 17.9429L12.5212 15.2598C12.3068 15.0272 12.1699 14.8791 12.0597 14.7746C11.9531 14.6736 11.9151 14.6565 11.9128 14.6555C11.775 14.5952 11.6161 14.6077 11.4895 14.6888C11.4875 14.6901 11.4526 14.7128 11.363 14.8294C11.2706 14.9499 11.1586 15.1177 10.9833 15.3811L10.7996 15.6573L11.6154 16.8831C12.5025 18.2164 11.5467 20.0006 9.94521 20.0006ZM9.94521 18.5781C10.4112 18.5781 10.6893 18.059 10.4312 17.6711L9.94532 16.9409L9.45931 17.6711C9.20119 18.059 9.47931 18.5781 9.94521 18.5781Z" fill="white"/>
<path d="M20.0006 10.0547C20.0006 11.6562 18.2164 12.612 16.8831 11.7248L15.6572 10.9088L15.3816 11.0921C15.1183 11.2675 14.9506 11.3796 14.8302 11.472C14.7122 11.5626 14.6902 11.5973 14.6894 11.5985C14.6082 11.7252 14.5956 11.8842 14.6561 12.0221C14.6567 12.0235 14.6732 12.0612 14.7754 12.1688C14.8801 12.2789 15.0282 12.4158 15.2608 12.6301L17.8278 14.992C18.1168 15.258 18.1354 15.7079 17.8695 15.9969C17.6035 16.2859 17.1536 16.3045 16.8645 16.0386L14.2977 13.6766C14.0795 13.4757 13.8893 13.3013 13.7438 13.1481C13.5963 12.9926 13.4507 12.815 13.3535 12.5932C13.102 12.0196 13.1539 11.3583 13.4918 10.831C13.6225 10.6271 13.7939 10.4742 13.9639 10.3437C14.0798 10.2548 14.2184 10.1593 14.3745 10.0546C14.2182 9.94956 14.0794 9.85412 13.9634 9.76511C13.7934 9.63456 13.6219 9.48166 13.4913 9.27777C13.1536 8.75076 13.1015 8.08997 13.3525 7.51651C13.4497 7.29473 13.595 7.11695 13.7426 6.96139C13.8879 6.80816 14.0782 6.63349 14.2964 6.4326L16.9792 3.96148C17.2681 3.69538 17.718 3.71395 17.9841 4.00287C18.2502 4.29177 18.2318 4.74167 17.9429 5.00779L15.2598 7.47873C15.0272 7.69307 14.8791 7.82996 14.7746 7.94019C14.6736 8.04674 14.6565 8.08474 14.6555 8.08708C14.5952 8.22486 14.6076 8.38375 14.6888 8.51042C14.6901 8.51242 14.7128 8.54731 14.8294 8.63687C14.9499 8.72931 15.1177 8.84132 15.3811 9.01654L15.6573 9.20032L16.8831 8.38453C18.2164 7.4974 20.0006 8.4532 20.0006 10.0547ZM18.5781 10.0547C18.5781 9.58867 18.059 9.31055 17.6711 9.56866L16.9409 10.0546L17.6711 10.5406C18.059 10.7987 18.5781 10.5206 18.5781 10.0547Z" fill="white"/>
<path d="M0 9.94522C3.3334e-05 8.34374 1.78426 7.38795 3.11751 8.27508L4.34343 9.09109L4.61899 8.90776C4.88233 8.73242 5.05 8.62031 5.17044 8.52786C5.28845 8.4373 5.31045 8.40263 5.31122 8.40141C5.39245 8.27474 5.405 8.11574 5.34456 7.97785C5.34389 7.9764 5.32745 7.93874 5.22522 7.83107C5.12055 7.72095 4.97244 7.58406 4.73977 7.36984L2.17282 5.0079C1.88382 4.74189 1.86526 4.292 2.13116 4.00299C2.39716 3.714 2.84706 3.69537 3.13607 3.96132L5.7029 6.32326C5.92113 6.52415 6.11135 6.6986 6.2568 6.85182C6.40436 7.00727 6.54992 7.18494 6.64714 7.40672C6.89859 7.98029 6.8467 8.64164 6.50881 9.16887C6.37814 9.37277 6.20669 9.52566 6.03668 9.65622C5.92079 9.74511 5.78223 9.84055 5.62612 9.94533C5.78246 10.0503 5.92124 10.1458 6.03724 10.2348C6.20724 10.3653 6.37869 10.5182 6.50936 10.7221C6.84703 11.2491 6.89915 11.9099 6.64814 12.4834C6.55092 12.7052 6.40558 12.883 6.25802 13.0385C6.11269 13.1917 5.92246 13.3664 5.70423 13.5673L3.0214 16.0385C2.7325 16.3045 2.2826 16.2859 2.01649 15.997C1.75037 15.7081 1.76882 15.2582 2.05771 14.9921L4.74077 12.5212C4.97344 12.3068 5.12155 12.1699 5.226 12.0597C5.327 11.9532 5.34411 11.9152 5.34511 11.9128C5.40545 11.775 5.39289 11.6161 5.31178 11.4895C5.31056 11.4875 5.28778 11.4526 5.17122 11.363C5.05066 11.2706 4.88288 11.1586 4.61954 10.9834L4.34332 10.7996L3.11751 11.6154C1.78426 12.5025 0 11.5467 0 9.94522ZM1.42247 9.94522C1.42247 10.4112 1.9416 10.6894 2.32949 10.4312L3.05973 9.94533L2.32949 9.45932C1.9416 9.20121 1.42247 9.47932 1.42247 9.94522Z" fill="white"/>
<path fill-rule="evenodd" clip-rule="evenodd" d="M33.7513 7.30081C34.7454 7.30081 35.597 7.64471 36.3128 8.31617L36.3817 8.38217L36.3825 8.38306C37.0992 9.09885 37.4663 9.9862 37.4663 10.9837C37.4663 11.995 37.0991 12.8686 36.3825 13.5843L36.3817 13.5852C35.6518 14.3001 34.7774 14.6665 33.7513 14.6665C32.7258 14.6665 31.8371 14.3005 31.1199 13.5843C30.3888 12.8677 30.0363 11.9935 30.0363 10.9837C30.0363 9.98776 30.3885 9.09985 31.1199 8.38306C31.8371 7.66682 32.7258 7.30081 33.7513 7.30081ZM33.7513 8.6274C33.0792 8.6274 32.5267 8.85762 32.0474 9.32286L32.0475 9.32297C31.5817 9.7882 31.351 10.3395 31.351 10.9837C31.351 11.641 31.5815 12.179 32.0475 12.6445C32.5255 13.1218 33.077 13.3399 33.7513 13.3399C34.4247 13.3399 34.9629 13.1223 35.4413 12.6445C35.9074 12.179 36.1378 11.641 36.1378 10.9837C36.1378 10.3263 35.9074 9.78842 35.4413 9.32297C34.9615 8.85729 34.4225 8.6274 33.7513 8.6274Z" fill="white"/>
<path d="M40.1765 12.354C40.1765 12.6666 40.2628 12.8896 40.4382 13.0648C40.6302 13.2565 40.8416 13.3396 41.1226 13.3396C41.9488 13.3396 42.7209 12.966 43.4412 12.2212V8.84416H42.699C42.483 8.84416 42.2954 8.80161 42.153 8.66338C42.0177 8.54493 41.933 8.37471 41.933 8.17404C41.933 7.98514 42.019 7.81547 42.153 7.69836C42.2899 7.5788 42.4716 7.51758 42.699 7.51758H44.7697V13.1089H44.9141C45.1331 13.1089 45.3184 13.1525 45.46 13.2761L45.4631 13.2789L45.4662 13.2819C45.5933 13.4089 45.6801 13.5755 45.6802 13.7654C45.6802 13.9489 45.6117 14.1201 45.4607 14.2541L45.46 14.2547C45.3184 14.3784 45.1331 14.4219 44.9141 14.4219H43.4412V13.9329C42.7295 14.4202 41.9581 14.6662 41.1499 14.6662C40.472 14.6662 39.9325 14.4681 39.5496 14.0709L39.5486 14.0698C39.0933 13.5866 38.8481 13.0131 38.8481 12.354V8.84416H38.4047C38.1888 8.84416 38.0012 8.80161 37.8588 8.66349L37.8332 8.63971C37.7097 8.51827 37.6523 8.35449 37.6523 8.17404C37.6523 7.98826 37.7221 7.83447 37.8526 7.70414L37.8557 7.70114L37.8588 7.69836C37.9957 7.5788 38.1772 7.51758 38.4047 7.51758H40.1765V12.354Z" fill="white"/>
<path fill-rule="evenodd" clip-rule="evenodd" d="M59.1489 7.30078C59.9603 7.30078 60.6287 7.51034 61.1163 7.91691L61.1629 7.9568L61.1631 7.95713C61.6601 8.39669 61.9262 8.91793 61.9262 9.49083V13.1092H62.356C62.5873 13.1092 62.7733 13.1522 62.9154 13.2765L62.9187 13.2792L62.9217 13.2822C63.0547 13.4151 63.1221 13.5834 63.1221 13.7657C63.1221 13.9464 63.0556 14.1191 62.9154 14.2416C62.7724 14.3803 62.584 14.4223 62.356 14.4223H60.5843V13.9109C59.8216 14.4055 59.0086 14.6665 58.1569 14.6665C57.3604 14.6665 56.7014 14.4569 56.2232 14.0227C55.7337 13.5908 55.502 13.0403 55.502 12.4221C55.502 11.7268 55.8228 11.1088 56.4322 10.6135L56.4323 10.6134C57.1909 9.99873 58.3596 9.76995 59.936 9.94773C60.1406 9.95939 60.3617 9.98917 60.5843 10.0293V9.49083C60.5843 9.28138 60.4882 9.09838 60.2666 8.92626L60.2627 8.92315C60.0385 8.7347 59.6538 8.62737 59.1217 8.62737C58.6942 8.62737 58.0712 8.75781 57.2595 9.02793L57.2574 9.02871L57.2552 9.02937C57.0259 9.09671 56.9276 9.11593 56.8524 9.11593C56.6792 9.11593 56.5221 9.04549 56.4031 8.90971C56.2859 8.78915 56.2222 8.6227 56.2222 8.44581C56.2222 8.23158 56.3066 8.09169 56.3954 8.00302C56.4906 7.90802 56.6593 7.80646 57.3628 7.61734L57.3634 7.61701C58.1386 7.41334 58.7234 7.30078 59.1489 7.30078ZM59.0674 11.2059C58.2689 11.2059 57.6481 11.3786 57.2297 11.6944L57.2298 11.6947C56.9389 11.922 56.8168 12.1461 56.8168 12.4221C56.8168 12.6655 56.9192 12.8767 57.1269 13.0597C57.325 13.2342 57.6557 13.3399 58.1297 13.3399C58.5881 13.3399 59.031 13.2484 59.4199 13.0675C59.789 12.8893 60.1853 12.6238 60.5843 12.2453V11.3555C60.4013 11.314 60.2095 11.2819 60.0174 11.2593L60.0158 11.2591C59.7105 11.2193 59.4038 11.2059 59.0674 11.2059Z" fill="white"/>
<path fill-rule="evenodd" clip-rule="evenodd" d="M75.0509 7.30081C76.1146 7.30081 77.0317 7.66515 77.7237 8.37028C78.4293 9.08907 78.7798 10.0051 78.7658 11.121V11.4773H72.725C72.8477 11.9437 73.0804 12.3337 73.4245 12.6499L73.5026 12.7187L73.5036 12.7196C73.9805 13.1315 74.5614 13.3399 75.2955 13.3399C75.7027 13.3399 76.1382 13.2743 76.5893 13.142C77.0439 12.995 77.4072 12.8247 77.675 12.6083L77.6764 12.6071L77.6779 12.606C77.8378 12.4844 78.0055 12.4225 78.1696 12.4291C78.3337 12.4357 78.4785 12.51 78.5926 12.6308C78.7126 12.7506 78.7794 12.9192 78.7794 13.0872C78.7794 13.2063 78.7448 13.4052 78.5654 13.5843C78.2882 13.8612 77.847 14.1132 77.2134 14.3334L77.2135 14.3335C76.5885 14.5554 75.949 14.6665 75.2955 14.6665C74.1636 14.6665 73.2208 14.2885 72.4621 13.5453L72.392 13.4763C71.6794 12.7576 71.3223 11.8667 71.3223 10.848C71.3223 9.8772 71.676 9.02963 72.3943 8.3405C73.112 7.65171 74.0003 7.30081 75.0509 7.30081ZM75.0509 8.6274C74.4263 8.6274 73.9111 8.80829 73.4589 9.16952L73.4585 9.16974C73.131 9.42919 72.9028 9.75809 72.7648 10.1508H77.3364C77.1967 9.7632 76.9589 9.44197 76.6277 9.1683C76.1901 8.8084 75.6757 8.6274 75.0509 8.6274Z" fill="white"/>
<path d="M25.0774 5.33398C25.3049 5.33398 25.4865 5.39521 25.6233 5.51465C25.7634 5.6371 25.8299 5.80977 25.8299 5.99044C25.8299 6.18289 25.7646 6.35634 25.6233 6.47979C25.5015 6.58634 25.3441 6.64612 25.1504 6.65801L26.7204 9.01584L28.2553 6.65768C28.0656 6.64446 27.9003 6.58546 27.7794 6.47979C27.6381 6.35634 27.5728 6.18289 27.5728 5.99044C27.5728 5.80977 27.6393 5.6371 27.7794 5.51465C27.9178 5.39376 28.114 5.33398 28.3389 5.33398H29.9831C30.2107 5.33398 30.3923 5.3951 30.529 5.51465C30.6645 5.6331 30.7493 5.80333 30.7493 6.00411C30.7493 6.193 30.6631 6.36278 30.529 6.47979C30.3923 6.59934 30.2107 6.66057 29.9831 6.66057H29.8214L27.3928 10.398V13.0967H28.5836C28.7889 13.0967 28.9646 13.135 29.1024 13.2417L29.1295 13.2639L29.1301 13.2645C29.2811 13.3985 29.3495 13.5696 29.3495 13.7532C29.3495 13.9356 29.2822 14.1039 29.1492 14.2368L29.1461 14.2397L29.143 14.2426C29.0047 14.3635 28.8085 14.4233 28.5836 14.4233H24.86C24.6325 14.4233 24.4509 14.3622 24.3141 14.2426L24.3109 14.2397L24.3079 14.2368C24.1807 14.1097 24.0939 13.9432 24.0939 13.7532C24.0939 13.5667 24.1778 13.399 24.3088 13.2822C24.4413 13.137 24.6359 13.0967 24.86 13.0967H26.0643V10.3985L23.5821 6.66057H23.4196C23.192 6.66057 23.0104 6.59934 22.8737 6.47979C22.7323 6.35634 22.667 6.18289 22.667 5.99044C22.667 5.80977 22.7335 5.6371 22.8737 5.51465C23.0104 5.3951 23.192 5.33398 23.4196 5.33398H25.0774Z" fill="white"/>
<path d="M49.1921 5.33398C49.4319 5.33398 49.614 5.39443 49.7516 5.51465C49.8929 5.63821 49.9581 5.81166 49.9581 6.00411C49.9581 6.18478 49.8917 6.35745 49.7516 6.47979C49.614 6.60001 49.4319 6.66057 49.1921 6.66057H48.1932L48.7419 11.4873L49.9378 7.19314H50.6734V7.23525H50.7005V7.19314H51.408L52.6426 11.5089L53.181 6.66057H52.1681C51.9406 6.66057 51.7591 6.59934 51.6222 6.47979C51.4822 6.35745 51.4157 6.18478 51.4157 6.00411C51.4157 5.81166 51.4809 5.63821 51.6222 5.51465C51.7591 5.3951 51.9406 5.33398 52.1681 5.33398H54.3968C54.6242 5.33398 54.8058 5.3951 54.9427 5.51465C55.0767 5.63177 55.1629 5.80144 55.1629 5.99044C55.1629 6.19111 55.0781 6.36145 54.9427 6.47979C54.8268 6.58112 54.6788 6.64023 54.4979 6.65601L53.655 14.4097H52.1128L50.6878 9.44196L49.2887 14.4097H47.7469L46.8492 6.65479C46.6743 6.63723 46.5305 6.57868 46.4174 6.47979C46.2774 6.35745 46.2109 6.18478 46.2109 6.00411C46.2109 5.81166 46.2762 5.63821 46.4174 5.51465C46.5543 5.3951 46.7359 5.33398 46.9635 5.33398H49.1921Z" fill="white"/>
<path d="M69.4552 7.35473C69.8456 7.3684 70.2089 7.49785 70.5429 7.73874L70.6093 7.78841L70.6107 7.78941L70.612 7.79063C70.8052 7.94908 70.9504 8.08908 71.0479 8.22008C71.1461 8.3522 71.2022 8.48353 71.2022 8.62176C71.2022 8.80321 71.1357 8.96843 71.0212 9.0991L71.0183 9.10232L71.0154 9.10532C70.8142 9.30622 70.4833 9.35755 70.2433 9.23777L70.2361 9.2341L70.2295 9.22977C70.1807 9.19721 70.1208 9.15144 69.9699 9.01454L69.9659 9.01088L69.9621 9.00688C69.7904 8.8221 69.6835 8.75676 69.6414 8.73987L69.6331 8.73654L69.6255 8.7322C69.5554 8.6922 69.4839 8.68109 69.4168 8.68109C69.2328 8.68109 68.9845 8.76287 68.6502 8.94988C68.33 9.12899 67.7433 9.59511 66.908 10.3348V13.0952H69.2131C69.416 13.0952 69.6048 13.1325 69.7451 13.2399L69.7725 13.2624L69.7757 13.2652L69.7787 13.2682C69.9118 13.4011 69.9791 13.5693 69.9791 13.7516C69.9791 13.9323 69.9126 14.105 69.7725 14.2274C69.6295 14.3662 69.4411 14.4082 69.2131 14.4082H64.4976C64.2786 14.4082 64.0931 14.3647 63.9517 14.2411C63.8116 14.1187 63.7451 13.9459 63.7451 13.7652C63.7451 13.5845 63.8116 13.4119 63.9517 13.2894C64.08 13.1656 64.2789 13.1087 64.4976 13.1087H65.5932V8.83043H64.8374C64.6214 8.83043 64.4338 8.78776 64.2915 8.64965L64.2657 8.62587C64.1421 8.50442 64.0848 8.34075 64.0848 8.1603C64.0848 7.97452 64.1547 7.82085 64.2852 7.6904C64.4134 7.5624 64.6152 7.50373 64.8374 7.50373H66.908V8.58998C67.42 8.15941 67.8242 7.86907 68.147 7.69552L68.1483 7.69474C68.6041 7.45662 69.0405 7.34017 69.4552 7.35473Z" fill="white"/>
</svg>
