<svg width="64" height="18" viewBox="0 0 64 18" fill="none" xmlns="http://www.w3.org/2000/svg">
<g clip-path="url(#clip0_296_7018)">
<path d="M59.4698 7.37197V3.1645H62.923V1.61671H60.3807L60.7468 0.812669L59.3397 0.150391L58.6774 1.61565H55.4729L54.8106 0.150391L53.357 0.813727L53.7357 1.61777H51.1818V3.16556H54.6583V7.37197H50.6486V8.91976H63.4784V7.37197H59.4698ZM57.885 7.37197H56.2177V3.1645H57.885V7.37197Z" fill="url(#paint0_linear_296_7018)"/>
<path d="M49.9274 4.03093C49.6671 3.4406 48.7446 1.57331 48.2008 0.757629L46.7345 1.50243C47.2666 2.30647 48.1892 4.16106 48.4378 4.77573L49.9274 4.03093Z" fill="url(#paint1_linear_296_7018)"/>
<path d="M49.4186 13.6492V5.94727H46.2141V7.49505H47.8338V14.9843C47.2657 15.4456 46.8287 15.7883 46.687 15.9058L47.6328 17.0875C49.7254 15.5154 51.1917 14.0268 51.452 13.755L50.4469 12.6674C50.1391 13.0112 49.8206 13.2947 49.4186 13.6492Z" fill="url(#paint2_linear_296_7018)"/>
<path d="M51.8439 17.9862H62.2732V10.2832H51.8439V17.9862ZM53.4161 11.867H60.7001V13.346H53.4161V11.867ZM53.4161 14.9181H60.7001V16.4151H53.4161V14.9181Z" fill="url(#paint3_linear_296_7018)"/>
<path d="M52.7295 3.76953L51.3107 4.32496L52.3274 6.84182L53.7112 6.26312L52.7295 3.76953Z" fill="url(#paint4_linear_296_7018)"/>
<path d="M61.8222 6.84182L62.804 4.36093L61.4329 3.76953L60.4035 6.29804L61.8222 6.84182Z" fill="url(#paint5_linear_296_7018)"/>
<path d="M32.1151 7.40143C32.333 7.53262 33.8533 8.45092 35.2212 9.43588C35.4698 9.01058 35.7534 8.46679 35.966 8.07747C34.6097 7.16445 32.8673 6.11179 32.8673 6.11179L32.9815 5.83884H36.0443V4.39579H32.9339V2.62372H35.8073V1.18173H30.3091C30.416 0.945809 30.5102 0.708828 30.581 0.507817L29.2216 0C28.8555 0.886564 28.1689 2.19843 27.5902 3.04902L28.9264 3.78218C29.1274 3.47537 29.3644 3.07335 29.6003 2.63642H31.3745V4.40849H27.5902V5.85048H31.1735C31.1735 5.85048 30.7503 6.82802 29.7569 7.54426C28.9973 8.09228 28.2102 8.48584 27.5119 8.74609L27.9965 10.223C28.7413 9.97437 29.558 9.56812 30.3747 9.03809C31.1566 8.53133 31.7257 7.91877 32.1151 7.40143Z" fill="url(#paint6_linear_296_7018)"/>
<path d="M29.6252 17.9873H42.7629V10.1172H29.6252V17.9873ZM31.1984 11.7009H41.1907V13.2731H31.1994V11.7009H31.1984ZM31.1984 14.8441H41.178V16.4162H31.1984V14.8441Z" fill="url(#paint7_linear_296_7018)"/>
<path d="M36.9904 8.62816H43.7899V0.970703H36.9904V8.62816ZM38.552 2.51849H42.241V7.07932H38.552V2.51849Z" fill="url(#paint8_linear_296_7018)"/>
<path d="M11.109 0.0136719L9.62789 2.1264C9.39408 2.45966 9.01216 2.65855 8.60485 2.65855H0.529495V0.0136719H11.109Z" fill="url(#paint9_linear_296_7018)"/>
<path d="M21.1592 0.0136719L8.46382 17.9989H0.000198364L12.6956 0.0136719H21.1592Z" fill="url(#paint10_linear_296_7018)"/>
<path d="M10.05 18.0003L11.5438 15.8844C11.7776 15.5522 12.1585 15.3555 12.5648 15.3555H20.6285V18.0003H10.05Z" fill="url(#paint11_linear_296_7018)"/>
</g>
<defs>
<linearGradient id="paint0_linear_296_7018" x1="54.5535" y1="-6.50519" x2="58.7853" y2="15.8176" gradientUnits="userSpaceOnUse">
<stop stop-color="white"/>
<stop offset="0.15" stop-color="#F6F8FB"/>
<stop offset="0.69" stop-color="#DAE2EE"/>
<stop offset="1" stop-color="#D0DBEA"/>
</linearGradient>
<linearGradient id="paint1_linear_296_7018" x1="46.8509" y1="-5.04206" x2="51.0827" y2="17.2807" gradientUnits="userSpaceOnUse">
<stop stop-color="white"/>
<stop offset="0.15" stop-color="#F6F8FB"/>
<stop offset="0.69" stop-color="#DAE2EE"/>
<stop offset="1" stop-color="#D0DBEA"/>
</linearGradient>
<linearGradient id="paint2_linear_296_7018" x1="45.3561" y1="-4.75921" x2="49.5879" y2="17.5636" gradientUnits="userSpaceOnUse">
<stop stop-color="white"/>
<stop offset="0.15" stop-color="#F6F8FB"/>
<stop offset="0.69" stop-color="#DAE2EE"/>
<stop offset="1" stop-color="#D0DBEA"/>
</linearGradient>
<linearGradient id="paint3_linear_296_7018" x1="53.195" y1="-6.24518" x2="57.4268" y2="16.0776" gradientUnits="userSpaceOnUse">
<stop stop-color="white"/>
<stop offset="0.15" stop-color="#F6F8FB"/>
<stop offset="0.69" stop-color="#DAE2EE"/>
<stop offset="1" stop-color="#D0DBEA"/>
</linearGradient>
<linearGradient id="paint4_linear_296_7018" x1="50.4231" y1="-5.7203" x2="54.6549" y2="16.6025" gradientUnits="userSpaceOnUse">
<stop stop-color="white"/>
<stop offset="0.15" stop-color="#F6F8FB"/>
<stop offset="0.69" stop-color="#DAE2EE"/>
<stop offset="1" stop-color="#D0DBEA"/>
</linearGradient>
<linearGradient id="paint5_linear_296_7018" x1="59.1943" y1="-7.3834" x2="63.4261" y2="14.9394" gradientUnits="userSpaceOnUse">
<stop stop-color="white"/>
<stop offset="0.15" stop-color="#F6F8FB"/>
<stop offset="0.69" stop-color="#DAE2EE"/>
<stop offset="1" stop-color="#D0DBEA"/>
</linearGradient>
<linearGradient id="paint6_linear_296_7018" x1="30.3557" y1="-1.91595" x2="34.5875" y2="20.4068" gradientUnits="userSpaceOnUse">
<stop stop-color="white"/>
<stop offset="0.15" stop-color="#F6F8FB"/>
<stop offset="0.69" stop-color="#DAE2EE"/>
<stop offset="1" stop-color="#D0DBEA"/>
</linearGradient>
<linearGradient id="paint7_linear_296_7018" x1="33.0699" y1="-2.42801" x2="37.3017" y2="19.8948" gradientUnits="userSpaceOnUse">
<stop stop-color="white"/>
<stop offset="0.15" stop-color="#F6F8FB"/>
<stop offset="0.69" stop-color="#DAE2EE"/>
<stop offset="1" stop-color="#D0DBEA"/>
</linearGradient>
<linearGradient id="paint8_linear_296_7018" x1="38.8133" y1="-3.51819" x2="43.0451" y2="18.8046" gradientUnits="userSpaceOnUse">
<stop stop-color="white"/>
<stop offset="0.15" stop-color="#F6F8FB"/>
<stop offset="0.69" stop-color="#DAE2EE"/>
<stop offset="1" stop-color="#D0DBEA"/>
</linearGradient>
<linearGradient id="paint9_linear_296_7018" x1="6.07528" y1="2.68606" x2="10.3071" y2="25.0089" gradientUnits="userSpaceOnUse">
<stop stop-color="white"/>
<stop offset="0.15" stop-color="#F6F8FB"/>
<stop offset="0.69" stop-color="#DAE2EE"/>
<stop offset="1" stop-color="#D0DBEA"/>
</linearGradient>
<linearGradient id="paint10_linear_296_7018" x1="9.2668" y1="2.08091" x2="13.4986" y2="24.4037" gradientUnits="userSpaceOnUse">
<stop stop-color="white"/>
<stop offset="0.15" stop-color="#F6F8FB"/>
<stop offset="0.69" stop-color="#DAE2EE"/>
<stop offset="1" stop-color="#D0DBEA"/>
</linearGradient>
<linearGradient id="paint11_linear_296_7018" x1="12.4579" y1="1.47725" x2="16.6897" y2="23.8" gradientUnits="userSpaceOnUse">
<stop stop-color="white"/>
<stop offset="0.15" stop-color="#F6F8FB"/>
<stop offset="0.69" stop-color="#DAE2EE"/>
<stop offset="1" stop-color="#D0DBEA"/>
</linearGradient>
<clipPath id="clip0_296_7018">
<rect width="63.4782" height="18" fill="white"/>
</clipPath>
</defs>
</svg>
