<svg width="92" height="18" viewBox="0 0 92 18" fill="none" xmlns="http://www.w3.org/2000/svg">
<g clip-path="url(#clip0_296_7128)">
<path fill-rule="evenodd" clip-rule="evenodd" d="M16.2188 9.89778L16.1964 10.0253V10.0319C16.1622 10.2211 16.1307 10.4012 16.0913 10.58C15.6864 12.4452 14.6427 13.8516 12.9471 14.7021C10.8808 15.7405 8.82763 15.609 6.877 14.3577C6.43929 14.0751 6.05416 13.7018 5.67954 13.3337C4.83172 12.4964 3.98785 11.6539 3.14398 10.8113L3.13872 10.8061C2.46178 10.1304 1.78484 9.4535 1.10396 8.77919C0.672821 8.35199 0.448051 7.86302 0.558464 7.25312C0.658362 6.70499 0.986973 6.32906 1.50224 6.07538L1.33399 5.9045C1.2078 5.77568 1.08293 5.65081 0.956741 5.52725C0.718827 5.29854 0.529547 5.04222 0.448051 4.71624C0.235111 3.85265 0.71094 3.02192 1.56401 2.76955C1.58767 2.76298 1.61133 2.75509 1.63762 2.74589L1.68231 2.73143C1.60082 2.07684 1.80193 1.53266 2.33954 1.14358C2.88109 0.751876 3.46076 0.751876 4.03254 1.02528C4.07855 0.964816 4.12324 0.901723 4.16793 0.839944L4.17187 0.833372C4.27177 0.692726 4.37035 0.553395 4.49128 0.437724C5.09461 -0.140632 6.04101 -0.149833 6.63777 0.433781C7.37386 1.15147 8.10075 1.87967 8.82763 2.60919C9.13258 2.91414 9.43622 3.2204 9.74249 3.52404C10.0842 3.86579 10.426 4.20755 10.7691 4.54799C10.798 4.57691 10.8308 4.6032 10.8953 4.61634L10.8545 4.43889C10.823 4.30482 10.7927 4.17206 10.7612 4.0393C10.7191 3.86579 10.6771 3.69229 10.6324 3.5201C10.5417 3.15599 10.4497 2.79189 10.3774 2.42385C10.1999 1.52214 10.8006 0.629633 11.6905 0.435095C12.6159 0.232671 13.5333 0.778165 13.7463 1.68645C14.0447 2.96146 14.4232 4.20755 14.9687 5.39975C15.0883 5.6587 15.2145 5.91501 15.3407 6.17133C15.4537 6.40267 15.5681 6.6327 15.6772 6.86667C15.9637 7.48446 16.1281 8.13642 16.2069 8.81993C16.2188 9.17746 16.2188 9.52974 16.2188 9.89778ZM8.44776 5.35769C8.59629 5.50491 8.6515 5.67841 8.5884 5.88347C8.53188 6.07143 8.39518 6.17527 8.21116 6.20945C8.02188 6.24362 7.87203 6.16213 7.74059 6.02937C6.40511 4.69258 5.06832 3.3571 3.73153 2.02294C3.45419 1.7456 3.08746 1.73902 2.82325 2.0006C2.56562 2.2556 2.57745 2.63416 2.85348 2.90888L6.86648 6.90873C7.09782 7.13876 7.11886 7.43714 6.91775 7.63825C6.71664 7.84067 6.41431 7.82884 6.1856 7.60407C5.87671 7.29912 5.57044 6.99154 5.26286 6.68528L4.17976 5.60743C3.60272 5.03302 3.02699 4.45861 2.44863 3.8842C2.19363 3.62919 1.84268 3.61211 1.5903 3.83293C1.2893 4.09582 1.29324 4.49016 1.60345 4.79905L3.29645 6.4868C4.11272 7.29912 4.92899 8.11145 5.74526 8.92509C5.97397 9.15249 5.9858 9.43904 5.78338 9.64146C5.58227 9.84389 5.29046 9.83731 5.06569 9.61912C4.91585 9.47453 4.76994 9.32731 4.62273 9.18009L4.42293 8.9803L3.87612 8.43612C3.44235 8.00498 3.0099 7.57384 2.57877 7.1427C2.37897 6.94422 2.14894 6.87587 1.88737 6.97971C1.46412 7.14533 1.37211 7.66191 1.70335 7.99578C2.07533 8.36908 2.44864 8.73975 2.82194 9.11174C3.02568 9.31285 3.2281 9.51528 3.43053 9.7177C3.78148 10.0673 4.13112 10.417 4.48077 10.7679C5.22474 11.5132 5.96872 12.2598 6.72321 12.9972C8.20722 14.4497 10.5246 14.8164 12.3779 13.9134C14.9635 12.6542 15.9914 9.58494 14.6717 7.02703C13.8409 5.41947 13.2047 3.74355 12.817 1.97431C12.792 1.85995 12.7355 1.74428 12.6645 1.65096C12.4516 1.36835 12.0638 1.28685 11.747 1.44196C11.4066 1.60758 11.2554 1.96248 11.3527 2.35813C11.6563 3.60553 11.9586 4.85294 12.2596 6.10035C12.2807 6.18842 12.2912 6.28832 12.2715 6.37507C12.1913 6.7142 11.7654 6.93371 11.4079 6.56961C11.0359 6.19105 10.6613 5.81774 10.2854 5.44313L10.2827 5.4405L9.86079 5.01988C8.59103 3.75012 7.32128 2.48037 6.05153 1.21193C5.75841 0.91881 5.39693 0.900408 5.13273 1.16198C4.86721 1.42487 4.88167 1.79029 5.17085 2.07946C5.7032 2.61444 6.23818 3.14811 6.77841 3.68966L8.44776 5.35769Z" fill="#DFE7F7"/>
<path d="M0 12.6296C0.0157733 12.6072 0.0315467 12.5849 0.0460055 12.5638C0.0998978 12.4837 0.149847 12.4087 0.218198 12.3588C0.469257 12.1735 0.813641 12.2878 0.950343 12.5993C1.16723 13.0857 1.45509 13.5221 1.82313 13.9072C2.31605 14.4238 2.89966 14.8037 3.57003 15.0495C3.77114 15.1231 3.88024 15.2755 3.89338 15.4859C3.90521 15.6909 3.80795 15.8473 3.62655 15.9407C3.47539 16.0195 3.31897 15.9972 3.16518 15.9354C1.74821 15.382 0.720315 14.4159 0.0801811 13.037C0.0617789 12.9963 0.0420622 12.9582 0.01183 12.9148C0 12.8228 0 12.7334 0 12.6296Z" fill="#DFE7F7"/>
<path d="M4.77408 13.9199C4.76488 13.6807 4.62029 13.5216 4.30876 13.4217C3.85659 13.2443 3.47146 12.9879 3.14022 12.6501C2.8563 12.3596 2.64205 12.0258 2.4738 11.6577C2.36339 11.4159 2.1189 11.3147 1.87178 11.3935C1.64701 11.4671 1.50768 11.6985 1.55369 11.9403C1.57078 12.0245 1.61021 12.106 1.64833 12.1848C2.16622 13.2456 2.97723 13.9817 4.09319 14.3747C4.44678 14.4982 4.78722 14.2682 4.77408 13.9199Z" fill="#DFE7F7"/>
<path d="M80.1016 14.522V5.24728H82.9802V6.93766H83.0775C83.247 6.32644 83.5231 5.87164 83.9069 5.57326C84.2907 5.27225 84.7376 5.12109 85.2463 5.12109C85.3843 5.12109 85.525 5.13029 85.6709 5.15133C85.8168 5.1671 85.9521 5.19339 86.077 5.22888V7.79599C85.9351 7.74735 85.7497 7.70923 85.5197 7.68032C85.2936 7.65271 85.0912 7.63825 84.9137 7.63825C84.5615 7.63825 84.2447 7.71712 83.9621 7.87354C83.6834 8.02733 83.4626 8.2429 83.3009 8.52025C83.1432 8.79365 83.0643 9.11569 83.0643 9.48636V14.522H80.1016Z" fill="#DFE7F7"/>
<path d="M75.4295 10.519V5.24805H78.387V14.5228H75.5636V12.7956H75.4663C75.26 13.3634 74.909 13.8143 74.4121 14.1481C73.9192 14.4781 73.3225 14.6437 72.6245 14.6437C71.9896 14.6437 71.4323 14.4978 70.9512 14.2086C70.4701 13.9181 70.0968 13.5146 69.83 12.9954C69.5632 12.4709 69.4278 11.8597 69.4238 11.1591V5.24805H72.3879V10.5794C72.3919 11.0829 72.5246 11.4798 72.7875 11.769C73.0504 12.0595 73.4079 12.2041 73.8601 12.2041C74.1558 12.2041 74.42 12.1397 74.654 12.0109C74.8919 11.8781 75.0799 11.6862 75.2179 11.4365C75.3585 11.1841 75.4295 10.8778 75.4295 10.519Z" fill="#DFE7F7"/>
<path d="M63.3727 14.6974C62.3947 14.6974 61.5548 14.4976 60.8516 14.0993C60.1536 13.6971 59.6134 13.1372 59.2335 12.4208C58.8589 11.7005 58.6709 10.8658 58.6709 9.91547C58.6709 8.96513 58.8589 8.12652 59.2335 7.41014C59.6134 6.68851 60.1536 6.12987 60.8516 5.7316C61.5548 5.32806 62.3947 5.12695 63.3727 5.12695C64.3506 5.12695 65.1892 5.32806 65.8885 5.7316C66.5904 6.12987 67.1307 6.68851 67.5066 7.41014C67.8852 8.12652 68.0757 8.96119 68.0757 9.91547C68.0757 10.8698 67.8852 11.7005 67.5066 12.4208C67.1307 13.1372 66.5904 13.6971 65.8885 14.0993C65.1892 14.4976 64.3506 14.6974 63.3727 14.6974ZM63.3911 12.4694C63.7473 12.4694 64.0483 12.3603 64.2941 12.1435C64.5412 11.9253 64.7279 11.6243 64.858 11.2378C64.9907 10.8514 65.0578 10.4044 65.0578 9.89707C65.0578 9.3897 64.9907 8.93096 64.858 8.54451C64.7279 8.15806 64.5412 7.85705 64.2941 7.63886C64.0483 7.42197 63.7473 7.31287 63.3911 7.31287C63.0349 7.31287 62.7128 7.42197 62.4578 7.63886C62.2081 7.85705 62.0162 8.15806 61.8821 8.54451C61.7533 8.93096 61.6889 9.38181 61.6889 9.89707C61.6889 10.4123 61.7533 10.8514 61.8821 11.2378C62.0162 11.6243 62.2081 11.9253 62.4578 12.1435C62.7128 12.3603 63.023 12.4694 63.3911 12.4694Z" fill="#DFE7F7"/>
<path d="M54.3489 5.24761H57.3117V14.9088C57.3117 15.6725 57.1539 16.2811 56.8398 16.7319C56.5283 17.1828 56.0879 17.5061 55.5188 17.7033C54.9483 17.9005 54.2766 17.999 53.4998 17.999C53.3946 17.999 53.296 17.9977 53.2027 17.9938C53.1107 17.9898 53.0095 17.9859 52.9004 17.9819V15.7421C52.9727 15.75 53.0371 15.7553 53.0936 15.7592C53.1514 15.7632 53.208 15.7658 53.2645 15.7658C53.672 15.7658 53.9546 15.6896 54.1123 15.5358C54.27 15.3872 54.3489 15.1585 54.3489 14.8483V5.24761ZM55.8277 4.16714C55.411 4.16714 55.0535 4.03044 54.7551 3.75703C54.4554 3.47837 54.3068 3.1445 54.3068 2.75411C54.3068 2.36372 54.4554 2.03774 54.7551 1.76434C55.0535 1.48699 55.411 1.34766 55.8277 1.34766C56.2443 1.34766 56.6045 1.48699 56.9002 1.76434C57.1986 2.03774 57.3485 2.36766 57.3485 2.75411C57.3485 3.14056 57.1986 3.47837 56.9002 3.75703C56.6045 4.03044 56.247 4.16714 55.8277 4.16714Z" fill="#DFE7F7"/>
<path d="M46.6677 9.23334V14.5227H43.7049V5.24794H46.5218V6.95015H46.6256C46.832 6.38362 47.183 5.93803 47.6798 5.61599C48.1767 5.29001 48.7682 5.12701 49.4556 5.12701C50.1431 5.12701 50.6781 5.27423 51.1578 5.56867C51.6429 5.85785 52.0188 6.26401 52.2856 6.78716C52.5564 7.30768 52.6892 7.91495 52.6852 8.61161V14.5227H49.7225V9.19128C49.7264 8.67601 49.595 8.27248 49.3281 7.9833C49.0652 7.69281 48.6998 7.54822 48.2319 7.54822C47.9204 7.54822 47.6456 7.61657 47.4077 7.75327C47.1724 7.88603 46.991 8.07794 46.8622 8.32769C46.736 8.57743 46.6716 8.87844 46.6677 9.23334Z" fill="#DFE7F7"/>
<path d="M37.6543 14.6974C36.6763 14.6974 35.8364 14.4976 35.1332 14.0993C34.4339 13.6971 33.8949 13.1372 33.5151 12.4208C33.1391 11.7005 32.9512 10.8658 32.9512 9.91547C32.9512 8.96513 33.1391 8.12652 33.5151 7.41014C33.8949 6.68851 34.4339 6.12987 35.1332 5.7316C35.8364 5.32806 36.6763 5.12695 37.6543 5.12695C38.6322 5.12695 39.4708 5.32806 40.1688 5.7316C40.872 6.12987 41.4109 6.68851 41.7869 7.41014C42.1667 8.12652 42.3573 8.96119 42.3573 9.91547C42.3573 10.8698 42.1667 11.7005 41.7869 12.4208C41.4109 13.1372 40.872 13.6971 40.1688 14.0993C39.4708 14.4976 38.6322 14.6974 37.6543 14.6974ZM37.6727 12.4694C38.0276 12.4694 38.3286 12.3603 38.5757 12.1435C38.8215 11.9253 39.0094 11.6243 39.1396 11.2378C39.2723 10.8514 39.3394 10.4044 39.3394 9.89707C39.3394 9.3897 39.2723 8.93096 39.1396 8.54451C39.0094 8.15806 38.8215 7.85705 38.5757 7.63886C38.3286 7.42197 38.0276 7.31287 37.6727 7.31287C37.3178 7.31287 36.9931 7.42197 36.7394 7.63886C36.4883 7.85705 36.2964 8.15806 36.1637 8.54451C36.0335 8.93096 35.9691 9.38181 35.9691 9.89707C35.9691 10.4123 36.0335 10.8514 36.1637 11.2378C36.2964 11.6243 36.4883 11.9253 36.7394 12.1435C36.9931 12.3603 37.3046 12.4694 37.6727 12.4694Z" fill="#DFE7F7"/>
<path d="M22.1484 14.5225V2.15625H27.3234C28.2527 2.15625 29.0296 2.28769 29.6565 2.54927C30.2862 2.81084 30.7594 3.17757 31.0748 3.64814C31.3929 4.11872 31.5533 4.66421 31.5533 5.28463C31.5533 5.7552 31.4547 6.17582 31.2562 6.54649C31.0577 6.91191 30.7857 7.21686 30.4386 7.4574C30.0903 7.69926 29.6881 7.86882 29.232 7.96478V8.08571C29.7328 8.10937 30.1955 8.24476 30.62 8.49056C31.0485 8.73636 31.3916 9.07811 31.6506 9.51714C31.9082 9.9509 32.0383 10.4662 32.0383 11.0629C32.0383 11.7267 31.8688 12.3195 31.5283 12.844C31.1892 13.3632 30.6989 13.7733 30.0561 14.0756C29.4134 14.3727 28.6339 14.5225 27.7177 14.5225H22.1484ZM25.148 12.1132H27.0014C27.652 12.1132 28.1318 11.9896 28.4381 11.7451C28.7496 11.4993 28.9047 11.1562 28.9047 10.7185C28.9047 10.4004 28.8298 10.127 28.6812 9.89701C28.5314 9.66304 28.3184 9.48428 28.0437 9.3594C27.769 9.23059 27.4404 9.16618 27.0566 9.16618H25.148V12.1132ZM25.148 7.24052H26.8081C27.1354 7.24052 27.4259 7.18663 27.6809 7.07753C27.9346 6.96843 28.1331 6.81201 28.2751 6.60696C28.4197 6.40059 28.4933 6.15347 28.4933 5.8643C28.4933 5.44893 28.3447 5.12295 28.0503 4.88504C27.7559 4.64844 27.3576 4.52882 26.8568 4.52882H25.148V7.24052Z" fill="#DFE7F7"/>
<path d="M91.3326 2.62109L91.0539 11.2005H88.563L88.2844 2.62109H91.3326ZM89.8052 15.1622C89.3727 15.1622 89.002 15.0084 88.6905 14.7035C88.3829 14.3972 88.2305 14.0265 88.2305 13.5914C88.2305 13.1564 88.3829 12.8015 88.6905 12.4991C89.002 12.1929 89.3727 12.0404 89.8052 12.0404C90.2376 12.0404 90.5873 12.1929 90.9027 12.4991C91.2221 12.8015 91.3812 13.1656 91.3812 13.5914C91.3812 13.8819 91.3063 14.1448 91.1564 14.3827C91.0118 14.6207 90.8199 14.8099 90.5807 14.9506C90.3467 15.0912 90.0878 15.1622 89.8052 15.1622Z" fill="#007CFF"/>
</g>
<defs>
<clipPath id="clip0_296_7128">
<rect width="91.3815" height="18" fill="white"/>
</clipPath>
</defs>
</svg>
