<svg width="91" height="14" viewBox="0 0 91 14" fill="none" xmlns="http://www.w3.org/2000/svg">
<g clip-path="url(#clip0_124_21744)">
<path d="M11.478 3.63493C11.0509 3.16418 10.5087 2.8028 9.85392 2.54959C9.19789 2.29639 8.52069 2.16919 7.82387 2.16919C6.96828 2.16919 6.19559 2.30471 5.50438 2.57575C4.81317 2.84678 4.22171 3.21767 3.73 3.68842C3.23829 4.15917 2.85756 4.71076 2.58641 5.34318C2.31527 5.97678 2.1804 6.65438 2.1804 7.37832C2.1804 8.05351 2.30825 8.69308 2.56534 9.29578C2.82243 9.89848 3.19192 10.4299 3.67661 10.8875C4.1613 11.3464 4.75276 11.7077 5.45099 11.9729C6.14923 12.238 6.94018 12.3711 7.82387 12.3711C8.70754 12.3711 9.45499 12.2201 10.111 11.9194C10.7658 11.6186 11.3221 11.1954 11.7786 10.6534L13.5095 11.7565C13.3957 11.8897 13.1962 12.0787 12.911 12.3259C12.6258 12.5732 12.2479 12.8204 11.7786 13.0677C11.308 13.3149 10.7419 13.5325 10.0788 13.7192C9.41565 13.9058 8.64995 13.9997 7.78032 13.9997C6.58334 13.9997 5.50438 13.8071 4.54203 13.4208C3.57967 13.0344 2.76062 12.528 2.08346 11.9016C1.4063 11.2751 0.889299 10.5666 0.53386 9.77606C0.177017 8.98669 0 8.18784 0 7.37951C0 6.39047 0.192471 5.47751 0.577412 4.63943C0.962357 3.80136 1.50042 3.07859 2.19164 2.46876C2.88284 1.86012 3.71314 1.38699 4.68252 1.04938C5.6519 0.711773 6.71961 0.542969 7.88849 0.542969C8.88597 0.542969 9.86514 0.705829 10.8275 1.03155C11.7899 1.35727 12.5767 1.85774 13.1891 2.53295L11.4794 3.63612L11.478 3.63493Z" fill="white"/>
<path d="M14.5205 9.38703C14.5205 8.76053 14.6596 8.17564 14.9377 7.63241C15.216 7.08915 15.5967 6.61365 16.0814 6.20353C16.5661 5.7934 17.1364 5.47125 17.7911 5.23588C18.4458 5.00051 19.151 4.88281 19.9069 4.88281C20.6627 4.88281 21.3679 5.00051 22.0227 5.23588C22.6773 5.47125 23.2477 5.7934 23.7324 6.20353C24.2171 6.61365 24.5978 7.09034 24.876 7.63241C25.1542 8.17448 25.2933 8.76053 25.2933 9.38703C25.2933 10.0135 25.1542 10.6019 24.876 11.1499C24.5978 11.6991 24.2171 12.1747 23.7324 12.5788C23.2477 12.983 22.6773 13.3028 22.0227 13.5369C21.3666 13.7724 20.6614 13.8901 19.9069 13.8901C19.1525 13.8901 18.4458 13.7724 17.7911 13.5369C17.1351 13.3016 16.5646 12.983 16.0814 12.5788C15.5967 12.1747 15.216 11.6991 14.9377 11.1499C14.6596 10.6019 14.5205 10.0135 14.5205 9.38703ZM16.5731 9.38703C16.5731 9.82088 16.6517 10.2215 16.8076 10.59C16.9636 10.9585 17.1856 11.2712 17.4708 11.5304C17.756 11.7895 18.1044 11.9952 18.5188 12.145C18.9319 12.2959 19.3955 12.3708 19.9083 12.3708C20.4211 12.3708 20.8847 12.2959 21.2977 12.145C21.7108 11.994 22.0605 11.7895 22.3458 11.5304C22.631 11.2712 22.8515 10.9574 23.0089 10.59C23.1662 10.2227 23.2435 9.82088 23.2435 9.38703C23.2435 8.95311 23.1649 8.55248 23.0089 8.18397C22.8515 7.8167 22.631 7.50283 22.3458 7.24369C22.0605 6.98454 21.7122 6.78008 21.2977 6.6291C20.8847 6.47813 20.4211 6.40324 19.9083 6.40324C19.3955 6.40324 18.9319 6.47813 18.5188 6.6291C18.1058 6.78008 17.756 6.98454 17.4708 7.24369C17.1856 7.50283 16.965 7.8167 16.8076 8.18397C16.6504 8.55131 16.5731 8.95311 16.5731 9.38703Z" fill="white"/>
<path d="M26.8982 2.02567C26.8982 1.69995 27.0373 1.41941 27.3154 1.18522C27.5937 0.949847 27.9252 0.832153 28.3101 0.832153C28.695 0.832153 29.0266 0.949847 29.3034 1.18522C29.5815 1.42059 29.7207 1.70114 29.7207 2.02567C29.7207 2.3502 29.5815 2.63194 29.3034 2.86731C29.0252 3.10268 28.6937 3.22037 28.3101 3.22037C27.9266 3.22037 27.5937 3.10268 27.3154 2.86731C27.0373 2.63194 26.8982 2.35139 26.8982 2.02567ZM27.3464 5.10099H29.2696V13.6743H27.3464V5.10099Z" fill="white"/>
<path d="M31.9336 5.10036H33.8569V6.42107H33.8991C34.1407 5.96339 34.5622 5.5925 35.1607 5.30839C35.7592 5.02546 36.4503 4.88281 37.2343 4.88281C37.719 4.88281 38.1854 4.94582 38.635 5.07302C39.0845 5.19903 39.4751 5.39517 39.8109 5.66026C40.1452 5.92535 40.4121 6.26653 40.6131 6.6826C40.8125 7.09866 40.9123 7.58962 40.9123 8.15667V13.6737H38.989V8.60957C38.989 8.21134 38.9244 7.87138 38.7966 7.58724C38.6687 7.30431 38.4973 7.07489 38.2837 6.90013C38.0702 6.72539 37.8243 6.59938 37.5462 6.51973C37.268 6.44128 36.98 6.40205 36.6808 6.40205C36.2817 6.40205 35.9108 6.45673 35.5695 6.5649C35.2281 6.67309 34.9289 6.84546 34.6718 7.08083C34.4147 7.3162 34.2151 7.61458 34.0733 7.97599C33.93 8.33734 33.8598 8.76528 33.8598 9.25979V13.6725H31.9364V5.10036H31.9336Z" fill="white"/>
<path d="M43.7651 0.867188H53.9183V3.47176H47.099V6.07632H53.4041V8.68088H47.099V13.6725H43.7637V0.867188H43.7651Z" fill="white"/>
<path d="M65.5032 13.6736H62.4251V12.4801H62.3829C62.2691 12.6488 62.1231 12.8177 61.9445 12.9865C61.7661 13.1552 61.5498 13.3062 61.2928 13.4382C61.0357 13.5714 60.7434 13.6795 60.416 13.7639C60.0887 13.8483 59.7319 13.8911 59.3469 13.8911C58.5349 13.8911 57.876 13.7853 57.3703 13.5749C56.8645 13.3645 56.4725 13.072 56.1944 12.6976C55.9162 12.3243 55.7307 11.8833 55.638 11.3769C55.5453 10.8704 55.4989 10.3213 55.4989 9.73046V4.88269H58.7049V9.18718C58.7049 9.44042 58.7162 9.70308 58.7372 9.97413C58.7583 10.2452 58.8229 10.496 58.9297 10.7242C59.0365 10.9537 59.2009 11.1403 59.4214 11.2853C59.642 11.4304 59.9595 11.5029 60.3725 11.5029C60.7855 11.5029 61.1213 11.4399 61.377 11.3127C61.6341 11.1855 61.8294 11.0179 61.9642 10.8063C62.0992 10.5959 62.1891 10.357 62.2312 10.0918C62.2733 9.82674 62.2958 9.54978 62.2958 9.25967V4.88269H65.5018V13.6736H65.5032Z" fill="white"/>
<path d="M67.6455 4.88356H70.7237V6.07708H70.7658C70.8655 5.90827 71.0075 5.73947 71.1929 5.57066C71.3783 5.40186 71.599 5.25089 71.8561 5.11894C72.1132 4.98579 72.4039 4.87762 72.7327 4.79321C73.06 4.70882 73.4168 4.66602 73.8018 4.66602C74.6138 4.66602 75.2699 4.77182 75.7687 4.98223C76.2673 5.19382 76.6552 5.48626 76.9333 5.85953C77.2114 6.23399 77.3997 6.67383 77.4994 7.18024C77.5993 7.68666 77.6498 8.23584 77.6498 8.82664V13.6745H74.4439V9.36992C74.4439 9.11676 74.4325 8.85402 74.4115 8.58297C74.3904 8.31191 74.3258 8.06108 74.219 7.83288C74.1123 7.60344 73.9479 7.41681 73.7273 7.27177C73.5067 7.12675 73.1892 7.05423 72.7763 7.05423C72.3632 7.05423 72.0274 7.11724 71.7717 7.24443C71.5147 7.37163 71.3193 7.54043 71.1845 7.75085C71.0482 7.96246 70.9597 8.20022 70.9176 8.46529C70.8754 8.73035 70.8529 9.0074 70.8529 9.29743V13.6745H67.647V4.88356H67.6455Z" fill="white"/>
<path d="M90.5633 13.6743H87.6131V12.5165H87.5709C87.4431 12.6733 87.2744 12.8326 87.068 12.9955C86.8614 13.1584 86.6184 13.3058 86.3416 13.4389C86.0635 13.5721 85.7572 13.6803 85.4228 13.7646C85.0884 13.849 84.7429 13.8918 84.386 13.8918C83.6161 13.8918 82.9179 13.78 82.2913 13.5566C81.6647 13.3331 81.1266 13.0205 80.6771 12.6163C80.2275 12.2121 79.8819 11.733 79.6403 11.1779C79.3972 10.6239 79.2764 10.0141 79.2764 9.35076C79.2764 8.73616 79.386 8.14777 79.6079 7.58785C79.8285 7.02675 80.1418 6.52985 80.5478 6.09595C80.9538 5.66205 81.4483 5.31494 82.0342 5.05579C82.6186 4.79664 83.2804 4.66706 84.0221 4.66706C84.6922 4.66706 85.316 4.75503 85.8921 4.92978C86.4695 5.10453 86.9429 5.4029 87.3138 5.82491H87.356V0H90.5619V13.6743H90.5633ZM87.6131 9.27943C87.6131 8.61615 87.3882 8.08002 86.9401 7.66986C86.4905 7.25975 85.8612 7.05528 85.0491 7.05528C84.237 7.05528 83.6063 7.26093 83.1567 7.66986C82.7071 8.08002 82.4838 8.61615 82.4838 9.27943C82.4838 9.9428 82.7085 10.4789 83.1567 10.889C83.6063 11.2992 84.2357 11.5036 85.0491 11.5036C85.8625 11.5036 86.4919 11.2992 86.9401 10.889C87.3897 10.4789 87.6131 9.9428 87.6131 9.27943Z" fill="white"/>
</g>
<defs>
<clipPath id="clip0_124_21744">
<rect width="91" height="14" fill="white"/>
</clipPath>
</defs>
</svg>
