<svg width="172" height="25" viewBox="0 0 172 25" fill="none" xmlns="http://www.w3.org/2000/svg">
<g clip-path="url(#clip0_35_6049)">
<path d="M51.2878 8.00401C49.9085 6.50983 47.7665 5.74707 44.8461 5.74707H38.4462C38.0126 5.74707 37.7148 5.84111 37.511 6.00829C37.3073 6.1598 37.208 6.42102 37.208 6.78673V22.8361C37.208 23.2018 37.3073 23.463 37.511 23.6302C37.7148 23.7817 38.0126 23.8757 38.4462 23.8757H44.8461C47.7665 23.8757 49.9085 23.113 51.2878 21.6188C52.667 20.1246 53.3566 17.852 53.3566 14.8166C53.3566 11.7813 52.667 9.50864 51.2878 8.01446V8.00401ZM47.2336 19.2051C46.7164 20.0463 45.8701 20.4694 44.6737 20.4694H43.1481C42.8033 20.4694 42.516 20.1821 42.516 19.8112V9.80643C42.516 9.44072 42.8033 9.14815 43.1481 9.14815H44.6737C45.8648 9.14815 46.7164 9.57656 47.2336 10.4281C47.7508 11.2849 48.0121 12.7321 48.0121 14.8062C48.0121 16.8803 47.7508 18.3431 47.2336 19.1999V19.2051Z" fill="white"/>
<path d="M79.0503 21.8386C78.8465 21.3527 78.6167 21.1072 78.345 21.1072C78.2301 21.1072 78.0838 21.1229 77.8852 21.1542C77.6972 21.2012 77.5404 21.2169 77.4412 21.2169C77.1382 21.2169 76.9396 21.1385 76.809 20.987C76.6941 20.8512 76.6366 20.6213 76.6366 20.3026V13.3646H77.8748C78.2353 13.3646 78.4913 13.2602 78.6532 13.0616C78.81 12.8474 78.8831 12.5287 78.8831 12.069V11.6249C78.8831 11.1808 78.81 10.8622 78.6532 10.648C78.4965 10.4338 78.2353 10.3449 77.8748 10.3449H76.6366V7.90514C76.6366 7.42972 76.2761 7.04834 75.832 7.04834H72.8698C72.4362 7.04834 72.0809 7.42972 72.0809 7.88947L72.0548 10.3449H71.2764C70.9159 10.3449 70.6599 10.439 70.5136 10.648C70.3569 10.8622 70.2681 11.1808 70.2681 11.6249V12.069C70.2681 12.5287 70.3569 12.8474 70.5136 13.0616C70.6599 13.2602 70.9159 13.3646 71.2764 13.3646H72.0078V20.2086C72.0078 21.5669 72.3683 22.5753 73.0997 23.244C73.8311 23.9023 74.5103 24.2366 75.8582 24.2366C76.6627 24.2366 77.4412 24.1321 78.2144 23.9179C78.9771 23.7037 79.3481 23.385 79.3481 22.941C79.3481 22.7111 79.2488 22.3454 79.0451 21.8438L79.0503 21.8386Z" fill="white"/>
<path d="M114.817 10.2769H112.042C111.64 10.2769 111.295 10.5955 111.238 11.0239L110.418 17.2149L110.261 18.6359C110.23 18.8501 110.219 19.08 110.188 19.336C110.156 19.5972 110.13 19.8375 110.089 20.0831H109.958C109.77 18.7874 109.597 17.8104 109.456 17.1365L108.176 10.9613C108.088 10.5642 107.758 10.2769 107.387 10.2769H104.31C103.934 10.2769 103.605 10.5642 103.521 10.9613L102.257 17.079C102.027 18.0873 101.855 19.0747 101.709 20.0831H101.578L101.233 17.2149L100.455 11.0239C100.397 10.5955 100.052 10.2769 99.6502 10.2769H96.7297C96.3274 10.2769 96.0244 10.6896 96.1394 11.118L99.3158 23.3222C99.4151 23.6722 99.7337 23.9178 100.079 23.9178H102.769C103.114 23.9178 103.433 23.6722 103.532 23.3222L105.444 16.567C105.486 16.4312 105.533 16.0916 105.575 15.5587C105.606 15.3445 105.648 15.0102 105.721 14.5818H105.852C105.893 14.7176 105.94 15.0415 105.982 15.5587C106.013 15.8043 106.055 16.1386 106.128 16.567L108.072 23.3222C108.171 23.6722 108.49 23.9178 108.835 23.9178H111.525C111.886 23.9178 112.189 23.6722 112.288 23.3065L115.423 11.0866C115.522 10.6739 115.235 10.2769 114.832 10.2769H114.817Z" fill="white"/>
<path d="M129.941 11.0394C129.293 10.4282 128.348 10.1252 127.109 10.1252C126.216 10.1252 125.412 10.2923 124.706 10.611C124.001 10.9454 123.4 11.3738 122.909 11.8753V5.209C122.909 4.73358 122.549 4.35742 122.089 4.35742H118.667C118.223 4.35742 117.862 4.7388 117.862 5.209V23.0242C117.862 23.5101 118.238 23.9071 118.683 23.9071H122.073C122.533 23.9071 122.909 23.5101 122.909 23.0242V14.1009C123.384 13.5524 123.928 13.2755 124.56 13.2755C125.02 13.2755 125.365 13.38 125.568 13.5942C125.772 13.8084 125.871 14.1427 125.871 14.6025V23.0242C125.871 23.5101 126.247 23.9071 126.692 23.9071H130.082C130.542 23.9071 130.918 23.5101 130.918 23.0242V13.7195C130.918 12.5441 130.589 11.6455 129.941 11.0342V11.0394Z" fill="white"/>
<path d="M154.083 4.36279H150.661C150.217 4.36279 149.841 4.74417 149.841 5.21437V23.0296C149.841 23.5154 150.217 23.9125 150.676 23.9125H154.067C154.527 23.9125 154.887 23.5154 154.887 23.0296V5.21437C154.887 4.73895 154.527 4.36279 154.083 4.36279Z" fill="white"/>
<path d="M170.697 18.2285C171.115 17.8315 171.099 17.2986 171.099 17.0844C171.099 14.8274 170.608 13.1034 169.621 11.9122C168.628 10.7211 167.045 10.1255 164.845 10.1255C162.646 10.1255 160.891 10.6584 159.668 11.7398C158.446 12.8213 157.845 14.6394 157.845 17.1837C157.845 19.4406 158.461 21.149 159.699 22.3245C160.922 23.4843 162.85 24.0642 165.451 24.0642C166.068 24.0642 166.805 24.0015 167.625 23.8657C168.445 23.7298 169.15 23.5156 169.751 23.2544C170.357 22.9775 170.671 22.6588 170.671 22.2461C170.671 22.0789 170.571 21.8334 170.383 21.5147C170.18 21.196 169.95 20.9191 169.678 20.6579C169.391 20.4123 169.129 20.2922 168.915 20.2922C168.826 20.2922 168.586 20.3549 168.21 20.5064C167.823 20.6579 167.431 20.7833 167.029 20.8878C166.627 20.9818 166.167 21.0393 165.676 21.0393C164.872 21.0393 164.224 20.8564 163.764 20.475C163.289 20.1093 163.033 19.4824 162.986 18.5995H169.385C169.845 18.5995 170.289 18.6151 170.692 18.2181L170.697 18.2285ZM162.792 16.306C162.881 15.0416 163.095 14.3834 163.409 13.8818C163.738 13.396 164.198 13.1347 164.804 13.1347C165.41 13.1347 165.88 13.4116 166.157 13.9289C166.428 14.4461 166.559 15.0887 166.559 16.306H162.792Z" fill="white"/>
<path d="M66.632 11.3167C65.5819 10.5225 63.884 10.1255 61.5591 10.1255C60.6814 10.1255 59.8194 10.2039 58.9835 10.3554C58.1371 10.5225 57.458 10.7211 56.9251 10.998C56.3922 11.2592 56.1362 11.5465 56.1362 11.8391C56.1362 12.0219 56.2355 12.2988 56.4392 12.6332C56.643 12.9676 56.8728 13.2601 57.1445 13.5161C57.4162 13.7773 57.6617 13.9132 57.8916 13.9132C58.0483 13.9132 58.2782 13.8348 58.5969 13.699C59.0723 13.5318 59.4903 13.396 59.8769 13.3019C60.253 13.2079 60.6971 13.1661 61.183 13.1661C61.9039 13.1661 62.4212 13.2863 62.7503 13.5631C63.0794 13.8244 63.2414 14.2319 63.2414 14.7857V15.1984C58.0065 15.1827 55.4048 16.7866 55.4048 20.0205C55.4048 21.2848 55.7914 22.2618 56.5959 22.9932C57.3848 23.7089 58.5237 24.0746 60.0023 24.0746C60.88 24.0746 61.627 23.9231 62.2592 23.6149C62.8913 23.2962 63.6384 22.5752 63.6384 22.5752V23.2335C63.6384 23.2335 63.6384 24.0746 64.443 24.0746H67.4209C67.8545 24.0746 68.2098 23.6933 68.2098 23.2335V14.6132C68.2098 13.2079 67.6926 12.1108 66.6268 11.3167H66.632ZM63.2414 20.4541C63.0533 20.7153 62.8234 20.9139 62.5204 21.0654C62.2017 21.2326 61.8726 21.3109 61.5278 21.3109C61.0106 21.3109 60.6083 21.1594 60.3053 20.8825C60.0179 20.5952 59.8716 20.2138 59.8716 19.7227C59.8716 18.1972 60.9949 17.4188 63.2362 17.4188V20.4541H63.2414Z" fill="white"/>
<path d="M92.3151 11.3167C91.265 10.5225 89.5671 10.1255 87.2422 10.1255C86.3645 10.1255 85.5025 10.2039 84.6666 10.3554C83.8202 10.5225 83.1411 10.7211 82.6082 10.998C82.0753 11.2592 81.8193 11.5465 81.8193 11.8391C81.8193 12.0219 81.9186 12.2988 82.1223 12.6332C82.3261 12.9676 82.5559 13.2601 82.8276 13.5161C83.0993 13.7773 83.3448 13.9132 83.5747 13.9132C83.7314 13.9132 83.9613 13.8348 84.28 13.699C84.7554 13.5318 85.1734 13.396 85.56 13.3019C85.9361 13.2079 86.3802 13.1661 86.8661 13.1661C87.587 13.1661 88.1043 13.2863 88.4334 13.5631C88.7625 13.8244 88.9245 14.2319 88.9245 14.7857V15.1984C83.6896 15.1827 81.0879 16.7866 81.0879 20.0205C81.0879 21.2848 81.4745 22.2618 82.2791 22.9932C83.0679 23.7089 84.2069 24.0746 85.6854 24.0746C86.5631 24.0746 87.3101 23.9231 87.9423 23.6149C88.5745 23.2962 89.3215 22.5752 89.3215 22.5752V23.2335C89.3215 23.2335 89.3215 24.0746 90.1261 24.0746H93.104C93.5376 24.0746 93.8929 23.6933 93.8929 23.2335V14.6132C93.8929 13.2079 93.3757 12.1108 92.3099 11.3167H92.3151ZM88.9193 20.4541C88.7312 20.7153 88.5013 20.9139 88.1983 21.0654C87.8796 21.2326 87.5505 21.3109 87.2057 21.3109C86.6884 21.3109 86.2862 21.1594 85.9832 20.8825C85.6958 20.5952 85.5495 20.2138 85.5495 19.7227C85.5495 18.1972 86.6728 17.4188 88.914 17.4188V20.4541H88.9193Z" fill="white"/>
<path d="M144.961 11.3167C143.911 10.5225 142.213 10.1255 139.888 10.1255C139.011 10.1255 138.148 10.2039 137.313 10.3554C136.466 10.5225 135.787 10.7211 135.254 10.998C134.721 11.2592 134.465 11.5465 134.465 11.8391C134.465 12.0219 134.565 12.2988 134.768 12.6332C134.972 12.9676 135.202 13.2601 135.474 13.5161C135.745 13.7773 135.991 13.9132 136.221 13.9132C136.377 13.9132 136.607 13.8348 136.926 13.699C137.401 13.5318 137.819 13.396 138.206 13.3019C138.582 13.2079 139.026 13.1661 139.512 13.1661C140.233 13.1661 140.75 13.2863 141.079 13.5631C141.409 13.8244 141.57 14.2319 141.57 14.7857V15.1984C136.336 15.1827 133.734 16.7866 133.734 20.0205C133.734 21.2848 134.12 22.2618 134.925 22.9932C135.714 23.7089 136.853 24.0746 138.331 24.0746C139.209 24.0746 139.956 23.9231 140.588 23.6149C141.22 23.2962 141.968 22.5752 141.968 22.5752V23.2335C141.968 23.2335 141.968 24.0746 142.772 24.0746H145.75C146.184 24.0746 146.539 23.6933 146.539 23.2335V14.6132C146.539 13.2079 146.022 12.1108 144.956 11.3167H144.961ZM141.565 20.4541C141.377 20.7153 141.147 20.9139 140.844 21.0654C140.526 21.2326 140.196 21.3109 139.852 21.3109C139.334 21.3109 138.932 21.1594 138.629 20.8825C138.342 20.5952 138.196 20.2138 138.196 19.7227C138.196 18.1972 139.319 17.4188 141.56 17.4188V20.4541H141.565Z" fill="white"/>
<path d="M27.287 12.7003C26.7124 9.62831 24.5286 6.57203 21.42 5.70478C19.952 5.29206 18.4421 5.04129 16.9532 5.29206C14.6388 5.68389 12.6065 6.52501 10.9608 8.23862C9.43527 9.83206 8.0926 12.3084 7.61718 14.4661C7.57538 14.649 7.52836 14.837 7.47089 15.0147C7.31938 15.4953 6.80217 15.8088 6.29018 15.6782C6.03941 15.6155 5.78341 15.464 5.60056 15.2811C5.49607 15.1766 5.50652 14.44 5.50652 14.2885C5.49084 13.4578 5.53786 12.8936 5.14603 12.1569C4.9893 11.8644 4.54523 11.4151 4.3258 11.2635C3.47423 12.298 3.37496 13.4578 3.45333 14.6855C2.02707 14.3982 0.501542 14.5601 0 15.0356C0.0365708 15.1139 0.553786 15.9969 1.44716 16.3469C2.24649 16.6604 3.0197 16.5611 3.86083 16.4461C4.43029 16.3678 4.72808 17.0522 5.06244 17.4127C5.56921 17.956 6.08643 18.4941 6.61932 19.0113C7.67987 20.0458 8.81356 21.0175 10.057 21.8325C12.8677 23.6558 16.3628 24.5022 19.6542 23.5879C21.3312 23.1229 22.9978 22.2609 24.3562 21.1951C25.8033 20.0667 27.0206 18.4523 27.3915 16.6133C27.6528 15.3334 27.5274 13.9802 27.2923 12.7055L27.287 12.7003ZM20.3438 15.9707C20.4796 15.7043 20.7618 15.5214 21.0805 15.5214C21.5402 15.5214 21.9111 15.8924 21.9111 16.3521C21.9111 16.8119 21.5402 17.1776 21.0805 17.1776C20.7513 17.1776 20.464 16.9843 20.3334 16.7021C20.255 16.6029 20.208 16.4879 20.208 16.3678C20.208 16.2267 20.2602 16.0857 20.3438 15.9707ZM24.6017 19.2934C24.4659 19.4502 24.3248 19.5965 24.1785 19.7427C22.9351 20.9548 21.3887 21.843 19.7169 22.3079C18.4317 22.6632 16.9897 22.8722 15.6575 22.7311C15.297 22.6945 14.1581 22.5378 14.0954 22.449C14.5395 22.402 14.9888 22.3758 15.4277 22.3027C15.5948 22.2766 15.762 22.2452 15.9292 22.2191C17.7212 21.9004 19.4609 21.3519 20.9446 20.2704C21.279 20.0301 21.5768 19.7532 21.885 19.4867C22.1619 19.2412 22.5119 19.1054 22.8672 19.0218C23.6038 18.8546 24.3196 18.6091 25.0406 18.4001C25.098 18.3844 25.145 18.3583 25.26 18.3113C25.0823 18.6665 24.8577 18.9957 24.5965 19.2987L24.6017 19.2934Z" fill="white"/>
<path d="M17.0995 4.7124C17.0995 4.7124 17.0733 4.57134 17.0786 4.54522C17.0838 3.78768 17.0786 3.03014 17.2458 2.28828C17.3346 1.91212 17.4861 1.57776 17.7003 1.25907C17.9563 0.872464 18.275 0.553775 18.672 0.318677C19.2519 -0.0313576 19.8632 -0.0836016 20.4953 0.146272C20.814 0.261209 20.9655 0.51198 20.9708 0.841117C20.976 1.25907 20.8454 1.61955 20.5528 1.93302C20.1871 2.33007 19.743 2.59129 19.2624 2.81594C18.6772 3.08761 18.1235 3.41152 17.6794 3.88172C17.5226 4.04367 17.4286 4.26832 17.3032 4.46163C17.2562 4.53477 17.251 4.72807 17.0942 4.71762L17.0995 4.7124Z" fill="white"/>
<path d="M16.2476 3.78198C16.2267 3.85512 16.1222 3.64092 16.0909 3.59913C15.7408 3.12893 15.2915 2.79979 14.7378 2.60649C14.6228 2.56469 14.5027 2.52812 14.3929 2.47588C14.1683 2.37662 14.0795 2.24601 14.1004 2.05793C14.1213 1.83328 14.231 1.66087 14.4504 1.58773C14.5392 1.56161 14.6333 1.54071 14.7221 1.53549C15.5057 1.49892 15.8871 1.76536 16.1901 2.56469C16.3155 2.90428 16.279 3.35358 16.2476 3.78198Z" fill="white"/>
</g>
<defs>
<clipPath id="clip0_35_6049">
<rect width="171.099" height="24.2308" fill="white"/>
</clipPath>
</defs>
</svg>
