<svg width="95" height="33" viewBox="0 0 95 33" fill="none" xmlns="http://www.w3.org/2000/svg">
<g clip-path="url(#clip0_35_6081)">
<path d="M36.7458 32.031H42.1362V28.1377L39.9864 28.9979V30.9619H38.8957V25.5081H39.9864V28.0167L42.1362 27.1565V24.439H36.7458V32.031Z" fill="white"/>
<path d="M43.2917 32.031H48.6807V24.439H43.2917V32.031ZM45.4401 25.5081H46.5309V30.9619H45.4401V25.5081Z" fill="white"/>
<path d="M69.4683 32.031H74.8903V28.1248L72.7088 28.9979V30.9619H71.6181V25.5081H72.7088V28.0167L74.8903 27.1435V24.439H69.4683V32.031Z" fill="white"/>
<path d="M75.4351 25.7804H77.3442V25.792H77.3558V32.031H79.4494V25.792H79.5257V25.7804H80.8571V24.439H75.8183L75.4351 25.7804Z" fill="white"/>
<path d="M82.0112 32.031H87.4016V24.439H82.0112V32.031ZM84.161 25.5081H85.2518V30.9619H84.161V25.5081Z" fill="white"/>
<path d="M53.0755 25.3323L51.9761 24.439H49.835V32.031H51.9761V26.8741V26.1407L55.2253 28.6867V27.0787V24.439H53.0755V25.3323Z" fill="white"/>
<path d="M53.0651 28.194V32.0311H55.225V29.462L53.0623 27.7344L53.0651 28.194Z" fill="white"/>
<path d="M59.6197 25.3323L58.5203 24.439H56.3792V32.031H58.5203V26.8741V26.1407L61.7695 28.6867V27.0787V24.439H59.6197V25.3323Z" fill="white"/>
<path d="M59.6095 28.194V32.0311H61.7694V29.462L59.6052 27.7344L59.6095 28.194Z" fill="white"/>
<path d="M62.9238 32.0311H68.3142V29.0109L66.1644 29.8712V30.9619H65.0736V29.7343L64.1875 29.6781L68.3142 28.0311V24.4404H62.9238V32.0325V32.0311ZM65.0736 25.5081H66.1644V27.7992L65.0736 28.2357V25.5081Z" fill="white"/>
<path d="M92.5484 28.5887L93.9778 28.0167V24.439H88.5571V28.0441L90.7055 27.2401V25.5081H91.7963V26.8323V27.7977L88.5571 29.1003V32.031H90.7055V29.6579L92.0426 32.031H94.5642L92.5484 28.5887Z" fill="white"/>
<path d="M94.3182 8.9397V1.78711H79.8992V4.61414V10.382V21.8587H94.3182V11.5347L88.5503 13.8416V19.0332H85.6671V4.61414H88.5503V11.2466L94.3182 8.9397Z" fill="white"/>
<path d="M54.032 9.93968H59.7134V7.64146V4.61414H62.5981V7.64146V10.5175V10.8085H60.7941H59.7134H54.032V21.8587H59.7134V18.4626V13.5534H63.6485L68.2795 9.48292V1.78711H54.032V9.93968Z" fill="white"/>
<path d="M76.7407 0H74.8574V1.78671H76.7407V0Z" fill="white"/>
<path d="M78.6237 1.78711H76.7405V3.57382H78.6237V1.78711Z" fill="white"/>
<path d="M74.8574 1.78711H71.333V4.99021V5.63573V6.52188V10.3964V21.8587H76.7407V10.3964V6.52188V5.63573V4.99021V3.57382H74.8574V1.78711Z" fill="white"/>
<path d="M42.4126 4.61414H42.5466H45.2958H50.9787V1.78711H36.7297V21.8587H50.9787V13.8748L45.2958 16.1485V19.0332H42.4126V15.7854L40.0683 15.6355L50.9787 11.2797V9.38493L50.9859 6.87346L42.4126 10.3633V4.61414Z" fill="white"/>
<path d="M30.743 16.853H23.7129V24.1238H30.743V16.853Z" fill="white"/>
<path d="M7.15835 16.2161C7.15835 11.6974 10.7707 8.02459 15.2648 7.92229L15.3268 7.92085H23.0039V1.39648L15.8599 1.40225C15.7259 1.39937 15.5919 1.39648 15.4565 1.39648C15.3729 1.39648 15.2893 1.40081 15.2057 1.40225H15.0069C14.9449 1.40225 14.8916 1.40657 14.8383 1.41089C6.5892 1.73654 0 8.52314 0 16.8529C0 25.1827 6.41485 31.7878 14.5098 32.2777V32.3094H23.7128V24.4594H14.5141C10.3744 23.9926 7.15691 20.4811 7.15691 16.2175L7.15835 16.2161Z" fill="white"/>
</g>
<defs>
<clipPath id="clip0_35_6081">
<rect width="94.5643" height="32.3077" fill="white"/>
</clipPath>
</defs>
</svg>
