<svg width="44" height="26" viewBox="0 0 44 26" fill="none" xmlns="http://www.w3.org/2000/svg">
<g clip-path="url(#clip0_296_7328)">
<path d="M3.20706 1.72419H6.56851C6.67311 1.72419 6.75746 1.63983 6.75746 1.53524V0.251389C6.75746 0.146792 6.67311 0.062439 6.56851 0.062439H0.605625C0.501028 0.062439 0.416675 0.146792 0.416675 0.251389V1.53524C0.416675 1.63983 0.501028 1.72419 0.605625 1.72419H1.12692C1.24586 1.72419 1.33528 1.833 1.3125 1.95025L0.00334765 8.5947C-0.016897 8.69761 0.0497416 8.79631 0.152652 8.81655L1.17669 9.01815C1.26526 9.03587 1.32937 9.11347 1.32937 9.20373V13.9233C1.32937 14.0279 1.41372 14.1122 1.51832 14.1122H1.97129C4.68239 14.1122 6.88061 11.914 6.88061 9.20289V3.88699C6.88061 3.78239 6.79626 3.69804 6.69166 3.69804H2.89327C2.77433 3.69804 2.68492 3.58922 2.70769 3.47197L3.02233 1.87602C3.04004 1.78745 3.11765 1.72334 3.2079 1.72334L3.20706 1.72419ZM3.18091 5.36147H5.02907C5.13367 5.36147 5.21802 5.44582 5.21802 5.55042V9.39268C5.21802 10.6968 4.39727 11.8128 3.24502 12.2514C3.12271 12.2978 2.99196 12.2042 2.99196 12.0734V5.55042C2.99196 5.44582 3.07631 5.36147 3.18091 5.36147Z" fill="#19D1BF"/>
<path d="M41.7747 12.205C38.4673 12.205 35.7857 9.52341 35.7857 6.21594V0.866301C35.7857 0.407423 35.4137 0.0354281 34.9548 0.0354281C34.496 0.0354281 34.124 0.407423 34.124 0.866301V6.40489C34.124 6.51961 34.1273 6.63349 34.1324 6.74736H34.124C34.124 9.94517 31.5225 12.5474 28.3239 12.5474H23.9839C23.8793 12.5474 23.795 12.4631 23.795 12.3585V11.7292C23.795 11.6246 23.8793 11.5403 23.9839 11.5403H27.5689C27.6735 11.5403 27.7579 11.4559 27.7579 11.3513V10.0675C27.7579 9.96288 27.6735 9.87853 27.5689 9.87853H23.9839C23.8793 9.87853 23.795 9.79418 23.795 9.68958V9.06031C23.795 8.95572 23.8793 8.87136 23.9839 8.87136H28.4234C28.528 8.87136 28.6124 8.78701 28.6124 8.68241V7.39857C28.6124 7.29397 28.528 7.20962 28.4234 7.20962H23.9839C23.8793 7.20962 23.795 7.12526 23.795 7.02067V5.93927C23.795 5.83467 23.8793 5.75032 23.9839 5.75032H26.2378C28.0084 5.75032 29.4441 4.31463 29.4441 2.54407V0.18895C29.4441 0.0843526 29.3597 0 29.2551 0H16.0219C15.9173 0 15.8329 0.0843526 15.8329 0.18895V5.55884C15.8329 5.66343 15.9173 5.74779 16.0219 5.74779H21.2931C21.3977 5.74779 21.482 5.83214 21.482 5.93674V7.01814C21.482 7.12273 21.3977 7.20709 21.2931 7.20709H18.4571C18.3298 7.20709 18.2395 7.08393 18.2766 6.96246L18.3003 6.88486C18.3306 6.78532 18.2741 6.67904 18.1746 6.64867L16.9464 6.27415C16.8469 6.24378 16.7406 6.3003 16.7102 6.39983L15.9013 9.05272C15.8709 9.15226 15.9274 9.25854 16.027 9.28891L17.2551 9.66343C17.3547 9.6938 17.4609 9.63728 17.4913 9.53775L17.6541 9.00295C17.6786 8.92366 17.752 8.86883 17.8346 8.86883H21.2931C21.3977 8.86883 21.482 8.95318 21.482 9.05778V9.68705C21.482 9.79165 21.3977 9.876 21.2931 9.876H17.7081C17.6035 9.876 17.5191 9.96035 17.5191 10.065V11.3488C17.5191 11.4534 17.6035 11.5377 17.7081 11.5377H21.2931C21.3977 11.5377 21.482 11.6221 21.482 11.7267V12.356C21.482 12.4606 21.3977 12.5449 21.2931 12.5449H11.9569C11.8523 12.5449 11.768 12.4606 11.768 12.356V10.7389C11.768 10.6343 11.8523 10.55 11.9569 10.55H13.5925C13.6971 10.55 13.7815 10.4656 13.7815 10.361V9.07718C13.7815 8.97258 13.6971 8.88823 13.5925 8.88823H11.9569C11.8523 8.88823 11.768 8.80388 11.768 8.69928V6.88739C11.768 6.78279 11.8523 6.69844 11.9569 6.69844H13.5925C13.6971 6.69844 13.7815 6.61409 13.7815 6.50949V5.22564C13.7815 5.12105 13.6971 5.03669 13.5925 5.03669H11.9569C11.8523 5.03669 11.768 4.95234 11.768 4.84774V3.49895C11.768 3.39435 11.8523 3.31 11.9569 3.31H13.5925C13.6971 3.31 13.7815 3.22564 13.7815 3.12105V1.8372C13.7815 1.7326 13.6971 1.64825 13.5925 1.64825H11.9569C11.8523 1.64825 11.768 1.5639 11.768 1.4593V0.224378C11.768 0.119781 11.6836 0.0354281 11.579 0.0354281H9.64399C9.53939 0.0354281 9.45504 0.119781 9.45504 0.224378V1.45761C9.45504 1.56221 9.37069 1.64656 9.26609 1.64656H7.6305C7.5259 1.64656 7.44155 1.73092 7.44155 1.83551V3.11936C7.44155 3.22396 7.5259 3.30831 7.6305 3.30831H9.26609C9.37069 3.30831 9.45504 3.39266 9.45504 3.49726V4.84606C9.45504 4.95065 9.37069 5.03501 9.26609 5.03501H7.6305C7.5259 5.03501 7.44155 5.11936 7.44155 5.22396V6.5078C7.44155 6.6124 7.5259 6.69675 7.6305 6.69675H9.26609C9.37069 6.69675 9.45504 6.7811 9.45504 6.8857V8.6976C9.45504 8.80219 9.37069 8.88655 9.26609 8.88655H7.6305C7.5259 8.88655 7.44155 8.9709 7.44155 9.07549V10.3593C7.44155 10.4639 7.5259 10.5483 7.6305 10.5483H9.26609C9.37069 10.5483 9.45504 10.6326 9.45504 10.7372V12.3543C9.45504 12.4589 9.37069 12.5432 9.26609 12.5432H7.3243C6.87385 12.5432 6.50861 12.9085 6.50861 13.3589V13.3901C6.50861 13.8406 6.87385 14.2058 7.3243 14.2058H28.3256C31.1573 14.2058 33.6263 12.62 34.8899 10.2902C34.959 10.162 35.1404 10.1577 35.2163 10.2817C36.528 12.4277 38.8932 13.8633 41.5875 13.8633H42.6132C43.0721 13.8633 43.4441 13.4914 43.4441 13.0325C43.4441 12.5736 43.0721 12.2016 42.6132 12.2016H41.7764L41.7747 12.205ZM27.7815 1.85154V1.85323C27.7815 1.95782 27.6971 2.04218 27.5925 2.04218H17.6845C17.5799 2.04218 17.4955 1.95782 17.4955 1.85323V1.85154C17.4955 1.74694 17.5799 1.66259 17.6845 1.66259H27.5925C27.6971 1.66259 27.7815 1.74694 27.7815 1.85154ZM17.6836 3.70561H26.4976C26.7372 3.70561 26.7558 4.06664 26.5162 4.08267C26.4867 4.08435 26.4563 4.08604 26.4259 4.08604H17.6828C17.5782 4.08604 17.4938 4.00169 17.4938 3.89709V3.8954C17.4938 3.79081 17.5782 3.70645 17.6828 3.70645L17.6836 3.70561Z" fill="white"/>
<path d="M25.8591 26.0001V18.3476H0.689991C0.322214 18.3476 0.0236053 18.049 0.0236053 17.6812C0.0236053 17.3134 0.322214 17.0148 0.689991 17.0148H27.1927V23.1945L34.776 17.0148H42.7735C43.1413 17.0148 43.4399 17.3134 43.4399 17.6812C43.4399 18.049 43.1413 18.3476 42.7735 18.3476H35.2509L25.86 26.0001H25.8591Z" fill="white"/>
</g>
<defs>
<clipPath id="clip0_296_7328">
<rect width="43.4424" height="26" fill="white"/>
</clipPath>
</defs>
</svg>
