<svg width="104" height="33" viewBox="0 0 104 33" fill="none" xmlns="http://www.w3.org/2000/svg">
<path d="M22.0801 16.875C22.0801 18.4044 20.8399 19.6444 19.3105 19.6445H7.63086V27.7617C7.63086 27.7617 7.29757 29.0892 6.81836 29.71C6.30095 30.3801 4.56226 31.0029 4.5459 31.0088L0 32.3076V16.2441C8.55535e-05 14.7148 1.24018 13.4746 2.76953 13.4746H14.4492V4.5459C14.4492 4.5459 15.018 3.0709 15.748 2.43555C16.4328 1.83963 17.5342 1.46094 17.5342 1.46094L22.0801 0V16.875ZM22.0791 20.9434C22.0753 20.9852 21.726 24.7976 19.9688 26.3008C17.6959 28.2448 14.6113 28.0869 14.6113 28.0869V22.7891C14.6114 21.7695 15.4385 20.9434 16.458 20.9434H22.0791ZM7.46777 5.51953V10.8174C7.46762 11.8368 6.64151 12.663 5.62207 12.6631H0C0.00270098 12.6331 0.350374 8.81121 2.11035 7.30566C4.37019 5.37264 7.43265 5.5178 7.46777 5.51953Z" fill="white"/>
<path d="M35.7129 15.1538H33.4846V10.4775H31.6329V15.1538H29.4046V3.98088H31.6329V8.46888H33.4846V3.98088H35.7129V15.1538ZM45.2337 15.1538H42.9112L42.5503 13.412H39.9768L39.6159 15.1538H37.2934L40.1651 3.98088H42.362L45.2337 15.1538ZM42.1266 11.4033L41.2636 7.26058L40.4005 11.4033H42.1266ZM52.7631 11.9683C52.716 13.0353 52.3394 13.9298 51.7588 14.479C51.1938 15.0126 50.5191 15.2793 49.5932 15.2793C48.3378 15.2793 47.6788 14.7772 47.1609 14.1652C46.2665 13.0981 46.3292 11.0895 46.3292 9.58304C46.3292 8.07658 46.2665 6.03658 47.1609 4.9695C47.6788 4.3575 48.3378 3.85534 49.5932 3.85534C50.5191 3.85534 51.1938 4.12211 51.7588 4.65565C52.3394 5.20488 52.7003 6.08365 52.7474 7.15073H50.5191C50.5034 6.83688 50.472 6.52304 50.3465 6.28765C50.2209 6.02088 50.0012 5.86396 49.5932 5.86396C49.1852 5.86396 48.9812 6.05227 48.8557 6.30335C48.5889 6.82119 48.5575 8.21781 48.5575 9.56735C48.5575 10.9169 48.5889 12.3135 48.8557 12.8313C48.9812 13.0824 49.1852 13.2707 49.5932 13.2707C50.0012 13.2707 50.2366 13.0981 50.3622 12.8313C50.4877 12.596 50.5191 12.2821 50.5348 11.9683H52.7631ZM61.6549 15.1538H59.2696L57.669 11.0738L56.9472 12.5803V15.1538H54.7189V3.98088H56.9472V8.78273L59.0656 3.98088H61.2939L59.0656 8.62581L61.6549 15.1538ZM70.3794 15.1538H68.0569L67.696 13.412H65.1225L64.7616 15.1538H62.4391L65.3108 3.98088H67.5077L70.3794 15.1538ZM67.2723 11.4033L66.4093 7.26058L65.5462 11.4033H67.2723ZM76.6214 5.9895H74.7383V15.1538H72.51V5.9895H70.6269V3.98088H76.6214V5.9895ZM84.7324 15.1538H82.504V10.4775H80.6524V15.1538H78.424V3.98088H80.6524V8.46888H82.504V3.98088H84.7324V15.1538ZM93.3116 9.56735C93.3116 11.0738 93.3744 13.0981 92.4799 14.1652C91.9621 14.7772 91.2716 15.2793 90.0163 15.2793C88.7609 15.2793 88.1018 14.7772 87.5839 14.1652C86.6895 13.0981 86.7523 11.0738 86.7523 9.56735C86.7523 8.06088 86.6895 6.03658 87.5839 4.9695C88.1018 4.3575 88.7609 3.85534 90.0163 3.85534C91.2716 3.85534 91.9621 4.3575 92.4799 4.9695C93.3744 6.03658 93.3116 8.06088 93.3116 9.56735ZM91.0833 9.56735C91.0833 8.21781 91.0519 6.82119 90.7852 6.30335C90.6596 6.05227 90.4243 5.86396 90.0163 5.86396C89.6083 5.86396 89.4043 6.05227 89.2787 6.30335C89.0119 6.82119 88.9806 8.21781 88.9806 9.56735C88.9806 10.9169 89.0119 12.3135 89.2787 12.8313C89.4043 13.0824 89.6083 13.2707 90.0163 13.2707C90.4243 13.2707 90.6596 13.0824 90.7852 12.8313C91.0519 12.3135 91.0833 10.9169 91.0833 9.56735ZM101.838 15.1538H99.9389L97.5694 9.69288V15.1538H95.3411V3.98088H97.2869L99.6094 9.44181V3.98088H101.838V15.1538ZM40.8129 17.9809L38.4747 29.1538H36.1523L34.7086 21.2449L33.2649 29.1538H30.9424L28.6043 17.9809H31.0523L32.1037 25.8741L33.4846 17.9809H35.9326L37.3135 25.8741L38.3649 17.9809H40.8129ZM47.5156 29.1538H42.3685V17.9809H47.5156V19.9895H44.5968V22.516H47.1076V24.5246H44.5968V27.1452H47.5156V29.1538ZM54.6562 29.1538H49.5091V17.9809H54.6562V19.9895H51.7374V22.516H54.2482V24.5246H51.7374V27.1452H54.6562V29.1538ZM63.5857 29.1538H61.2005L59.5999 25.0738L58.8781 26.5803V29.1538H56.6497V17.9809H58.8781V22.7827L60.9965 17.9809H63.2248L60.9965 22.6258L63.5857 29.1538ZM70.3166 29.1538H65.1696V17.9809H67.3979V27.1452H70.3166V29.1538ZM77.1531 17.9809L74.8777 24.9483V29.1538H72.6494V24.9483L70.374 17.9809H72.822L73.7636 22.0295L74.7051 17.9809H77.1531Z" fill="white"/>
</svg>
