<svg width="149" height="35" viewBox="0 0 149 35" fill="none" xmlns="http://www.w3.org/2000/svg">
<g clip-path="url(#clip0_35_5962)">
<path d="M92.1471 22.6365C91.0341 20.9815 90.162 19.2017 89.5576 17.346L89.4661 17.0672H95.8741V14.6427H89.3591V8.66967L89.5531 8.65182C91.6586 8.4667 93.4853 8.17452 94.9842 7.78196L94.2392 5.4668C92.8407 5.81697 91.3687 6.06232 89.8654 6.2006C88.3554 6.33889 86.6491 6.41918 84.7934 6.43703H82.0812V8.83472H84.7912C85.2373 8.83472 85.893 8.81911 86.7383 8.78788L86.9591 8.77896V14.6427H80.7764V5.7969H71.6407V14.7364H75.4547V24.8691L74.0384 25.1636V17.5378H71.6407V25.6587L70.7998 25.8327L71.286 28.1813L80.7452 26.2208L80.259 23.8721L77.8524 24.3695V20.1407H80.9839V17.743H77.8524V14.7342H80.9995V17.0627H86.7696L86.7182 17.317C86.1116 20.3191 84.2715 23.406 81.2404 26.5107L81.2493 26.5486L81.1935 26.5598C80.8077 26.9546 80.4017 27.3494 79.9779 27.7441L81.5482 29.5909C84.6261 26.7405 86.8097 23.8543 88.0431 21.0172L88.2305 20.589L88.4312 21.0105C89.93 24.1532 92.0712 26.8542 94.7968 29.0378L96.2845 27.1352C94.7031 25.884 93.3113 24.3695 92.1448 22.632L92.1471 22.6365ZM78.3676 12.2852H74.0562V8.19682H78.3676V12.2852Z" fill="white"/>
<path d="M112.551 24.4432H121.089V22.0187H112.551V19.9801H121.629V17.5556H112.551V15.6866H119.711C119.731 15.6866 119.749 15.6843 119.775 15.6799H120.94V5.58057H101.602V6.60879C101.593 6.68016 101.586 6.72031 101.586 6.76491V14.5C101.586 14.5424 101.591 14.5825 101.6 14.6271V15.6776H102.829V15.6843H110.127V17.5534H103.264L103.433 16.7928H100.949L99.4341 23.5889H101.919L102.724 19.9779H110.127V22.0165H104.334L103.799 24.4409H110.127V27.1085H99.7151V29.5062H122.96V27.1085H112.549V24.4409L112.551 24.4432ZM104.033 7.97826H118.486V9.43472H104.033V7.97826ZM104.033 13.2599V11.8324H118.486V13.2599H104.033Z" fill="white"/>
<path d="M54.2525 20.4237C54.2525 21.7508 53.9714 23.0846 53.4205 24.3916C52.8696 25.6964 52.1157 26.8896 51.179 27.9379L52.8317 29.5349C53.9714 28.248 54.8792 26.8093 55.5283 25.2592C56.1818 23.7046 56.5119 22.0764 56.5119 20.4237V14.4707H54.2525V20.4237Z" fill="white"/>
<path d="M64.1825 14.4707H61.9231V29.3163H64.1825V14.4707Z" fill="white"/>
<path d="M49.6267 14.6246L49.5798 14.5488L51.382 7.22859C51.4177 7.08362 51.4378 6.9721 51.4378 6.89626C51.4378 6.642 51.3441 6.40111 51.1612 6.1803C50.9002 5.86581 50.5947 5.71191 50.2244 5.71191H43.1072V29.5952H45.5316V8.13637H48.7077L47.1018 14.4797C47.0795 14.5488 47.0706 14.6425 47.0706 14.7696C47.0706 15.0306 47.1465 15.2781 47.3026 15.5302C47.6416 15.974 47.9962 16.6231 48.3464 17.4416C48.6966 18.2624 48.8728 19.0698 48.8728 19.8438C48.8728 20.1561 48.8282 20.4795 48.7367 20.8051C48.3643 21.9203 47.3851 22.779 45.8238 23.3678L46.6513 25.6005C48.9799 24.7552 50.4608 23.3678 51.0497 21.4742C51.2147 20.9255 51.2972 20.3568 51.2972 19.7858C51.2972 18.1732 50.7352 16.4357 49.6244 14.6224L49.6267 14.6246Z" fill="white"/>
<path d="M64.3874 9.90732C63.3926 8.62929 62.3533 7.1483 61.2938 5.50449C61.1912 5.30152 61.0552 5.15877 60.8834 5.05841C60.7072 4.95804 60.5176 4.90674 60.3191 4.90674H58.1556C57.7296 4.90674 57.404 5.08071 57.1609 5.43535C56.1505 7.01448 55.1156 8.46871 54.0851 9.75565C53.0547 11.0426 51.9194 12.2359 50.7061 13.2998L52.138 15.0908C53.4249 14.0403 54.6784 12.7511 55.8605 11.2567C57.0159 9.79803 57.9794 8.46424 58.7244 7.29105L58.7868 7.19291H59.6545L59.7169 7.28882C62.0812 10.8619 64.2603 13.4871 66.1918 15.093L67.6505 13.302C66.4751 12.3273 65.3755 11.1853 64.3829 9.90955L64.3874 9.90732Z" fill="white"/>
<path d="M148.068 10.5718H130.321V12.9962H148.068V10.5718Z" fill="white"/>
<path d="M126.105 5.58057L126.099 29.4638H128.523V7.97826H148.068V5.58057H126.105Z" fill="white"/>
<path d="M130.321 17.7383H131.561V29.4636L132.281 29.4658L132.288 29.4792H136.271L142.711 24.8667L146.119 29.4792L148.068 28.0383L144.682 23.4548L148.068 21.0326L146.656 19.0609L143.241 21.5055L141.27 22.9173L135.491 27.057H133.958V17.7383H148.068V15.3384H130.321V17.7383Z" fill="white"/>
<path d="M5.14121 2.76562H3.73828V18.1443H5.14121V2.76562Z" fill="white"/>
<path d="M18.74 34.4999H25.5673V20.4996H34.4689V19.1279H18.74V34.4999Z" fill="white"/>
<path d="M29.9923 4.89355H8.07409L8.06963 22.9911H0V29.64H14.9527V11.5112H29.9923V4.89355Z" fill="white"/>
<path d="M33.1484 0H31.7633V1.38285H30.3804H28.9976V2.76571H30.3804H31.7633V4.14857V5.53142H33.1484V4.14857V2.76571H34.5312V1.38285H33.1484V0Z" fill="white"/>
</g>
<defs>
<clipPath id="clip0_35_5962">
<rect width="148.068" height="34.5" fill="white"/>
</clipPath>
</defs>
</svg>
