<svg width="125" height="38" viewBox="0 0 125 38" fill="none" xmlns="http://www.w3.org/2000/svg">
<path fill-rule="evenodd" clip-rule="evenodd" d="M45.3062 20.382H46.8872C49.7529 20.382 52.2726 18.9508 52.2726 15.743C52.2726 12.3872 49.8023 11.3015 46.7884 11.3015H41.9959V24.9223H45.2568V20.382H45.3062ZM45.3062 13.8677H46.6402C48.2212 13.8677 49.1106 14.3612 49.1106 15.6937C49.1106 17.0262 48.32 17.7664 46.739 17.7664H45.3062V13.8677ZM60.1778 24.9223V20.1352L64.2786 11.3508H60.8695L59.7331 14.3612C59.3378 15.3976 58.992 16.3352 58.5967 17.3716H58.5473C58.1521 16.3352 57.8062 15.3482 57.4604 14.3612L56.324 11.3508H52.8655L56.9663 20.1352V24.9223H60.1778ZM75.8398 23.1456L74.1106 21.1223C73.4683 21.8132 72.5789 22.356 71.492 22.356C69.5651 22.356 68.3299 20.7768 68.3299 18.0625C68.3299 15.3976 69.7627 13.8184 71.5414 13.8184C72.5295 13.8184 73.2212 14.2625 73.9129 14.8547L75.6422 12.782C74.7035 11.8443 73.2706 11.0054 71.492 11.0054C68.0335 11.0054 65.0197 13.621 65.0197 18.1119C65.0197 22.7015 67.9347 25.1197 71.3932 25.1197C73.1718 25.169 74.654 24.4781 75.8398 23.1456ZM81.077 19.2963H85.573V24.8729H88.7845V11.3015H85.573V16.4833H81.077V11.3015H77.8161V24.9223H81.077V19.2963ZM95.158 11.3015H91.8971V24.9223H95.158V11.3015ZM105.978 15.7924C105.978 17.421 106.225 19.395 106.423 20.8262H106.324L104.99 17.8158L101.63 11.3015H98.3201V24.9223H101.433V20.382C101.433 18.7534 101.136 16.8781 100.988 15.3482H101.087L102.421 18.3093L105.781 24.8729H109.091V11.3015H105.978V15.7924ZM118.626 11.3015H114.723L110.524 24.9223H113.834L114.624 21.8132H118.626L119.417 24.9223H122.875L118.626 11.3015ZM115.217 19.2469L115.514 18.1119C115.86 16.7794 116.205 15.1508 116.551 13.7197H116.601C116.947 15.1015 117.292 16.73 117.688 18.1119L117.984 19.2469H115.217ZM43.4782 29.4625H41.9465V34.7924H42.6382V32.6703H43.5276C44.7133 32.6703 45.5038 32.1275 45.5038 31.0417C45.4544 29.9067 44.6639 29.4625 43.4782 29.4625ZM43.4287 32.1768H42.6382V30.0547H43.3793C44.3181 30.0547 44.8121 30.3015 44.8121 31.0911C44.8121 31.8313 44.3675 32.1768 43.4287 32.1768ZM48.1718 33.0651C48.073 33.4106 47.9248 33.8054 47.826 34.1508H47.7766C47.6283 33.8054 47.5295 33.4106 47.3813 33.0651L46.5908 30.8443H45.9485L47.5295 34.7924L47.4307 35.1378C47.2825 35.6313 46.9861 35.9768 46.5414 35.9768C46.4426 35.9768 46.3438 35.9275 46.245 35.9275L46.0967 36.4703C46.245 36.5197 46.3932 36.569 46.5414 36.569C47.3319 36.569 47.7272 35.9768 48.0236 35.1872L49.5058 30.8937H48.8635L48.1718 33.0651ZM51.6797 34.3976C51.2351 34.3976 51.0868 34.1015 51.0868 33.6573V31.4365H52.1738V30.8937H51.0868V29.808H50.5434L50.4446 30.8937L49.8023 30.943V31.4365H50.3951V33.608C50.3951 34.3976 50.6916 34.9404 51.5315 34.9404C51.7786 34.9404 52.0256 34.8911 52.2726 34.7924L52.1244 34.2989C52.0256 34.3482 51.828 34.3976 51.6797 34.3976ZM54.99 30.7456C54.4465 30.7456 54.0513 31.0417 53.7054 31.3872V30.5482V28.969H53.0631V34.743H53.7054V31.8807C54.1007 31.4859 54.3971 31.2885 54.7924 31.2885C55.3359 31.2885 55.5335 31.5846 55.5335 32.3249V34.743H56.1758V32.2262C56.2252 31.2885 55.8299 30.7456 54.99 30.7456ZM58.992 30.7456C58.0038 30.7456 57.1639 31.4859 57.1639 32.8184C57.1639 34.1508 58.0533 34.8911 58.992 34.8911C59.9307 34.8911 60.82 34.1508 60.82 32.8184C60.82 31.5352 59.9801 30.7456 58.992 30.7456ZM58.992 34.3482C58.3003 34.3482 57.8556 33.756 57.8556 32.8184C57.8556 31.93 58.3003 31.2885 58.992 31.2885C59.6837 31.2885 60.1283 31.93 60.1283 32.8184C60.1778 33.756 59.6837 34.3482 58.992 34.3482ZM63.8339 30.7456C63.2904 30.7456 62.8951 31.0417 62.4999 31.4365L62.4505 30.8443H61.907V34.7924H62.5493V31.93C62.9446 31.5352 63.241 31.3378 63.6363 31.3378C64.1797 31.3378 64.3774 31.6339 64.3774 32.3742V34.7924H65.0197V32.2755C65.0691 31.2885 64.6738 30.7456 63.8339 30.7456ZM71.1955 28.7223H70.6521V30.0054H68.0335V33.4599H68.577V33.0158H70.6521V35.3846H71.1955V33.0158H73.2706V33.4106H73.8141V30.0054H71.1955V28.7223ZM70.6521 32.4729H68.577V30.5482H70.6521V32.4729ZM73.32 30.5482V32.4729H71.245V30.5482H73.32ZM79.2489 32.2755L78.9031 32.4729C79.1501 32.7197 79.4465 33.0651 79.5948 33.3119L79.99 33.1145C79.8418 32.8677 79.5453 32.5223 79.2489 32.2755ZM75.2469 35.3846H75.7904V35.0391H80.6323V35.3846H81.1758V29.0677H75.1975V35.3846H75.2469ZM75.7904 29.5612H80.6323V34.4963H75.7904V29.5612ZM78.4584 32.1768H79.8912V31.7326H78.4584V30.6963H80.0888V30.2028H76.3833V30.6963H77.9643V31.7326H76.5809V32.1768H77.9643V33.4106H76.2845V33.8547H80.237V33.4106H78.4584V32.1768ZM83.745 29.956L84.1896 29.7093C84.0414 29.4625 83.745 29.0677 83.4979 28.7716L83.1027 29.0184C83.3497 29.2651 83.6461 29.6599 83.745 29.956ZM87.154 31.5352H88.6857V30.9924H87.154V28.7223H86.6106V30.9924H85.0295V31.5352H86.6106V34.5456H84.6837V35.0885H88.8339V34.5456H87.154V31.5352ZM83.992 31.6833C84.3872 31.2391 84.6837 30.6963 84.8813 30.1534L84.5849 29.956H84.4861H82.3121V30.4495H84.239C83.7944 31.3378 82.9544 32.2262 82.1145 32.7197C82.2133 32.8184 82.3121 33.1145 82.3616 33.2625C82.7074 33.0651 83.0532 32.769 83.3497 32.4236V35.3846H83.8932V32.2755C84.1896 32.5716 84.4861 32.9664 84.6343 33.1638L84.9801 32.7197C84.8319 32.5716 84.2884 31.9794 83.992 31.6833ZM90.4643 29.6599H95.8991V29.1664H89.9208V35.1872H96.0967V34.6937H90.4643V29.6599ZM91.2548 34.1508C91.9465 33.7067 92.5888 33.1638 93.2311 32.5223C93.8734 33.1145 94.4169 33.7067 94.8121 34.1508L95.2568 33.756C94.8616 33.3119 94.2687 32.7197 93.6264 32.1274C94.1699 31.5352 94.6145 30.8937 95.0098 30.2028L94.5157 30.0054C94.1699 30.5976 93.7252 31.2391 93.2311 31.782C92.6382 31.2391 92.0453 30.7456 91.5019 30.3015L91.1066 30.5976C91.6501 31.0417 92.2924 31.5846 92.8853 32.1768C92.2924 32.8184 91.6007 33.3612 90.8596 33.756C90.9584 33.8054 91.156 34.0521 91.2548 34.1508Z" fill="white"/>
<path fill-rule="evenodd" clip-rule="evenodd" d="M27.8657 11.0054L21.591 17.3223L10.8696 28.0807C10.8696 32.8184 14.7234 36.6677 19.4665 36.6677C24.1107 36.6677 27.9151 32.9664 28.0633 28.3274L15.7115 28.3768L22.0356 22.208C22.0356 22.208 27.2728 27.4391 28.0633 28.13C32.7076 28.0313 36.4625 24.2313 36.4625 19.543C36.4625 14.8547 32.6088 11.0054 27.8657 11.0054ZM20.8993 30.4002C21.7392 29.5612 23.1226 29.5612 23.9625 30.4002C24.8024 31.2391 24.8024 32.5716 23.9625 33.4106C23.1226 34.2495 21.7392 34.2495 20.8993 33.4106C20.0594 32.5716 20.0594 31.2391 20.8993 30.4002ZM27.8657 22.5534L24.9012 19.6417L27.8657 16.73C29.4961 16.73 30.7807 18.0625 30.7807 19.6417C30.7807 21.2703 29.4467 22.5534 27.8657 22.5534Z" fill="white"/>
<path fill-rule="evenodd" clip-rule="evenodd" d="M18.33 1.33252C13.6858 1.33252 9.88141 5.03382 9.73319 9.67278L22.085 9.62343L15.7609 15.7923C15.7609 15.7923 10.5237 10.5611 9.73319 9.87018C5.08893 9.96888 1.33398 13.7689 1.33398 18.4572C1.33398 23.1949 5.18774 27.0442 9.93082 27.0442L16.1561 20.7273L26.8775 9.96888C26.9269 5.18187 23.1225 1.33252 18.33 1.33252ZM16.8972 7.60005C16.0573 8.43901 14.6739 8.43901 13.834 7.60005C12.9941 6.76109 12.9941 5.42862 13.834 4.58966C14.6739 3.7507 16.0573 3.7507 16.8972 4.58966C17.7371 5.37927 17.7371 6.76109 16.8972 7.60005ZM9.98023 21.2702C8.34979 21.2702 7.06521 19.9377 7.06521 18.3585C7.06521 16.7793 8.34979 15.4468 9.98023 15.4468L12.9447 18.3585L9.98023 21.2702Z" fill="white"/>
</svg>
