<svg width="167" height="46" viewBox="0 0 167 46" fill="none" xmlns="http://www.w3.org/2000/svg">
<mask id="mask0_35_5977" style="mask-type:luminance" maskUnits="userSpaceOnUse" x="0" y="0" width="167" height="46">
<path d="M166.52 0H0V46H166.52V0Z" fill="white"/>
</mask>
<g mask="url(#mask0_35_5977)">
<path d="M57.1644 7.69824H35.112C33.893 7.69824 32.9086 8.68724 32.9086 9.90164V16.5164C32.9086 17.7354 31.9242 18.7198 30.7052 18.7198H10.8516C9.63259 18.7198 8.64819 19.7088 8.64819 20.9232V29.746C8.64819 30.965 9.63719 31.9494 10.8516 31.9494H32.904C34.123 31.9494 35.1074 30.9604 35.1074 29.746V23.1312C35.1074 21.9122 36.0918 20.9278 37.3108 20.9278H57.1598C58.3788 20.9278 59.3632 19.9388 59.3632 18.7244V9.90164C59.3632 8.68264 58.3742 7.69824 57.1598 7.69824H57.1644Z" fill="white"/>
<path d="M115.998 36.416C115.998 34.921 112.451 36.163 112.451 33.6606C112.451 32.345 113.629 31.7378 114.682 31.7378C115.464 31.7378 116.127 31.9816 116.752 32.5014L116.269 33.3156C115.791 32.8602 115.28 32.6532 114.682 32.6532C114.14 32.6532 113.496 32.9522 113.496 33.6238C113.496 35.1188 117.042 33.8768 117.042 36.3792C117.042 37.7224 115.837 38.302 114.71 38.302C113.758 38.302 112.87 37.9478 112.286 37.2026L112.792 36.3424C113.371 37.0692 113.988 37.3866 114.705 37.3866C115.313 37.3866 115.993 37.106 115.993 36.416H115.998Z" fill="white"/>
<path d="M118.33 31.6094C118.666 31.6094 118.919 31.8532 118.919 32.1982C118.919 32.5432 118.666 32.787 118.33 32.787C117.994 32.787 117.741 32.5432 117.741 32.1982C117.741 31.8532 117.994 31.6094 118.33 31.6094ZM117.833 33.661H118.832V38.1966H117.833V33.661Z" fill="white"/>
<path d="M119.885 31.8438H120.883V38.1918H119.885V31.8438Z" fill="white"/>
<path d="M122.443 31.6094C122.779 31.6094 123.032 31.8532 123.032 32.1982C123.032 32.5432 122.779 32.787 122.443 32.787C122.107 32.787 121.854 32.5432 121.854 32.1982C121.854 31.8532 122.107 31.6094 122.443 31.6094ZM121.941 33.661H122.94V38.1966H121.941V33.661Z" fill="white"/>
<path d="M123.73 35.929C123.73 34.549 124.756 33.5508 126.159 33.5508C126.941 33.5508 127.617 33.8866 128.036 34.3926L127.291 34.9998C127.047 34.6916 126.638 34.4754 126.155 34.4754C125.331 34.4754 124.719 35.0734 124.719 35.929C124.719 36.7846 125.327 37.3826 126.155 37.3826C126.638 37.3826 127.042 37.1664 127.291 36.8582L128.036 37.4654C127.617 37.9714 126.937 38.3072 126.159 38.3072C124.752 38.3072 123.73 37.309 123.73 35.929Z" fill="white"/>
<path d="M130.759 33.5508C132.139 33.5508 133.192 34.5582 133.192 35.929C133.192 37.2998 132.139 38.3072 130.759 38.3072C129.379 38.3072 128.33 37.2998 128.33 35.929C128.33 34.5582 129.383 33.5508 130.759 33.5508ZM130.759 34.4754C129.926 34.4754 129.324 35.1102 129.324 35.929C129.324 36.7478 129.922 37.3826 130.759 37.3826C131.596 37.3826 132.194 36.7478 132.194 35.929C132.194 35.1102 131.596 34.4754 130.759 34.4754Z" fill="white"/>
<path d="M134.964 35.7542V38.1922H133.966V33.6566H134.964V34.3742C135.226 33.8314 135.806 33.5508 136.408 33.5508C137.434 33.5508 138.212 34.2592 138.212 35.5932V38.1968H137.213V35.63C137.213 34.894 136.776 34.4938 136.142 34.4938C135.461 34.4938 134.964 34.9492 134.964 35.7542Z" fill="white"/>
<path d="M140.314 38.1961H139.27V31.8481H143.304V32.8003H140.309V34.6127H142.977V35.5465H140.309V38.1961H140.314Z" fill="white"/>
<path d="M143.929 31.8438H144.927V38.1918H143.929V31.8438Z" fill="white"/>
<path d="M148.124 33.5508C149.504 33.5508 150.558 34.5582 150.558 35.929C150.558 37.2998 149.504 38.3072 148.124 38.3072C146.744 38.3072 145.696 37.2998 145.696 35.929C145.696 34.5582 146.749 33.5508 148.124 33.5508ZM148.124 34.4754C147.292 34.4754 146.689 35.1102 146.689 35.929C146.689 36.7478 147.287 37.3826 148.124 37.3826C148.962 37.3826 149.56 36.7478 149.56 35.929C149.56 35.1102 148.962 34.4754 148.124 34.4754Z" fill="white"/>
<path d="M156.8 33.6616H157.775L156.538 38.1972H155.213L154.344 34.8208L153.415 38.1972H152.09L150.898 33.6616H151.897L152.784 37.2818L153.769 33.6616H154.91L155.857 37.2818L156.796 33.6616H156.8Z" fill="white"/>
<path d="M112.373 24.332C112.184 24.2538 107.754 22.3402 105.684 19.7366H99.4975C97.4321 22.3402 92.9977 24.2492 92.8091 24.332L92.7309 24.3642L91.8799 22.3678L91.9581 22.3356C92.0639 22.2896 94.5203 21.2224 96.4017 19.7366H92.5193V17.8644H96.6317V11.0748H93.7199V9.244H96.6317V7.7168H98.9087V9.244H106.241V7.7168H108.518V9.244H111.379V11.0748H108.518V17.8644H112.58V19.7366H108.78C110.335 20.9602 112.341 21.963 113.21 22.3356L113.288 22.3678L112.437 24.3642L112.359 24.332H112.373ZM106.246 17.8644V16.7926H98.9133V17.8644H106.246ZM106.246 15.063V13.9912H98.9133V15.063H106.246ZM106.246 12.2662V11.0794H98.9133V12.2662H106.246Z" fill="white"/>
<path d="M93.1079 27.2624V25.4086H101.508V23.8768H96.9535V22.0736H101.508V20.436H103.739V22.0736H108.228V23.8768H103.739V25.4086H112.074V27.2624H93.1079Z" fill="white"/>
<path d="M71.4605 27.2621C70.9775 27.2621 70.5819 26.8665 70.5819 26.3835V19.9665C70.2599 20.5415 69.9287 21.1027 69.5883 21.6455L69.5423 21.7145L67.6333 20.4863L67.6793 20.4173C70.1449 16.4981 71.2489 13.0251 71.6951 11.2449H69.2571V9.07373H76.8379V11.2449H74.0135C73.8341 12.0683 73.4155 13.6967 72.5691 15.8081H75.4901C75.9731 15.8081 76.3687 16.2037 76.3687 16.6867V26.3835C76.3687 26.8665 75.9731 27.2621 75.4901 27.2621H71.4605ZM74.2021 25.0909V18.0805H72.8681V25.0909H74.2021Z" fill="white"/>
<path d="M77.2244 17.1882V14.8928H81.898V12.4686H77.9834V10.2974H81.898V7.7168H84.221V10.2974H88.1356V12.4686H84.221V14.8928H88.8946V17.1882H77.2244Z" fill="white"/>
<path d="M77.2244 27.2624V24.967H81.898V22.2254H77.9834V20.0542H81.898V17.791H84.221V20.0542H88.1356V22.2254H84.221V24.967H88.8946V27.2624H77.2244Z" fill="white"/>
<path d="M146.937 9.39551H139.37V11.5759H146.937V9.39551Z" fill="white"/>
<path d="M146.656 26.5768L146.716 26.517C149.637 23.5592 150.672 18.099 150.672 14.3178V13.6232H148.174V11.3462H150.672V7.7168H152.949V11.3416H156.992C157.475 11.3416 157.871 11.7372 157.871 12.2202V24.355C157.871 26.08 156.468 27.483 154.743 27.483H152.811L152.08 25.3118H154.637C155.166 25.3118 155.599 24.8794 155.599 24.3504V13.6232H152.958V14.3178C152.958 18.7338 151.748 24.677 148.344 28.1178L148.285 28.1776L146.661 26.5768H146.656Z" fill="white"/>
<path d="M139.628 25.1691C139.145 25.1691 138.75 24.7735 138.75 24.2905V23.2693C138.75 23.1175 138.786 22.9749 138.86 22.8415C139.545 21.5995 140.617 19.1109 141.27 17.2433H138.432V15.0537H147.83V17.2433H143.676C143.161 18.8717 142.204 21.2499 141.358 22.9841H145.415L144.343 20.0585H146.731L147.775 22.9059C147.812 23.0025 147.83 23.1037 147.83 23.2095V24.2951C147.83 24.5297 147.738 24.7505 147.572 24.9161C147.407 25.0817 147.186 25.1737 146.951 25.1737H139.624L139.628 25.1691Z" fill="white"/>
<path d="M116.366 9.53303L117.889 7.79883L121.081 10.568L119.558 12.3022L116.366 9.53303Z" fill="white"/>
<path d="M115.376 14.5111L116.876 12.7861L120.418 15.8083L118.918 17.5333L115.376 14.5111Z" fill="white"/>
<path d="M115.381 27.0282L115.423 26.9546C115.423 26.9546 116.651 24.8064 118.486 19.1392L118.514 19.061L120.768 19.7602L120.74 19.8384C118.813 25.7908 117.539 27.9896 117.484 28.0816L117.442 28.1506L115.381 27.0236V27.0282Z" fill="white"/>
<path d="M119.944 26.4984L120.009 26.4478C122.47 24.594 122.888 22.5102 122.888 18.5496V18.4668H125.06V18.5496C125.06 22.9656 124.462 25.8084 121.315 28.182L121.251 28.2326L119.944 26.4984Z" fill="white"/>
<path d="M128.96 18.4668H126.789V27.4966H128.96V18.4668Z" fill="white"/>
<path d="M134.085 27.4836C132.36 27.4836 130.957 26.0806 130.957 24.3556V18.4722H133.128V24.3556C133.128 24.8846 133.561 25.317 134.09 25.317H136.725V27.4882H134.09L134.085 27.4836Z" fill="white"/>
<path d="M123.114 17.5516C122.631 17.5516 122.235 17.156 122.235 16.673V15.8128C122.235 15.5782 122.327 15.362 122.493 15.1918C122.631 15.0492 122.773 14.9066 122.916 14.7548C123.804 13.8164 124.604 12.8504 125.184 12.0132H121.232V9.865H127.217V7.7168H129.6V9.8696H135.584V12.0178H127.806C127.313 12.9608 126.449 14.1568 125.349 15.4034H131.904C131.38 14.5432 130.924 13.6922 130.579 12.9378L130.524 12.8228H133.008L133.031 12.8688C133.385 13.591 134.144 14.7824 134.457 15.2608C134.549 15.4034 134.595 15.569 134.595 15.7346V16.6776C134.595 17.1606 134.2 17.5562 133.717 17.5562H123.123L123.114 17.5516Z" fill="white"/>
</g>
</svg>
