<svg width="162" height="33" viewBox="0 0 162 33" fill="none" xmlns="http://www.w3.org/2000/svg">
<mask id="mask0_35_6066" style="mask-type:luminance" maskUnits="userSpaceOnUse" x="0" y="0" width="33" height="33">
<path d="M27.1385 0H5.16923C2.31434 0 0 2.31434 0 5.16923V27.1385C0 29.9933 2.31434 32.3077 5.16923 32.3077H27.1385C29.9933 32.3077 32.3077 29.9933 32.3077 27.1385V5.16923C32.3077 2.31434 29.9933 0 27.1385 0Z" fill="white"/>
</mask>
<g mask="url(#mask0_35_6066)">
<path d="M27.1385 0H5.16923C2.31434 0 0 2.31434 0 5.16923V27.1385C0 29.9933 2.31434 32.3077 5.16923 32.3077H27.1385C29.9933 32.3077 32.3077 29.9933 32.3077 27.1385V5.16923C32.3077 2.31434 29.9933 0 27.1385 0Z" fill="#ECEDEA"/>
<path fill-rule="evenodd" clip-rule="evenodd" d="M33.2768 62.0306C49.1573 62.0306 62.0306 49.1571 62.0306 33.2768C62.0306 17.3965 49.1573 4.52295 33.2768 4.52295C17.3965 4.52295 4.52295 17.3965 4.52295 33.2768C4.52295 49.1571 17.3965 62.0306 33.2768 62.0306ZM33.2768 59.1553C47.5691 59.1553 59.1553 47.5691 59.1553 33.2768C59.1553 18.9845 47.5691 7.39834 33.2768 7.39834C18.9845 7.39834 7.39833 18.9845 7.39833 33.2768C7.39833 47.5691 18.9845 59.1553 33.2768 59.1553Z" fill="#FC4A55"/>
<path fill-rule="evenodd" clip-rule="evenodd" d="M33.2769 59.1552C47.5692 59.1552 59.1554 47.5692 59.1554 33.2769C59.1554 18.9846 47.5692 7.39844 33.2769 7.39844C18.9846 7.39844 7.39844 18.9846 7.39844 33.2769C7.39844 47.5692 18.9846 59.1552 33.2769 59.1552ZM33.2769 56.2799C45.9809 56.2799 56.28 45.9812 56.28 33.2769C56.28 20.5727 45.9809 10.2738 33.2769 10.2738C20.5726 10.2738 10.2738 20.5727 10.2738 33.2769C10.2738 45.9812 20.5726 56.2799 33.2769 56.2799Z" fill="#FFB045"/>
<path fill-rule="evenodd" clip-rule="evenodd" d="M33.2768 56.2801C45.9809 56.2801 56.2799 45.9813 56.2799 33.277C56.2799 20.5728 45.9809 10.2739 33.2768 10.2739C20.5725 10.2739 10.2737 20.5728 10.2737 33.277C10.2737 45.9813 20.5725 56.2801 33.2768 56.2801ZM33.2768 53.4048C44.393 53.4048 53.4045 44.3932 53.4045 33.277C53.4045 22.1608 44.393 13.1493 33.2768 13.1493C22.1605 13.1493 13.1491 22.1608 13.1491 33.277C13.1491 44.3932 22.1605 53.4048 33.2768 53.4048Z" fill="#FFFA6D"/>
<path fill-rule="evenodd" clip-rule="evenodd" d="M33.277 50.5292C42.8052 50.5292 50.5293 42.805 50.5293 33.2767C50.5293 23.7485 42.8052 16.0244 33.277 16.0244C23.7488 16.0244 16.0247 23.7485 16.0247 33.2767C16.0247 42.805 23.7488 50.5292 33.277 50.5292ZM33.277 47.6536C41.2172 47.6536 47.6539 41.2169 47.6539 33.2767C47.6539 25.3366 41.2172 18.8998 33.277 18.8998C25.3368 18.8998 18.9 25.3366 18.9 33.2767C18.9 41.2169 25.3368 47.6536 33.277 47.6536Z" fill="#3BA9FE"/>
<path fill-rule="evenodd" clip-rule="evenodd" d="M33.2768 47.6537C41.217 47.6537 47.6537 41.217 47.6537 33.2768C47.6537 25.3367 41.217 18.8999 33.2768 18.8999C25.3367 18.8999 18.8999 25.3367 18.8999 33.2768C18.8999 41.217 25.3367 47.6537 33.2768 47.6537ZM33.2768 44.7784C39.629 44.7784 44.7784 39.629 44.7784 33.2768C44.7784 26.9247 39.629 21.7753 33.2768 21.7753C26.9247 21.7753 21.7753 26.9247 21.7753 33.2768C21.7753 39.629 26.9247 44.7784 33.2768 44.7784Z" fill="#965DED"/>
<path fill-rule="evenodd" clip-rule="evenodd" d="M33.2771 53.4047C44.3933 53.4047 53.4047 44.3933 53.4047 33.2771C53.4047 22.1609 44.3933 13.1494 33.2771 13.1494C22.1609 13.1494 13.1494 22.1609 13.1494 33.2771C13.1494 44.3933 22.1609 53.4047 33.2771 53.4047ZM33.2771 50.5294C42.8053 50.5294 50.5293 42.8053 50.5293 33.2771C50.5293 23.7489 42.8053 16.0248 33.2771 16.0248C23.7489 16.0248 16.0248 23.7489 16.0248 33.2771C16.0248 42.8053 23.7489 50.5294 33.2771 50.5294Z" fill="#30FD2F"/>
<path d="M6.60072 4.10574C6.65958 3.92895 6.90964 3.92895 6.96851 4.10574L7.5419 5.82741C7.55974 5.88091 7.59993 5.92401 7.65207 5.94547L9.25621 6.60499C9.4164 6.67084 9.4164 6.8977 9.25621 6.96355L7.65207 7.62307C7.59993 7.64453 7.55974 7.68763 7.5419 7.74113L6.96851 9.4628C6.90964 9.63959 6.65958 9.63959 6.60072 9.4628L6.02732 7.74113C6.00948 7.68763 5.96929 7.64453 5.91715 7.62307L4.31301 6.96355C4.15283 6.8977 4.15283 6.67084 4.31301 6.60499L5.91715 5.94547C5.96929 5.92401 6.00948 5.88091 6.02732 5.82741L6.60072 4.10574Z" fill="white"/>
<path d="M3.36849 13.2007C3.42471 13.0184 3.68278 13.0184 3.739 13.2007L3.96405 13.9306C3.98059 13.9841 4.01943 14.0279 4.0706 14.0507L4.77013 14.3613C4.92372 14.4295 4.92372 14.6474 4.77013 14.7156L4.0706 15.0262C4.01943 15.0489 3.98059 15.0927 3.96405 15.1462L3.739 15.8762C3.68278 16.0585 3.42471 16.0585 3.36849 15.8762L3.14344 15.1462C3.1269 15.0927 3.08806 15.0489 3.03689 15.0262L2.33736 14.7156C2.18377 14.6474 2.18377 14.4295 2.33736 14.3613L3.03689 14.0507C3.08806 14.0279 3.1269 13.9841 3.14344 13.9306L3.36849 13.2007Z" fill="white"/>
</g>
<path d="M44.4362 26.8382L43.1165 9.09937H46.6575L47.4342 22.8763H47.5893L52.4296 10.9397H56.3582L57.54 22.8763H57.6951L62.6304 9.09937H66.1197L59.2976 26.8382H55.033L53.7658 14.9527H53.6108L48.6748 26.8382H44.4362ZM72.8461 12.7801C77.4209 12.7801 78.6447 14.4414 78.2305 17.202L76.7851 26.8382H73.9162L73.8451 25.0746C72.967 26.2759 71.1383 27.0938 68.8897 27.0938C65.7106 27.0938 64.315 25.7135 64.733 22.9275C65.2202 19.6813 67.4346 18.5311 71.053 18.5311H74.8007L74.8925 17.9177C75.138 16.2818 74.6922 15.4639 72.1076 15.4639C71.0996 15.4639 70.1019 15.5661 69.0668 15.7451L69.4771 13.0101C70.5639 12.8312 71.8381 12.7801 72.8461 12.7801ZM69.963 24.5889C71.9273 24.5889 73.4122 23.8221 74.1869 22.6208L74.4596 20.806H71.1513C69.1094 20.806 68.199 21.1894 67.9534 22.8252C67.7732 24.0266 68.3347 24.5889 69.963 24.5889ZM79.6249 31.9503L80.0391 29.1897C82.417 29.1897 83.4405 28.3974 84.2029 26.7615L80.7563 13.0357H84.3231L86.4108 23.4131H86.5659L91.5342 13.0357H94.9459L88.2433 25.8413C85.9262 30.2633 84.2514 31.9503 79.6249 31.9503ZM103.312 15.5917H100.236L99.2396 22.2374C98.9708 24.0266 99.1905 24.4611 100.638 24.4611C101.129 24.4611 101.52 24.4355 101.923 24.3333L101.544 26.8638C100.989 26.9405 100.387 26.9916 99.7927 26.9916C96.4585 26.9916 95.426 26.1225 95.97 22.493L97.0052 15.5917H95.0667L95.4505 13.0357H97.389L97.8794 9.76394H101.11L100.62 13.0357H103.695L103.312 15.5917ZM110.054 27.0938C105.815 27.0938 103.593 25.5346 104.433 19.9369C105.273 14.3392 107.961 12.7801 112.2 12.7801C116.465 12.7801 118.687 14.3392 117.847 19.9369C117.008 25.5346 114.318 27.0938 110.054 27.0938ZM110.425 24.6144C113.01 24.6144 113.976 23.5154 114.513 19.9369C115.05 16.3585 114.391 15.2338 111.832 15.2338C109.274 15.2338 108.304 16.3585 107.767 19.9369C107.231 23.5154 107.918 24.6144 110.425 24.6144ZM132.608 26.8382L131.659 22.1351H124.164L121.752 26.8382H118.263L127.643 9.09937H132.192L136.2 26.8382H132.608ZM125.593 19.3235H131.072L129.598 12.09H129.288L125.593 19.3235ZM146.202 27.0938C140.774 27.0938 137.77 25.4068 138.886 17.9688C139.914 11.1187 143.615 8.84375 149.12 8.84375C150.748 8.84375 152.834 9.07385 153.78 9.4828L153.335 12.4478C152.09 11.9622 150.573 11.7321 148.919 11.7321C145.275 11.7321 143.267 13.0612 142.531 17.9688C141.752 23.1575 143.19 24.2566 146.886 24.2566C147.687 24.2566 148.492 24.2311 149.165 24.0521L149.824 19.6558H146.594L147.016 16.8442H153.425L152.003 26.327C150.598 26.7359 148.451 27.0938 146.202 27.0938ZM155.892 26.8382L158.553 9.09937H161.938L159.278 26.8382H155.892Z" fill="white"/>
</svg>
