<svg width="150" height="39" viewBox="0 0 150 39" fill="none" xmlns="http://www.w3.org/2000/svg">
<path d="M19.143 0C22.192 6.34639e-05 24.0117 3.39708 22.3227 5.9354L20.7691 8.26937L21.1182 8.79399C21.452 9.29535 21.6655 9.61457 21.8415 9.84389C22.0139 10.0686 22.0799 10.1104 22.0822 10.1119C22.3234 10.2666 22.6261 10.2905 22.8886 10.1754C22.8914 10.1741 22.9631 10.1428 23.1681 9.94818C23.3777 9.74891 23.6384 9.46692 24.0462 9.02394L28.5431 4.13683C29.0495 3.58666 29.906 3.55117 30.4563 4.0575C31.0065 4.56388 31.0418 5.42052 30.5356 5.97075L26.0388 10.8576C25.6563 11.2731 25.3242 11.6353 25.0324 11.9122C24.7365 12.1931 24.3982 12.4702 23.976 12.6553C22.884 13.1341 21.6249 13.0353 20.6211 12.392C20.2329 12.1432 19.9418 11.8168 19.6932 11.4931C19.524 11.2725 19.3423 11.0087 19.1428 10.7114C18.9429 11.0091 18.7611 11.2733 18.5917 11.4942C18.3431 11.8178 18.052 12.1442 17.6639 12.393C16.6605 13.0359 15.4024 13.1351 14.3106 12.6572C13.8884 12.4721 13.5499 12.1954 13.2537 11.9145C12.962 11.6378 12.6295 11.2756 12.247 10.8602L7.54221 5.75246C7.03576 5.20239 7.07109 4.3458 7.62111 3.83919C8.17113 3.33258 9.02768 3.36767 9.53434 3.91771L14.2387 9.02584C14.6468 9.46882 14.9074 9.75081 15.1173 9.94966C15.3201 10.142 15.3925 10.1745 15.3969 10.1764C15.6592 10.2913 15.9618 10.2674 16.2029 10.113C16.2067 10.1107 16.2731 10.0673 16.4437 9.84537C16.6197 9.61584 16.8329 9.29641 17.1665 8.79504L17.5164 8.2691L15.9632 5.9354C14.2742 3.39705 16.094 0 19.143 0ZM19.143 2.70824C18.2558 2.70824 17.7263 3.69648 18.2177 4.43503L19.1428 5.82531L20.0681 4.43503C20.5595 3.69648 20.03 2.7083 19.143 2.70824Z" fill="white"/>
<path d="M18.9354 38.078C15.8863 38.078 14.0666 34.681 15.7556 32.1427L17.3092 29.8087L16.9601 29.2841C16.6263 28.7827 16.4129 28.4635 16.2369 28.2341C16.0645 28.0095 15.9985 27.9676 15.9961 27.9661C15.755 27.8115 15.4522 27.7876 15.1897 27.9027C15.187 27.9039 15.1152 27.9352 14.9103 28.1299C14.7006 28.3291 14.44 28.6111 14.0321 29.0541L9.53529 33.9412C9.02885 34.4915 8.1723 34.5268 7.62206 34.0206C7.07183 33.5141 7.0365 32.6576 7.54273 32.1074L12.0396 27.2204C12.422 26.8049 12.7542 26.4428 13.0459 26.1659C13.3419 25.8849 13.6801 25.6078 14.1024 25.4227C15.1944 24.944 16.4535 25.0428 17.4573 25.6861C17.8455 25.9348 18.1366 26.2613 18.3851 26.5849C18.5544 26.8056 18.7361 27.0694 18.9356 27.3666C19.1355 27.0689 19.3172 26.8047 19.4866 26.5839C19.7352 26.2602 20.0263 25.9338 20.4145 25.685C21.4179 25.0421 22.6759 24.9429 23.7677 25.4208C24.19 25.6059 24.5284 25.8826 24.8246 26.1635C25.1163 26.4402 25.4489 26.8024 25.8313 27.2179L30.5361 32.3257C31.0426 32.8757 31.0073 33.7322 30.4572 34.2389C29.9072 34.7455 29.0507 34.7104 28.544 34.1604L23.8396 29.0522C23.4316 28.6092 23.1709 28.3272 22.9611 28.1284C22.7582 27.9361 22.6859 27.9035 22.6814 27.9016C22.4191 27.7867 22.1166 27.8106 21.8754 27.9651C21.8716 27.9674 21.8052 28.0108 21.6347 28.2327C21.4587 28.4622 21.2454 28.7816 20.9118 29.283L20.5619 29.8089L22.1151 32.1427C23.8041 34.681 21.9844 38.078 18.9354 38.078ZM18.9354 35.3698C19.8226 35.3698 20.3521 34.3815 19.8607 33.643L18.9356 32.2527L18.0103 33.643C17.5188 34.3815 18.0483 35.3698 18.9354 35.3698Z" fill="white"/>
<path d="M38.0783 19.1433C38.0783 22.1923 34.6813 24.012 32.1429 22.323L29.8089 20.7694L29.2843 21.1185C28.7829 21.4523 28.4637 21.6658 28.2344 21.8418C28.0097 22.0142 27.9678 22.0802 27.9664 22.0825C27.8117 22.3237 27.7878 22.6264 27.9029 22.8889C27.9042 22.8917 27.9355 22.9634 28.1301 23.1684C28.3294 23.378 28.6114 23.6386 29.0543 24.0465L33.9415 28.5433C34.4917 29.0498 34.5271 29.9063 34.0208 30.4566C33.5144 31.0068 32.6578 31.0421 32.1076 30.5359L27.2207 26.0391C26.8052 25.6566 26.443 25.3245 26.1661 25.0327C25.8852 24.7368 25.608 24.3985 25.4229 23.9763C24.9442 22.8843 25.043 21.6251 25.6863 20.6214C25.9351 20.2332 26.2615 19.9421 26.5852 19.6935C26.8058 19.5243 27.0696 19.3426 27.3668 19.1431C27.0692 18.9432 26.805 18.7614 26.5841 18.592C26.2605 18.3434 25.934 18.0523 25.6853 17.6641C25.0424 16.6608 24.9432 15.4027 25.421 14.3109C25.6061 13.8887 25.8828 13.5502 26.1638 13.254C26.4405 12.9623 26.8026 12.6298 27.2181 12.2473L32.3259 7.54258C32.8759 7.03597 33.7325 7.07132 34.2391 7.62138C34.7458 8.17142 34.7107 9.02797 34.1607 9.53463L29.0524 14.239C28.6095 14.6471 28.3275 14.9077 28.1286 15.1175C27.9363 15.3204 27.9037 15.3928 27.9018 15.3972C27.787 15.6595 27.8107 15.962 27.9653 16.2032C27.9676 16.207 28.011 16.2734 28.2329 16.4439C28.4624 16.62 28.7819 16.8332 29.2832 17.1668L29.8091 17.5167L32.1429 15.9635C34.6813 14.2745 38.0783 16.0943 38.0783 19.1433ZM35.3701 19.1433C35.3701 18.2561 34.3817 17.7266 33.6432 18.218L32.2529 19.1431L33.6432 20.0684C34.3817 20.5598 35.3701 20.0303 35.3701 19.1433Z" fill="white"/>
<path d="M0 18.9349C6.34639e-05 15.8859 3.39701 14.0662 5.93536 15.7551L8.26935 17.3087L8.79399 16.9597C9.29535 16.6259 9.61458 16.4124 9.84389 16.2364C10.0686 16.064 10.1104 15.998 10.1119 15.9957C10.2666 15.7545 10.2905 15.4518 10.1754 15.1893C10.1741 15.1865 10.1428 15.1148 9.94818 14.9098C9.74891 14.7002 9.46691 14.4395 9.02394 14.0317L4.13679 9.53483C3.58656 9.02839 3.55123 8.17186 4.05746 7.6216C4.5639 7.07141 5.42045 7.03594 5.97069 7.54227L10.8576 12.0391C11.2731 12.4216 11.6353 12.7537 11.9122 13.0454C12.1931 13.3414 12.4702 13.6797 12.6553 14.1019C13.1341 15.1939 13.0353 16.453 12.392 17.4568C12.1432 17.845 11.8168 18.1361 11.4931 18.3847C11.2725 18.5539 11.0087 18.7356 10.7114 18.9351C11.0091 19.135 11.2733 19.3167 11.4942 19.4862C11.8178 19.7347 12.1442 20.0258 12.393 20.414C13.0359 21.4174 13.1351 22.6755 12.6572 23.7672C12.4721 24.1895 12.1954 24.528 11.9145 24.8241C11.6378 25.1159 11.2756 25.4484 10.8602 25.8309L5.75237 30.5357C5.20235 31.0421 4.3458 31.0068 3.83915 30.4568C3.33249 29.9068 3.36761 29.0502 3.91763 28.5435L9.02584 23.8392C9.46882 23.4311 9.75081 23.1705 9.94966 22.9606C10.142 22.7577 10.1745 22.6854 10.1764 22.681C10.2913 22.4186 10.2674 22.1161 10.113 21.875C10.1106 21.8712 10.0673 21.8047 9.84537 21.6342C9.61584 21.4582 9.29641 21.245 8.79504 20.9114L8.26914 20.5615L5.93536 22.1146C3.39701 23.8036 0 21.9839 0 18.9349ZM2.70822 18.9349C2.70822 19.8221 3.69656 20.3516 4.43507 19.8602L5.82535 18.9351L4.43507 18.0098C3.69656 17.5184 2.70822 18.0479 2.70822 18.9349Z" fill="white"/>
<path fill-rule="evenodd" clip-rule="evenodd" d="M64.2589 13.9004C66.1516 13.9004 67.7729 14.5551 69.1357 15.8335L69.2668 15.9592L69.2683 15.9609C70.633 17.3236 71.3317 19.013 71.3317 20.9121C71.3317 22.8376 70.6328 24.5008 69.2683 25.8633L69.2668 25.865C67.8772 27.2261 66.2125 27.9238 64.2589 27.9238C62.3065 27.9238 60.6146 27.227 59.249 25.8633C57.8571 24.4991 57.186 22.8346 57.186 20.9121C57.186 19.016 57.8566 17.3255 59.249 15.9609C60.6146 14.5972 62.3065 13.9004 64.2589 13.9004ZM64.2589 16.426C62.9792 16.426 61.9274 16.8644 61.0148 17.7501L61.015 17.7503C60.1282 18.6361 59.6891 19.6858 59.6891 20.9121C59.6891 22.1636 60.1278 23.1879 61.015 24.0741C61.9251 24.9829 62.9752 25.3982 64.2589 25.3982C65.5411 25.3982 66.5656 24.9837 67.4765 24.0741C68.3639 23.1879 68.8025 22.1636 68.8025 20.9121C68.8025 19.6606 68.3639 18.6365 67.4765 17.7503C66.563 16.8637 65.5368 16.426 64.2589 16.426Z" fill="white"/>
<path d="M76.491 23.5215C76.491 24.1165 76.6554 24.5411 76.9892 24.8747C77.3548 25.2396 77.7573 25.3979 78.2923 25.3979C79.8652 25.3979 81.3352 24.6867 82.7067 23.2687V16.8391H81.2935C80.8823 16.8391 80.5252 16.7581 80.254 16.4949C79.9963 16.2694 79.8351 15.9453 79.8351 15.5633C79.8351 15.2037 79.9989 14.8806 80.254 14.6577C80.5146 14.43 80.8605 14.3135 81.2935 14.3135H85.2359V24.9587H85.5107C85.9277 24.9587 86.2805 25.0416 86.55 25.2771L86.556 25.2824L86.5619 25.2881C86.8039 25.5299 86.9691 25.847 86.9693 26.2085C86.9693 26.558 86.839 26.8838 86.5515 27.1389L86.55 27.1402C86.2805 27.3756 85.9277 27.4586 85.5107 27.4586H82.7067V26.5275C81.3515 27.4552 79.8829 27.9235 78.3442 27.9235C77.0535 27.9235 76.0265 27.5463 75.2975 26.7903L75.2956 26.7882C74.4286 25.8681 73.962 24.7764 73.962 23.5215V16.8391H73.1177C72.7066 16.8391 72.3496 16.7581 72.0784 16.4952L72.0297 16.4499C71.7945 16.2187 71.6853 15.9068 71.6853 15.5633C71.6853 15.2096 71.8182 14.9168 72.0665 14.6687L72.0724 14.6629L72.0784 14.6577C72.339 14.43 72.6846 14.3135 73.1177 14.3135H76.491V23.5215Z" fill="white"/>
<path fill-rule="evenodd" clip-rule="evenodd" d="M112.613 13.9004C114.158 13.9004 115.43 14.2994 116.358 15.0734L116.447 15.1494L116.448 15.15C117.394 15.9869 117.9 16.9792 117.9 18.07V24.959H118.719C119.159 24.959 119.513 25.0409 119.784 25.2774L119.79 25.2826L119.796 25.2884C120.049 25.5414 120.177 25.8617 120.177 26.2088C120.177 26.5528 120.051 26.8817 119.784 27.1149C119.512 27.3789 119.153 27.4588 118.719 27.4588H115.346V26.4853C113.894 27.4269 112.346 27.9238 110.724 27.9238C109.208 27.9238 107.953 27.5248 107.043 26.6981C106.111 25.8758 105.669 24.8278 105.669 23.6508C105.669 22.3269 106.28 21.1503 107.441 20.2074L107.441 20.2072C108.885 19.0369 111.11 18.6014 114.111 18.9399C114.501 18.9621 114.922 19.0188 115.346 19.0951V18.07C115.346 17.6712 115.163 17.3228 114.741 16.9951L114.733 16.9892C114.306 16.6304 113.574 16.426 112.561 16.426C111.747 16.426 110.561 16.6744 109.016 17.1887L109.012 17.1902L109.007 17.1914C108.571 17.3196 108.384 17.3562 108.241 17.3562C107.911 17.3562 107.612 17.2221 107.385 16.9636C107.162 16.7341 107.041 16.4172 107.041 16.0804C107.041 15.6725 107.201 15.4062 107.37 15.2374C107.552 15.0565 107.873 14.8631 109.212 14.5031L109.213 14.5025C110.689 14.1147 111.803 13.9004 112.613 13.9004ZM112.458 21.3352C110.937 21.3352 109.755 21.6641 108.959 22.2654L108.959 22.2658C108.405 22.6986 108.173 23.1253 108.173 23.6508C108.173 24.1141 108.368 24.5162 108.763 24.8646C109.14 25.197 109.77 25.3982 110.672 25.3982C111.545 25.3982 112.388 25.2238 113.129 24.8794C113.832 24.5403 114.586 24.0347 115.346 23.3142V21.6201C114.997 21.541 114.632 21.4799 114.266 21.4369L114.263 21.4365C113.682 21.3608 113.098 21.3352 112.458 21.3352Z" fill="white"/>
<path fill-rule="evenodd" clip-rule="evenodd" d="M142.887 13.9004C144.913 13.9004 146.659 14.5941 147.976 15.9365C149.32 17.305 149.987 19.049 149.96 21.1736V21.852H138.459C138.693 22.7399 139.136 23.4824 139.791 24.0844L139.94 24.2154L139.942 24.2171C140.85 25.0013 141.956 25.3982 143.353 25.3982C144.128 25.3982 144.958 25.2731 145.817 25.0214C146.682 24.7415 147.374 24.4172 147.884 24.0051L147.886 24.003L147.889 24.0009C148.193 23.7692 148.513 23.6514 148.825 23.6641C149.138 23.6766 149.413 23.8181 149.631 24.0481C149.859 24.2761 149.986 24.597 149.986 24.9169C149.986 25.1437 149.92 25.5223 149.579 25.8633C149.051 26.3905 148.211 26.8703 147.005 27.2896L147.005 27.2898C145.815 27.7123 144.597 27.9238 143.353 27.9238C141.198 27.9238 139.403 27.2041 137.959 25.7891L137.825 25.6577C136.469 24.2894 135.789 22.5933 135.789 20.6538C135.789 18.8055 136.462 17.1918 137.83 15.8798C139.196 14.5685 140.887 13.9004 142.887 13.9004ZM142.887 16.426C141.698 16.426 140.717 16.7704 139.857 17.4582L139.856 17.4586C139.232 17.9526 138.798 18.5787 138.535 19.3263H147.239C146.973 18.5885 146.52 17.9769 145.89 17.4559C145.056 16.7707 144.077 16.426 142.887 16.426Z" fill="white"/>
<path d="M47.7446 10.1538C48.1778 10.1538 48.5235 10.2704 48.7839 10.4978C49.0507 10.7309 49.1774 11.0596 49.1774 11.4036C49.1774 11.77 49.053 12.1002 48.7839 12.3353C48.5521 12.5381 48.2523 12.652 47.8836 12.6746L50.8727 17.1636L53.795 12.674C53.4337 12.6488 53.1191 12.5365 52.889 12.3353C52.6199 12.1002 52.4955 11.77 52.4955 11.4036C52.4955 11.0596 52.6222 10.7309 52.889 10.4978C53.1524 10.2676 53.5259 10.1538 53.9541 10.1538H57.0846C57.5178 10.1538 57.8635 10.2702 58.1239 10.4978C58.3818 10.7233 58.5432 11.0474 58.5432 11.4296C58.5432 11.7893 58.379 12.1125 58.1239 12.3353C57.8635 12.5629 57.5178 12.6795 57.0846 12.6795H56.7766L52.1528 19.795V24.9331H54.4199C54.8109 24.9331 55.1453 25.0061 55.4077 25.2091L55.4593 25.2515L55.4605 25.2525C55.748 25.5076 55.8781 25.8334 55.8781 26.1829C55.8781 26.5303 55.7501 26.8507 55.4969 27.1038L55.491 27.1093L55.4851 27.1148C55.2217 27.3449 54.8481 27.4587 54.4199 27.4587H47.3308C46.8976 27.4587 46.5519 27.3424 46.2915 27.1148L46.2854 27.1093L46.2796 27.1038C46.0374 26.8617 45.8722 26.5446 45.8722 26.1829C45.8722 25.8279 46.0319 25.5087 46.2813 25.2861C46.5335 25.0099 46.9041 24.9331 47.3308 24.9331H49.6236V19.7961L44.8978 12.6795H44.5883C44.1551 12.6795 43.8094 12.5629 43.549 12.3353C43.2799 12.1002 43.1555 11.77 43.1555 11.4036C43.1555 11.0596 43.2822 10.7309 43.549 10.4978C43.8094 10.2702 44.1551 10.1538 44.5883 10.1538H47.7446Z" fill="white"/>
<path d="M93.656 10.1538C94.1125 10.1538 94.4593 10.2689 94.7212 10.4978C94.9902 10.733 95.1144 11.0632 95.1144 11.4296C95.1144 11.7736 94.9879 12.1024 94.7212 12.3353C94.4593 12.5642 94.1125 12.6795 93.656 12.6795H91.7542L92.7988 21.869L95.0757 13.6934H96.4761V13.7736H96.5278V13.6934H97.8749L100.225 21.9101L101.25 12.6795H99.3219C98.8888 12.6795 98.5432 12.5629 98.2825 12.3353C98.016 12.1024 97.8895 11.7736 97.8895 11.4296C97.8895 11.0632 98.0137 10.733 98.2825 10.4978C98.5432 10.2702 98.8888 10.1538 99.3219 10.1538H103.565C103.998 10.1538 104.344 10.2702 104.604 10.4978C104.86 10.7208 105.024 11.0438 105.024 11.4036C105.024 11.7857 104.862 12.11 104.604 12.3353C104.384 12.5282 104.102 12.6407 103.758 12.6708L102.153 27.4329H99.2167L96.5036 17.9749L93.8399 27.4329H90.9044L89.1953 12.6685C88.8624 12.635 88.5886 12.5236 88.3733 12.3353C88.1067 12.1024 87.9802 11.7736 87.9802 11.4296C87.9802 11.0632 88.1044 10.733 88.3733 10.4978C88.6339 10.2702 88.9798 10.1538 89.413 10.1538H93.656Z" fill="white"/>
<path d="M132.234 14.0038C132.977 14.0298 133.669 14.2763 134.305 14.7349L134.431 14.8294L134.434 14.8313L134.436 14.8337C134.804 15.1353 135.08 15.4019 135.266 15.6513C135.453 15.9028 135.56 16.1529 135.56 16.416C135.56 16.7615 135.433 17.0761 135.215 17.3248L135.21 17.331L135.204 17.3367C134.821 17.7192 134.191 17.8169 133.734 17.5889L133.72 17.5819L133.708 17.5736C133.615 17.5116 133.501 17.4245 133.214 17.1639L133.206 17.1569L133.199 17.1493C132.872 16.7975 132.668 16.6731 132.588 16.6409L132.572 16.6346L132.558 16.6263C132.424 16.5502 132.288 16.529 132.16 16.529C131.81 16.529 131.337 16.6847 130.701 17.0407C130.091 17.3818 128.974 18.2692 127.384 19.6775V24.9329H131.773C132.159 24.9329 132.518 25.004 132.786 25.2083L132.838 25.2513L132.844 25.2566L132.849 25.2623C133.103 25.5153 133.231 25.8356 133.231 26.1827C133.231 26.5267 133.104 26.8554 132.838 27.0886C132.565 27.3528 132.207 27.4327 131.773 27.4327H122.795C122.378 27.4327 122.025 27.3498 121.756 27.1146C121.489 26.8815 121.362 26.5525 121.362 26.2085C121.362 25.8646 121.489 25.5358 121.756 25.3027C122 25.067 122.379 24.9587 122.795 24.9587H124.881V16.8133H123.442C123.031 16.8133 122.673 16.7321 122.402 16.4691L122.353 16.4239C122.118 16.1926 122.009 15.881 122.009 15.5375C122.009 15.1838 122.142 14.8912 122.391 14.6429C122.635 14.3992 123.019 14.2875 123.442 14.2875H127.384V16.3555C128.359 15.5358 129.128 14.983 129.743 14.6526L129.745 14.6511C130.613 14.1978 131.444 13.9761 132.234 14.0038Z" fill="white"/>
</svg>
