<svg width="96" height="27" viewBox="0 0 96 27" fill="none" xmlns="http://www.w3.org/2000/svg">
<g clip-path="url(#clip0_35_5935)">
<path d="M89.0262 11.0383V4.73966H94.1955V2.42263H90.3898L90.9378 1.21897L88.8314 0.227539L87.8399 2.42104H83.0427L82.0513 0.227539L79.8752 1.22055L80.4422 2.42421H76.619V4.74124H81.8232V11.0383H75.8208V13.3553H95.027V11.0383H89.0262ZM86.6537 11.0383H84.1577V4.73966H86.6537V11.0383Z" fill="url(#paint0_linear_35_5935)"/>
<path d="M74.7407 6.03198C74.3511 5.14824 72.9701 2.35291 72.156 1.13184L69.9609 2.2468C70.7576 3.45045 72.1386 6.22678 72.5108 7.14694L74.7407 6.03198Z" fill="url(#paint1_linear_35_5935)"/>
<path d="M73.9801 20.4316V8.90186H69.1829V11.2189H71.6076V22.4303C70.7571 23.1208 70.103 23.634 69.8908 23.8098L71.3067 25.5788C74.4393 23.2253 76.6344 20.997 77.024 20.59L75.5195 18.9619C75.0586 19.4766 74.5819 19.901 73.9801 20.4316Z" fill="url(#paint2_linear_35_5935)"/>
<path d="M77.6091 26.9234H93.2218V15.3921H77.6091V26.9234ZM79.9626 17.763H90.8668V19.9771H79.9626V17.763ZM79.9626 22.3305H90.8668V24.5715H79.9626V22.3305Z" fill="url(#paint3_linear_35_5935)"/>
<path d="M78.9361 5.64258L76.8123 6.47405L78.3342 10.2418L80.4058 9.37549L78.9361 5.64258Z" fill="url(#paint4_linear_35_5935)"/>
<path d="M92.5476 10.2418L94.0174 6.5279L91.9648 5.64258L90.4238 9.42776L92.5476 10.2418Z" fill="url(#paint5_linear_35_5935)"/>
<path d="M48.0765 11.08C48.4027 11.2763 50.6786 12.651 52.7264 14.1255C53.0986 13.4889 53.523 12.6748 53.8413 12.092C51.811 10.7252 49.2025 9.14936 49.2025 9.14936L49.3736 8.74075H53.9585V6.58051H49.3023V3.92772H53.6038V1.76906H45.373C45.533 1.41588 45.6739 1.06112 45.78 0.760203L43.7449 0C43.1969 1.32719 42.1691 3.29105 41.3027 4.56439L43.303 5.66193C43.6039 5.20264 43.9587 4.60081 44.3119 3.94672H46.9678V6.59951H41.3027V8.75817H46.6669C46.6669 8.75817 46.0334 10.2216 44.5463 11.2938C43.4091 12.1142 42.2308 12.7033 41.1855 13.0929L41.9109 15.3038C43.0259 14.9317 44.2485 14.3235 45.4712 13.53C46.6416 12.7714 47.4936 11.8544 48.0765 11.08Z" fill="url(#paint6_linear_35_5935)"/>
<path d="M44.3472 26.9241H64.0143V15.1426H44.3472V26.9241ZM46.7022 17.5135H61.6608V19.8669H46.7038V17.5135H46.7022ZM46.7022 22.2188H61.6418V24.5723H46.7022V22.2188Z" fill="url(#paint7_linear_35_5935)"/>
<path d="M55.3745 12.9139H65.5533V1.45068H55.3745V12.9139ZM57.7121 3.76772H63.2347V10.5953H57.7121V3.76772Z" fill="url(#paint8_linear_35_5935)"/>
<path d="M16.6291 0.0219727L14.4118 3.18473C14.0618 3.68362 13.4901 3.98136 12.8803 3.98136H0.791504V0.0219727H16.6291Z" fill="url(#paint9_linear_35_5935)"/>
<path d="M31.6751 0.0219727L12.67 26.9458H0L19.0051 0.0219727H31.6751Z" fill="url(#paint10_linear_35_5935)"/>
<path d="M15.0452 26.9452L17.2814 23.7777C17.6314 23.2804 18.2016 22.9858 18.8098 22.9858H30.8811V26.9452H15.0452Z" fill="url(#paint11_linear_35_5935)"/>
</g>
<defs>
<linearGradient id="paint0_linear_35_5935" x1="81.6664" y1="-9.73587" x2="88.0015" y2="23.6814" gradientUnits="userSpaceOnUse">
<stop stop-color="white"/>
<stop offset="0.15" stop-color="#F6F8FB"/>
<stop offset="0.69" stop-color="#DAE2EE"/>
<stop offset="1" stop-color="#D0DBEA"/>
</linearGradient>
<linearGradient id="paint1_linear_35_5935" x1="70.1352" y1="-7.55032" x2="76.4702" y2="25.8669" gradientUnits="userSpaceOnUse">
<stop stop-color="white"/>
<stop offset="0.15" stop-color="#F6F8FB"/>
<stop offset="0.69" stop-color="#DAE2EE"/>
<stop offset="1" stop-color="#D0DBEA"/>
</linearGradient>
<linearGradient id="paint2_linear_35_5935" x1="67.8984" y1="-7.12576" x2="74.2335" y2="26.2915" gradientUnits="userSpaceOnUse">
<stop stop-color="white"/>
<stop offset="0.15" stop-color="#F6F8FB"/>
<stop offset="0.69" stop-color="#DAE2EE"/>
<stop offset="1" stop-color="#D0DBEA"/>
</linearGradient>
<linearGradient id="paint3_linear_35_5935" x1="79.6316" y1="-9.35093" x2="85.9666" y2="24.0663" gradientUnits="userSpaceOnUse">
<stop stop-color="white"/>
<stop offset="0.15" stop-color="#F6F8FB"/>
<stop offset="0.69" stop-color="#DAE2EE"/>
<stop offset="1" stop-color="#D0DBEA"/>
</linearGradient>
<linearGradient id="paint4_linear_35_5935" x1="75.4835" y1="-8.56371" x2="81.8185" y2="24.8535" gradientUnits="userSpaceOnUse">
<stop stop-color="white"/>
<stop offset="0.15" stop-color="#F6F8FB"/>
<stop offset="0.69" stop-color="#DAE2EE"/>
<stop offset="1" stop-color="#D0DBEA"/>
</linearGradient>
<linearGradient id="paint5_linear_35_5935" x1="88.6136" y1="-11.0534" x2="94.9486" y2="22.3639" gradientUnits="userSpaceOnUse">
<stop stop-color="white"/>
<stop offset="0.15" stop-color="#F6F8FB"/>
<stop offset="0.69" stop-color="#DAE2EE"/>
<stop offset="1" stop-color="#D0DBEA"/>
</linearGradient>
<linearGradient id="paint6_linear_35_5935" x1="45.4427" y1="-2.86818" x2="51.7777" y2="30.5491" gradientUnits="userSpaceOnUse">
<stop stop-color="white"/>
<stop offset="0.15" stop-color="#F6F8FB"/>
<stop offset="0.69" stop-color="#DAE2EE"/>
<stop offset="1" stop-color="#D0DBEA"/>
</linearGradient>
<linearGradient id="paint7_linear_35_5935" x1="49.5039" y1="-3.6376" x2="55.8389" y2="29.7797" gradientUnits="userSpaceOnUse">
<stop stop-color="white"/>
<stop offset="0.15" stop-color="#F6F8FB"/>
<stop offset="0.69" stop-color="#DAE2EE"/>
<stop offset="1" stop-color="#D0DBEA"/>
</linearGradient>
<linearGradient id="paint8_linear_35_5935" x1="58.1033" y1="-5.26919" x2="64.4383" y2="28.1481" gradientUnits="userSpaceOnUse">
<stop stop-color="white"/>
<stop offset="0.15" stop-color="#F6F8FB"/>
<stop offset="0.69" stop-color="#DAE2EE"/>
<stop offset="1" stop-color="#D0DBEA"/>
</linearGradient>
<linearGradient id="paint9_linear_35_5935" x1="9.09355" y1="4.02254" x2="15.4286" y2="37.4398" gradientUnits="userSpaceOnUse">
<stop stop-color="white"/>
<stop offset="0.15" stop-color="#F6F8FB"/>
<stop offset="0.69" stop-color="#DAE2EE"/>
<stop offset="1" stop-color="#D0DBEA"/>
</linearGradient>
<linearGradient id="paint10_linear_35_5935" x1="13.8721" y1="3.11663" x2="20.2071" y2="36.5339" gradientUnits="userSpaceOnUse">
<stop stop-color="white"/>
<stop offset="0.15" stop-color="#F6F8FB"/>
<stop offset="0.69" stop-color="#DAE2EE"/>
<stop offset="1" stop-color="#D0DBEA"/>
</linearGradient>
<linearGradient id="paint11_linear_35_5935" x1="18.6498" y1="2.21013" x2="24.9848" y2="35.6274" gradientUnits="userSpaceOnUse">
<stop stop-color="white"/>
<stop offset="0.15" stop-color="#F6F8FB"/>
<stop offset="0.69" stop-color="#DAE2EE"/>
<stop offset="1" stop-color="#D0DBEA"/>
</linearGradient>
<clipPath id="clip0_35_5935">
<rect width="95.027" height="26.946" fill="white"/>
</clipPath>
</defs>
</svg>
