<svg width="224" height="173" viewBox="0 0 224 173" fill="none" xmlns="http://www.w3.org/2000/svg">
<g clip-path="url(#clip0_52_7059)">
<mask id="mask0_52_7059" style="mask-type:luminance" maskUnits="userSpaceOnUse" x="0" y="0" width="224" height="173">
<path d="M224 0H0V172.946H224V0Z" fill="white"/>
</mask>
<g mask="url(#mask0_52_7059)">
<path d="M11.9939 129.943H19.6007L31.4677 163.357H24.578L16.8286 138.917C16.7631 138.601 16.7091 138.369 16.6629 138.226C16.6166 138.083 16.5433 137.867 16.447 137.581C16.258 136.913 15.9997 135.909 15.6836 134.577C15.5872 135.087 15.4677 135.577 15.325 136.056C15.1824 136.531 15.0474 137.01 14.9202 137.489L14.4421 138.921L6.68888 163.361H0.126953L11.9901 129.947L11.9939 129.943ZM7.68744 148.942H23.7645V154.24H7.68744V148.942Z" fill="white"/>
<path d="M35.0107 140.226H40.8054V142.455C40.8054 143.435 40.7592 144.269 40.6628 144.965C41.457 143.323 42.5519 141.995 43.9399 140.983C45.3356 139.972 47.0474 139.466 49.0715 139.466C49.6729 139.466 50.3553 139.512 51.1187 139.609V145.2C50.3592 145.073 49.5804 145.011 48.7939 145.011C47.2093 145.011 45.8329 145.27 44.6609 145.791C43.485 146.312 42.5519 147.146 41.858 148.278C41.1563 149.417 40.8093 150.869 40.8093 152.641V163.354H35.0146V140.223L35.0107 140.226Z" fill="white"/>
<path d="M59.4202 162.635C57.6814 161.639 56.3358 160.21 55.3835 158.345C54.4312 156.484 53.957 154.267 53.957 151.711C53.957 149.154 54.4775 147.034 55.5262 145.169C56.571 143.308 58.0129 141.875 59.8481 140.879C61.6833 139.883 63.7421 139.388 66.0245 139.388C68.1797 139.388 70.0496 139.79 71.6303 140.597C73.2149 141.404 74.4486 142.524 75.3392 143.964C76.2259 145.401 76.7619 147.034 76.9546 148.869H71.1098C71.0173 147.482 70.5353 146.32 69.6602 145.385C68.7888 144.455 67.5821 143.991 66.0245 143.991C64.8833 143.991 63.8423 144.293 62.89 144.891C61.9378 145.494 61.1975 146.382 60.6578 147.571C60.1141 148.753 59.8481 150.151 59.8481 151.765C59.8481 153.282 60.1064 154.63 60.6346 155.82C61.1551 157.001 61.8684 157.928 62.7744 158.588C63.6766 159.256 64.7137 159.588 65.8857 159.588C67.532 159.588 68.8081 159.106 69.7141 158.144C70.6163 157.179 71.1445 155.959 71.3026 154.468H77.1937C76.9084 156.464 76.2953 158.175 75.3662 159.612C74.4293 161.048 73.1455 162.16 71.5185 162.952C69.8876 163.744 67.9445 164.134 65.6929 164.134C63.2525 164.134 61.1667 163.635 59.4202 162.643V162.635Z" fill="white"/>
<path d="M80.624 130.097H86.4226V141.192C86.4226 141.57 86.4033 141.871 86.3725 142.092C86.3725 142.316 86.357 142.536 86.3262 142.756C86.2954 142.98 86.2452 143.215 86.1835 143.47C86.9161 142.204 87.8607 141.207 89.0327 140.481C90.2047 139.755 91.6775 139.392 93.451 139.392C95.2245 139.392 96.6395 139.778 97.8925 140.555C99.1455 141.331 100.105 142.416 100.769 143.825C101.432 145.231 101.767 146.88 101.767 148.776V163.28H95.9686V149.629C95.9686 147.861 95.5754 146.478 94.7811 145.482C93.9869 144.486 92.8804 143.991 91.4578 143.991C90.5055 143.991 89.6534 144.242 88.8939 144.748C88.1344 145.258 87.5291 145.953 87.0896 146.834C86.6462 147.722 86.4264 148.699 86.4264 149.772V163.28H80.6279V130.097H80.624Z" fill="white"/>
<path d="M111.098 162.581C109.309 161.6 107.913 160.183 106.915 158.314C105.916 156.453 105.419 154.209 105.419 151.583C105.419 149.185 105.916 147.05 106.915 145.189C107.913 143.323 109.301 141.879 111.071 140.848C112.844 139.821 114.842 139.311 117.058 139.311C119.275 139.311 121.373 139.825 123.065 140.848C124.758 141.879 126.042 143.32 126.913 145.189C127.788 147.05 128.22 149.247 128.22 151.776V153.055H111.356C111.387 154.286 111.649 155.387 112.143 156.349C112.636 157.314 113.323 158.082 114.209 158.646C115.1 159.218 116.114 159.503 117.251 159.503C118.551 159.503 119.649 159.164 120.555 158.484C121.457 157.804 122.005 156.866 122.194 155.665H128.081C127.923 157.248 127.376 158.673 126.446 159.955C125.51 161.233 124.249 162.238 122.668 162.967C121.084 163.693 119.279 164.056 117.251 164.056C114.938 164.056 112.887 163.566 111.102 162.585L111.098 162.581ZM120.787 145.073C119.819 144.107 118.566 143.628 117.008 143.628C115.451 143.628 114.159 144.119 113.114 145.1C112.066 146.081 111.468 147.343 111.31 148.892H122.283C122.252 147.309 121.751 146.042 120.787 145.077V145.073Z" fill="white"/>
<path d="M131.848 163.276V140.145V131.808H137.642V140.145H145.342V144.744H137.642V158.654H145.342V163.276H131.848Z" fill="white"/>
<path d="M157.378 163.087L148.303 140.145H154.815L159.753 155.078C160.104 156.125 160.355 157.036 160.513 157.828C160.544 157.573 160.59 157.322 160.656 157.067C160.717 156.816 160.783 156.576 160.844 156.356C160.906 156.101 160.972 155.889 161.033 155.715C161.099 155.541 161.161 155.329 161.222 155.074L165.93 140.141H172.014L159.803 172.942H153.577L157.378 163.083V163.087Z" fill="white"/>
<path d="M175.032 140.145H180.827V141.192C180.827 141.856 180.765 142.613 180.638 143.466C181.432 142.169 182.45 141.169 183.703 140.454C184.952 139.744 186.464 139.388 188.237 139.388C190.265 139.388 192.046 139.917 193.585 140.975C195.119 142.037 196.306 143.505 197.147 145.382C197.987 147.262 198.408 149.421 198.408 151.854C198.408 154.286 197.957 156.434 197.054 158.299C196.148 160.16 194.907 161.6 193.322 162.612C191.738 163.624 189.964 164.13 188.002 164.13C186.167 164.13 184.682 163.782 183.56 163.087C182.435 162.392 181.459 161.396 180.638 160.102C180.765 160.955 180.827 161.693 180.827 162.326V172.946H175.032V140.149V140.145ZM189.694 158.581C190.6 157.916 191.294 157.001 191.788 155.835C192.281 154.669 192.524 153.306 192.524 151.757C192.524 150.209 192.289 148.9 191.815 147.729C191.341 146.559 190.651 145.644 189.748 144.98C188.846 144.316 187.794 143.984 186.587 143.984C185.446 143.984 184.416 144.3 183.503 144.934C182.585 145.567 181.872 146.467 181.363 147.633C180.854 148.803 180.603 150.174 180.603 151.757C180.603 153.34 180.854 154.622 181.363 155.812C181.868 156.993 182.573 157.92 183.476 158.581C184.382 159.249 185.415 159.581 186.587 159.581C187.759 159.581 188.8 159.249 189.698 158.581H189.694Z" fill="white"/>
<path d="M206.878 162.658C205.089 161.678 203.694 160.26 202.695 158.391C201.697 156.53 201.199 154.286 201.199 151.661C201.199 149.262 201.697 147.127 202.695 145.266C203.694 143.401 205.082 141.956 206.851 140.925C208.625 139.898 210.622 139.388 212.839 139.388C215.056 139.388 217.153 139.902 218.845 140.925C220.538 141.956 221.822 143.397 222.693 145.266C223.568 147.127 224 149.324 224 151.854V153.132H207.137C207.167 154.364 207.43 155.464 207.923 156.426C208.417 157.391 209.103 158.16 209.99 158.723C210.88 159.295 211.894 159.581 213.032 159.581C214.331 159.581 215.43 159.241 216.336 158.557C217.238 157.878 217.785 156.939 217.974 155.738H223.861C223.703 157.322 223.156 158.747 222.227 160.029C221.29 161.307 220.029 162.311 218.448 163.041C216.864 163.767 215.059 164.13 213.032 164.13C210.718 164.13 208.667 163.639 206.882 162.658H206.878ZM216.567 145.15C215.599 144.184 214.346 143.706 212.789 143.706C211.231 143.706 209.939 144.196 208.895 145.177C207.846 146.158 207.248 147.421 207.09 148.969H218.063C218.032 147.386 217.535 146.119 216.567 145.154V145.15Z" fill="white"/>
<path d="M224 121.293H192.413V53.4176L123.886 121.293H0V90.0025H110.797L170.074 31.2906H101.544V0H223.996V121.293H224Z" fill="white"/>
</g>
</g>
<defs>
<clipPath id="clip0_52_7059">
<rect width="224" height="173" fill="white"/>
</clipPath>
</defs>
</svg>
