<svg width="942" height="100" viewBox="0 0 942 100" fill="none" xmlns="http://www.w3.org/2000/svg">
<mask id="mask0_38_6253" style="mask-type:luminance" maskUnits="userSpaceOnUse" x="1" y="0" width="101" height="100">
<path d="M101.641 0H1.64136V100H101.641V0Z" fill="white"/>
</mask>
<g mask="url(#mask0_38_6253)">
<path d="M101.641 0H1.64136V100H101.641V0ZM35.9404 62.2297H26.3928V17.1315H35.944V62.2297H35.9404ZM56.4117 82.7665H46.864V17.1315H56.4117V82.7665ZM76.8898 62.2297H67.3388V17.1315H76.8898V62.2297Z" fill="white"/>
</g>
<mask id="mask1_38_6253" style="mask-type:luminance" maskUnits="userSpaceOnUse" x="162" y="19" width="779" height="60">
<path d="M940.351 19H162.932V78.5832H940.351V19Z" fill="white"/>
</mask>
<g mask="url(#mask1_38_6253)">
<path d="M343.426 77.6952H332.787L326.034 64.5784H286.524L279.76 77.6952H269.132L300.166 19.0397H312.4L343.426 77.6952ZM321.315 55.8197L306.371 27.3984L291.24 55.8197H321.315ZM462.808 77.6952H450.713L405.926 29.5916V77.6952H396.208V19.0397H408.276L453.091 67.1632V19.0426H462.808V77.6952ZM581.545 27.7814V19.0426H515.758V27.7814H543.797V36.5884V45.3386V77.6952H553.516V45.3386V36.5884V27.7814H581.545ZM695.91 27.7899H644.213V43.9682H678.565V52.7271H644.213V68.9648H695.958V77.7035H634.494V19.0397H695.91V27.7899ZM940.352 77.6952H929.703L922.948 64.5784H883.429L876.677 77.6952H866.036L897.074 19.0397H909.307L940.352 77.6952ZM918.242 55.8197L903.287 27.3984L888.155 55.8197H918.242ZM210.78 19H162.932V77.6923H172.649V55.2919H210.783C220.804 55.2919 228.927 47.129 228.927 37.1048C228.927 27.0863 220.804 19 210.78 19ZM210.78 46.5218H172.649V27.7673H210.783C212.01 27.7654 213.225 28.0056 214.359 28.4741C215.494 28.9425 216.524 29.6301 217.392 30.4975C218.261 31.3648 218.949 32.3948 219.419 33.5286C219.888 34.6624 220.129 35.8776 220.129 37.1048C220.137 42.2744 215.949 46.5218 210.78 46.5218ZM815.458 77.6923L799.926 54.9655C808.439 53.4703 814.939 46.0508 814.939 37.1048C814.939 27.0835 806.816 19 796.794 19H748.945V77.6923H758.661V55.2919H788.29L804.152 77.6923H815.458ZM758.655 27.7701H796.784C798.01 27.7686 799.226 28.0089 800.358 28.4774C801.494 28.9458 802.523 29.6332 803.39 30.5001C804.261 31.3671 804.948 32.3966 805.419 33.5299C805.887 34.6632 806.129 35.878 806.129 37.1048C806.129 42.2744 801.942 46.5218 796.784 46.5218H758.655V27.7701Z" fill="white"/>
</g>
</svg>
