<svg width="450" height="150" viewBox="0 0 450 150" fill="none" xmlns="http://www.w3.org/2000/svg">
<path d="M339.04 72.0601C341.87 72.0601 347.99 73.0901 347.99 76.7201V79.58H344.9V77.7501C344.9 75.6901 341.34 74.9201 339.18 74.9201C334.16 74.9201 330.46 78.6101 330.46 83.9301C330.46 89.4901 334.25 93.4401 339.38 93.4401C341.04 93.4401 345.23 92.8401 345.23 90.6801V88.8501H348.32V91.7101C348.32 95.1701 342.43 96.33 339.17 96.33C332.12 96.33 327.03 90.9101 327.03 84.0601C327.03 77.1801 332.26 72.0601 339.04 72.0601Z" fill="white"/>
<path d="M351.91 93.35H354.84V75.02H351.91V72.46H361.12V75.02H358.16V82.84H370.33V75.02H367.37V72.46H376.58V75.02H373.65V93.35H376.58V95.94H367.37V93.35H370.33V85.57H358.16V93.35H361.12V95.94H351.91V93.35Z" fill="white"/>
<path d="M380.12 93.35H383.05V75.02H380.12V72.46H389.33V75.02H386.37V93.35H389.33V95.94H380.12V93.35Z" fill="white"/>
<path d="M392.82 93.35H395.75V75.02H392.82V72.46H399.04L410.58 89.29C410.98 89.96 411.38 90.99 411.38 90.99H411.48C411.48 90.99 411.31 89.83 411.31 89.09V75.02H408.32V72.46H417.6V75.02H414.64V95.94H411.38L399.84 79.11C399.41 78.44 399.04 77.41 399.04 77.41H398.94C398.94 77.41 399.11 78.57 399.07 79.31V93.35H402.1V95.94H392.82V93.35Z" fill="white"/>
<path d="M418.96 93.35H421.22L428.7 72.46H432.46L439.94 93.35H442.2V95.94H434.05V93.35H436.54L434.71 88.13H426.39L424.56 93.35H427.09V95.94H418.94V93.35H418.96ZM433.9 85.47L431.04 77.32C430.71 76.36 430.64 75.52 430.64 75.52H430.54C430.54 75.52 430.44 76.35 430.14 77.32L427.25 85.47H433.9Z" fill="white"/>
<path d="M98.8 116.83H102.09L107.19 129.83L112.27 116.83H115.49L108.45 133.87H105.84L98.8 116.83Z" fill="white"/>
<path d="M120.91 116.83H133.46V119.49H123.88V123.89H132.37V126.55H123.88V131.09H133.58V133.75H120.91V116.83Z" fill="white"/>
<path d="M139.62 116.83H142.38L151.45 128.53V116.83H154.38V133.75H151.89L142.55 121.71V133.75H139.62V116.83Z" fill="white"/>
<path d="M165.41 119.58H160.04V116.82H173.77V119.58H168.4V133.75H165.41V119.58Z" fill="white"/>
<path d="M179.17 126.57V116.83H182.14V126.46C182.14 129.6 183.76 131.3 186.42 131.3C189.05 131.3 190.68 129.7 190.68 126.58V116.84H193.65V126.44C193.65 131.49 190.8 134.04 186.37 134.04C181.97 134.02 179.17 131.48 179.17 126.57Z" fill="white"/>
<path d="M200.25 116.82H207.8C209.93 116.82 211.6 117.45 212.68 118.51C213.58 119.43 214.08 120.69 214.08 122.16V122.21C214.08 124.99 212.41 126.66 210.04 127.34L214.61 133.75H211.1L206.94 127.85H203.22V133.75H200.24V116.82H200.25ZM207.58 125.22C209.71 125.22 211.06 124.11 211.06 122.39V122.34C211.06 120.52 209.76 119.53 207.55 119.53H203.22V125.21H207.58V125.22Z" fill="white"/>
<path d="M220.25 116.83H232.81V119.49H223.23V123.89H231.72V126.55H223.23V131.09H232.93V133.75H220.25V116.83Z" fill="white"/>
<path d="M237.84 131.29L239.63 129.16C241.25 130.56 242.87 131.36 244.98 131.36C246.82 131.36 247.98 130.52 247.98 129.23V129.18C247.98 127.97 247.3 127.32 244.16 126.59C240.56 125.72 238.53 124.66 238.53 121.54V121.49C238.53 118.59 240.95 116.58 244.31 116.58C246.78 116.58 248.74 117.33 250.45 118.71L248.85 120.96C247.33 119.83 245.8 119.22 244.25 119.22C242.51 119.22 241.49 120.12 241.49 121.23V121.28C241.49 122.59 242.26 123.17 245.51 123.94C249.09 124.81 250.95 126.09 250.95 128.89V128.94C250.95 132.11 248.46 134 244.91 134C242.31 134 239.87 133.1 237.84 131.29Z" fill="white"/>
<path d="M74.2099 106.82C61.0199 106.82 51.4399 97.1303 51.4399 83.7903C51.4399 67.8503 62.57 60.5903 72.92 60.5903C85.43 60.5903 91.0399 70.7303 91.0399 80.7803C91.0399 81.7503 90.8699 83.1103 90.8599 83.1703L90.7999 83.6404H56.3099C56.5399 94.6104 63.8299 102.21 74.2099 102.21C82.1599 102.21 87.12 97.0003 87.17 96.9503L87.64 96.4603L90.2399 100.41L89.9299 100.72C89.6699 100.97 83.6299 106.82 74.2099 106.82ZM86.14 79.2103C85.68 72.2503 81.9799 65.0303 72.8299 65.0303C64.5299 65.0303 58.2399 70.5703 56.6599 79.2103H86.14Z" fill="white"/>
<path d="M98.4999 105.79V101.36H105.39V67.43C105.39 66.48 104.98 66.07 104.03 66.07H97.2V61.64H104.54C108.32 61.64 110.08 63.31 110.08 66.91V69.93C110.08 70.16 110.08 70.39 110.07 70.61C112.8 64.65 117.46 61.29 123.15 61.29C124.48 61.29 125.71 61.55 125.76 61.56L126.19 61.65V66.34L125.56 66.23C125.55 66.23 124.56 66.07 123.67 66.07C113.77 66.07 110.08 78.69 110.08 86.64V101.35H116.97V105.78H98.4999V105.79Z" fill="white"/>
<path d="M154.79 106.13C152.37 106.13 148.86 105.66 145.93 103.41C142.36 100.67 140.55 96.0404 140.55 89.6504V66.0604H132.36V61.6304H140.55V49.6504H145.24V61.6304H156.53V66.0604H145.24V89.3904C145.24 100.1 151.33 101.69 154.96 101.69C156.08 101.69 156.82 101.53 156.83 101.53L157.48 101.39V105.86L157.05 105.95C157.02 105.96 156.13 106.13 154.79 106.13Z" fill="white"/>
<path d="M184.85 106.82C171.66 106.82 162.08 97.1303 162.08 83.7903C162.08 67.8503 173.21 60.5903 183.56 60.5903C196.07 60.5903 201.68 70.7303 201.68 80.7803C201.68 81.7503 201.51 83.1103 201.5 83.1703L201.44 83.6404H166.95C167.18 94.6104 174.47 102.21 184.85 102.21C192.78 102.21 197.76 97.0003 197.81 96.9503L198.28 96.4603L200.88 100.41L200.57 100.72C200.31 100.97 194.27 106.82 184.85 106.82ZM196.78 79.2103C196.32 72.2503 192.62 65.0303 183.47 65.0303C175.17 65.0303 168.88 70.5703 167.3 79.2103H196.78Z" fill="white"/>
<path d="M25.2 105.79L10.48 67.6704C10.01 66.4904 9.28998 66.0704 7.72998 66.0704H2.21997V61.6304H7.66998C12.18 61.6304 13.53 62.5804 15.24 66.9904L26.93 97.5604C27.07 97.9104 27.19 98.2604 27.29 98.6004C27.39 98.2604 27.51 97.9004 27.65 97.5604L39.69 66.0704H33.13V61.6404H50.75V66.0704H44.72L29.38 105.79H25.2Z" fill="white"/>
<path d="M246.27 105.79C241.34 105.79 239.8 104.55 237.37 100.59C235.06 96.8201 229.72 88.0401 229.72 88.0401C229.37 87.5201 229.05 86.9701 228.81 86.5301C228.58 86.9701 228.26 87.5401 227.87 88.1401L217.12 105.79H207.15V101.36H214.54L225.93 82.7701C224.71 80.8001 217.48 69.1501 216.71 67.8901C215.76 66.3401 215.18 66.0701 212.79 66.0701H207.16V61.6401H212.62C217.42 61.6401 218.99 62.8801 221.28 66.6201C223.56 70.3401 227.97 77.5801 227.97 77.5801C228.32 78.1001 228.64 78.6601 228.88 79.0901C229.11 78.6501 229.43 78.0801 229.82 77.4801L239.63 61.6401H250.12V66.0701H242.3L231.78 82.8501L242.32 99.7201C243.02 100.84 244.22 101.36 246.09 101.36H250.65V105.79H246.27Z" fill="white"/>
<path d="M266.09 26.9704H287.17L298.5 14.1904L266.09 26.9704Z" fill="white"/>
<path d="M239.51 33.5702L260.57 58.3802L260.31 29.4702L239.51 33.5702Z" fill="white"/>
<path d="M266.41 2.43018L262.74 26.7602L296.23 11.2702L266.41 2.43018Z" fill="white"/>
<path d="M262.12 5.27002L240.27 29.73L260.57 27.09L262.12 5.27002Z" fill="white"/>
<path d="M275.77 50.15L292.77 55.75L286.95 30.71L275.77 50.15Z" fill="white"/>
<path d="M262.24 32.2202L263.78 60.1802L272.86 50.6002L262.24 32.2202Z" fill="white"/>
<path d="M288.36 28.6404L295.08 52.2004L300.13 17.4004L288.36 28.6404Z" fill="white"/>
<path d="M274.39 51.7002L267.01 61.1802L290.81 58.2502L274.39 51.7002Z" fill="white"/>
<path d="M313.32 61.8301H310.78V106.15H313.32V61.8301Z" fill="white"/>
</svg>
